<?xml version="1.0" encoding="utf-8"?>
<!-- Generator: Adobe Illustrator 27.5.0, SVG Export Plug-In . SVG Version: 6.00 Build 0)  -->
<svg version="1.1" xmlns="http://www.w3.org/2000/svg" xmlns:xlink="http://www.w3.org/1999/xlink" x="0px" y="0px"
	 viewBox="0 0 2500 2500" style="enable-background:new 0 0 2500 2500;" xml:space="preserve">
<g id="Background">
	<rect style="fill:#FFFFFF;" width="2500" height="2500"/>
</g>
<g id="Illustration">
	<g id="Men_style_and_fashion_1_">
		<circle style="fill:#F2E6DC;" cx="1250" cy="1250" r="915"/>
		<g>
			<g>
				<polygon style="fill:#D3BBA3;" points="511.385,500.362 667.928,497.422 591.494,687.771 				"/>
				<g>
					<path style="fill:#D3BBA3;" d="M835.417,568.588c-0.002,0-0.004,0-0.007,0l-472.977-1.544
						c-1.061-0.004-1.968-0.762-2.162-1.804c-0.192-1.042,0.383-2.076,1.374-2.457l236.79-91.541c0.517-0.2,1.089-0.196,1.602,0.004
						l236.187,93.085c0.988,0.39,1.557,1.425,1.359,2.467C837.382,567.837,836.474,568.588,835.417,568.588z M374.159,562.674
						l449.553,1.466l-224.491-88.475L374.159,562.674z"/>
					<path style="fill:#D3BBA3;" d="M599.247,474.615c-0.002,0-0.004,0-0.006,0c-1.219-0.004-2.203-0.995-2.198-2.211l0.198-60.943
						c0.002-0.586,0.237-1.146,0.65-1.557c0.414-0.411,0.973-0.642,1.555-0.642c0.047,0.015,0.075,0,0.112,0
						c8.066,0,15.653-3.129,21.378-8.815c5.751-5.712,8.931-13.322,8.957-21.426c0.054-16.73-13.513-30.385-30.241-30.439
						c-0.034,0-0.071,0-0.103,0c-16.683,0-30.282,13.543-30.338,30.241c-0.004,1.216-0.99,2.198-2.205,2.198
						c-0.002,0-0.004,0-0.007,0c-1.219-0.004-2.203-0.995-2.198-2.211c0.065-19.124,15.641-34.638,34.745-34.638
						c0.041,0,0.08,0,0.118,0c19.161,0.063,34.7,15.701,34.638,34.862c-0.03,9.282-3.673,17.998-10.258,24.539
						c-6.061,6.022-13.948,9.538-22.401,10.038l-0.192,58.805C601.447,473.633,600.461,474.615,599.247,474.615z"/>
				</g>
				<polygon style="fill:#E6D0BE;" points="513.59,496.687 598.843,665.723 663.518,489.338 728.193,515.795 742.892,692.181 
					750.241,927.362 616.482,922.952 595.904,874.446 551.807,922.952 407.759,917.073 435.687,681.892 450.385,517.265 				"/>
				<path style="fill:#F2E6DC;" d="M595.901,876.652c-1.18,0-2.16-0.937-2.201-2.127l-6.614-186.307
					c-0.011-0.269,0.03-0.538,0.118-0.794l12.495-36.38c0.394-1.15,1.636-1.766,2.801-1.367c1.152,0.394,1.763,1.649,1.367,2.801
					l-12.361,35.992l6.599,185.9c0.043,1.216-0.906,2.237-2.125,2.28C595.955,876.652,595.929,876.652,595.901,876.652z"/>
				<path style="fill:#84524D;" d="M607.846,693.835c0,3.349-2.715,6.063-6.063,6.063c-3.349,0-6.063-2.715-6.063-6.063
					c0-3.349,2.715-6.063,6.063-6.063C605.132,687.771,607.846,690.486,607.846,693.835z"/>
				<path style="fill:#84524D;" d="M608.949,739.034c0,3.349-2.715,6.063-6.063,6.063c-3.349,0-6.063-2.715-6.063-6.063
					c0-3.349,2.715-6.063,6.063-6.063C606.234,732.97,608.949,735.685,608.949,739.034z"/>
				<path style="fill:#84524D;" d="M610.602,777.067c0,3.349-2.715,6.063-6.063,6.063c-3.349,0-6.063-2.715-6.063-6.063
					c0-3.349,2.715-6.063,6.063-6.063C607.888,771.003,610.602,773.718,610.602,777.067z"/>
				<path style="fill:#84524D;" d="M611.705,822.265c0,3.349-2.715,6.063-6.063,6.063c-3.349,0-6.063-2.715-6.063-6.063
					c0-3.349,2.715-6.063,6.063-6.063C608.99,816.202,611.705,818.917,611.705,822.265z"/>
				<path style="fill:#F2E6DC;" d="M452.59,824.47c-0.631,0-1.236-0.271-1.656-0.749c-0.461-0.523-0.646-1.236-0.5-1.918
					l2.205-10.29c0.202-0.945,0.999-1.649,1.962-1.733l66.881-5.878c1.176-0.12,2.211,0.724,2.377,1.884l1.468,10.288
					c0.086,0.601-0.08,1.212-0.459,1.686c-0.379,0.476-0.937,0.773-1.542,0.823l-70.554,5.88
					C452.712,824.468,452.65,824.47,452.59,824.47z M456.61,814.03l-1.242,5.792l65.264-5.439l-0.844-5.906L456.61,814.03z"/>
			</g>
			<g>
				<path style="fill:#F7F1EB;" d="M822.265,495.952c32.111-76.405,184.47-58.06,214.603,0.735L822.265,495.952z"/>
				<polygon style="fill:#E6D0BE;" points="841.065,1007.087 1005.151,1007.087 1005.151,487.405 982.956,473.608 871.187,473.608 
					841.065,487.405 				"/>
				<g>
					<path style="fill:#D3BBA3;" d="M1162.354,568.588c-0.004,0-0.011,0-0.015,0l-445.92-3.185c-1.044-0.006-1.94-0.745-2.147-1.77
						c-0.207-1.023,0.334-2.05,1.294-2.461l209.734-89.9c0.534-0.226,1.139-0.235,1.675-0.026l236.187,93.085
						c0.988,0.39,1.559,1.427,1.356,2.472C1164.318,567.841,1163.409,568.588,1162.354,568.588z M726.997,561.07l423.534,3.025
						l-224.33-88.412L726.997,561.07z"/>
					<path style="fill:#D3BBA3;" d="M926.184,474.615c-0.002,0-0.004,0-0.006,0c-1.219-0.004-2.203-0.995-2.198-2.211l0.2-60.943
						c0.002-0.586,0.237-1.146,0.65-1.557c0.416-0.411,0.975-0.736,1.561-0.642c0.037,0,0.071,0,0.105,0
						c8.066,0,15.653-3.129,21.379-8.815c5.749-5.712,8.929-13.322,8.955-21.426c0.028-8.104-3.103-15.735-8.815-21.484
						c-5.712-5.749-13.321-8.929-21.426-8.955c-0.034,0-0.071,0-0.105,0c-8.066,0-15.651,3.129-21.376,8.815
						c-5.751,5.712-8.931,13.322-8.957,21.426c-0.004,1.216-0.99,2.198-2.205,2.198c-0.002,0-0.004,0-0.006,0
						c-1.219-0.004-2.203-0.995-2.198-2.211c0.03-9.282,3.673-17.998,10.258-24.539c6.556-6.515,15.249-10.098,24.486-10.098
						c0.039,0,0.08,0,0.118,0c9.282,0.03,17.998,3.673,24.539,10.258c6.543,6.584,10.128,15.322,10.098,24.604
						c-0.03,9.282-3.673,17.998-10.258,24.539c-6.061,6.022-13.946,9.54-22.399,10.038l-0.194,58.805
						C928.385,473.633,927.399,474.615,926.184,474.615z"/>
				</g>
				<path style="fill:#E6D0BE;" d="M1265.835,987.005l-87.126-359.83c-11.697-48.308-45.31-88.367-90.853-108.275l-104.218-45.556
					v556.996h151.139l-38.071-298.051l82.462,277.969L1265.835,987.005z"/>
				<path style="fill:#D3BBA3;" d="M589.474,987.005l85.948-354.964c12.439-51.374,48.186-93.975,96.619-115.147l99.63-43.551
					v556.996H720.531l38.071-298.051l-82.462,277.969L589.474,987.005z"/>
				<path style="fill:#F7F1EB;" d="M870.771,656.904l-48.506-160.952c4.277-11.91,28.611-18.078,52.916-24.253L870.771,656.904z"/>
				<path style="fill:#F7F1EB;" d="M983.952,670.133l-0.313-196.79c18.425,1.048,36.735,3.251,53.229,23.344
					C1027.228,548.638,1006.391,608.798,983.952,670.133z"/>
			</g>
			<g>
				<g>
					<path style="fill:#D3BBA3;" d="M1362.302,568.433c-0.015,0-0.028,0-0.043,0l-425.289-1.389
						c-1.061-0.004-1.968-0.762-2.162-1.804c-0.192-1.042,0.383-2.076,1.374-2.457l236.79-91.541c0.517-0.2,1.089-0.196,1.602,0.004
						l191.821,75.599c5.962,2.351,7.751,7.977,6.884,12.51C1372.411,563.88,1368.681,568.433,1362.302,568.433z M948.695,562.674
						l413.576,1.35c0.011,0,0.019,0,0.028,0c4.127,0,6.16-2.958,6.647-5.497c0.489-2.545-0.31-6.057-4.168-7.577l-191.02-75.285
						L948.695,562.674z"/>
					<path style="fill:#D3BBA3;" d="M1173.783,474.615c-0.002,0-0.004,0-0.006,0c-1.219-0.004-2.203-0.995-2.198-2.211l0.2-60.943
						c0.004-1.216,0.99-2.198,2.205-2.198c0.047,0.006,0.073,0,0.11,0c8.33,0,16.095-3.307,21.872-9.317
						c5.798-6.033,8.796-13.974,8.436-22.36c-0.661-15.479-13.302-28.202-28.779-28.966c-8.359-0.42-16.344,2.532-22.412,8.29
						c-6.074,5.762-9.433,13.545-9.461,21.915c-0.004,1.216-0.99,2.198-2.205,2.198c-0.002,0-0.004,0-0.006,0
						c-1.219-0.004-2.203-0.995-2.198-2.211c0.032-9.586,3.88-18.5,10.835-25.101c6.953-6.595,16.114-9.935,25.666-9.495
						c17.729,0.876,32.209,15.451,32.967,33.182c0.411,9.603-3.021,18.696-9.661,25.605c-6.132,6.38-14.219,10.098-22.963,10.611
						l-0.194,58.805C1175.984,473.633,1174.997,474.615,1173.783,474.615z"/>
				</g>
			</g>
			<g>
				<g>
					<path style="fill:#E6D0BE;" d="M1435.928,1306.023c-1.219,0-2.205-0.986-2.205-2.205v-92.553
						c0-33.232-30.461-60.269-67.902-60.269H447.121c-37.441,0-67.902,27.037-67.902,60.269v92.553c0,1.219-0.986,2.205-2.205,2.205
						c-1.219,0-2.205-0.986-2.205-2.205v-92.553c0-35.665,32.439-64.678,72.311-64.678h918.701
						c39.872,0,72.311,29.014,72.311,64.678v92.553C1438.133,1305.037,1437.147,1306.023,1435.928,1306.023z"/>
					
						<ellipse transform="matrix(0.9871 -0.1602 0.1602 0.9871 -190.6331 247.024)" style="fill:#E6D0BE;" cx="1436.872" cy="1305.931" rx="34.696" ry="34.696"/>
					
						<ellipse transform="matrix(0.7071 -0.7071 0.7071 0.7071 -818.491 651.3596)" style="fill:#E6D0BE;" cx="377.015" cy="1313.686" rx="34.696" ry="34.696"/>
				</g>
				<g>
					<path style="fill:#E6D0BE;" d="M1322.63,1306.021c-1.219,0-2.205-0.986-2.205-2.205v-92.551
						c0-33.234-23.872-60.271-53.215-60.271H540.976c-29.343,0-53.215,27.037-53.215,60.271v92.551c0,1.219-0.986,2.205-2.205,2.205
						c-1.219,0-2.205-0.986-2.205-2.205v-92.551c0-35.665,25.851-64.68,57.625-64.68h726.234c31.774,0,57.625,29.016,57.625,64.68
						v92.551C1324.835,1305.035,1323.849,1306.021,1322.63,1306.021z"/>
					
						<ellipse transform="matrix(0.9732 -0.2298 0.2298 0.9732 -264.6341 339.0297)" style="fill:#E6D0BE;" cx="1323.575" cy="1305.931" rx="34.696" ry="34.696"/>
					
						<ellipse transform="matrix(0.9732 -0.2298 0.2298 0.9732 -288.8308 146.7307)" style="fill:#E6D0BE;" cx="485.687" cy="1313.686" rx="34.696" ry="34.696"/>
				</g>
				<path style="fill:#E6D0BE;" d="M1307.997,1150.997c-1.219,0-2.205-0.986-2.205-2.205v-789.17H398.374v789.17
					c0,1.219-0.986,2.205-2.205,2.205c-1.219,0-2.205-0.986-2.205-2.205V357.417c0-1.219,0.986-2.205,2.205-2.205h911.828
					c1.219,0,2.205,0.986,2.205,2.205v791.375C1310.202,1150.01,1309.216,1150.997,1307.997,1150.997z"/>
			</g>
			<path style="fill:#D3BBA3;" d="M599.163,474.615c-0.002,0-0.004,0-0.006,0c-1.219-0.004-2.203-0.995-2.198-2.211l0.2-60.943
				c0.002-0.586,0.237-1.146,0.65-1.557c0.413-0.411,0.973-0.642,1.555-0.642c0.052,0.015,0.075,0,0.112,0
				c8.066,0,15.653-3.129,21.379-8.815c5.749-5.712,8.929-13.322,8.955-21.426c0.028-8.104-3.103-15.735-8.815-21.484
				c-5.712-5.749-13.322-8.929-21.426-8.955c-1.219-0.004-2.203-0.995-2.198-2.211s0.99-2.198,2.205-2.198c0.002,0,0.004,0,0.007,0
				c9.282,0.03,17.998,3.673,24.539,10.258c6.544,6.584,10.128,15.322,10.098,24.604s-3.673,17.998-10.258,24.539
				c-6.061,6.022-13.946,9.54-22.399,10.038l-0.194,58.805C601.363,473.633,600.377,474.615,599.163,474.615z"/>
			<path style="fill:#D3BBA3;" d="M926.184,474.615c-0.002,0-0.004,0-0.006,0c-1.219-0.004-2.203-0.995-2.198-2.211l0.2-60.943
				c0.002-0.586,0.237-1.146,0.65-1.557c0.416-0.411,0.975-0.736,1.561-0.642c0.037,0,0.071,0,0.105,0
				c8.066,0,15.653-3.129,21.379-8.815c5.749-5.712,8.929-13.322,8.955-21.426c0.028-8.104-3.103-15.735-8.815-21.484
				c-5.712-5.749-13.321-8.929-21.426-8.955c-1.219-0.004-2.203-0.995-2.198-2.211c0.004-1.216,0.99-2.198,2.205-2.198
				c0.002,0,0.004,0,0.007,0c9.282,0.03,17.998,3.673,24.539,10.258c6.543,6.584,10.128,15.322,10.098,24.604
				c-0.03,9.282-3.673,17.998-10.258,24.539c-6.061,6.022-13.946,9.54-22.399,10.038l-0.194,58.805
				C928.385,473.633,927.399,474.615,926.184,474.615z"/>
			<g>
				<path style="fill:#D3BBA3;" d="M1058.664,509.732c76.302-70.78,153.741-70.147,232.28-0.551L1058.664,509.732z"/>
				<path style="fill:#D3BBA3;" d="M1173.751,474.615c-0.002,0-0.004,0-0.006,0c-1.219-0.004-2.203-0.995-2.198-2.211l0.198-60.943
					c0.002-0.586,0.237-1.146,0.65-1.557c0.413-0.411,0.973-0.642,1.555-0.642c0.032,0.015,0.075,0,0.112,0
					c8.066,0,15.653-3.129,21.379-8.815c5.751-5.712,8.931-13.322,8.957-21.426c0.054-16.73-13.513-30.385-30.241-30.439
					c-1.219-0.004-2.203-0.995-2.198-2.211s0.99-2.198,2.205-2.198c0.002,0,0.004,0,0.006,0c19.161,0.063,34.7,15.701,34.638,34.862
					c-0.03,9.282-3.673,17.998-10.258,24.539c-6.061,6.022-13.948,9.538-22.401,10.038l-0.192,58.805
					C1175.951,473.633,1174.965,474.615,1173.751,474.615z"/>
				<g>
					<path style="fill:#D3BBA3;" d="M955.653,640.368l13.129,404.584l57.875-0.813l-2.667,91.945l312.4-14.699l-6.723-81.5
						l57.892-0.813l1.346-375.554c0.555-19.37-8.983-108.043-24.238-117.958c-144.652-94.018-267.259-70.015-385.845,4.277
						C962.658,559.965,954.965,620.036,955.653,640.368z"/>
					<path style="fill:#E6D0BE;" d="M1114.209,496.687l65.981,211.662l47.129-216.072
						C1185.129,488.893,1145.905,486.31,1114.209,496.687z"/>
					<path style="fill:#F2E6DC;" d="M1189.613,1038.338c-1.186,0-2.168-0.945-2.203-2.142l-9.424-327.784
						c-0.034-1.217,0.924-2.231,2.142-2.267c1.148,0.002,2.233,0.924,2.267,2.142l9.424,327.784
						c0.034,1.216-0.924,2.231-2.142,2.267C1189.656,1038.338,1189.635,1038.338,1189.613,1038.338z"/>
					<path style="fill:#F2E6DC;" d="M1028.03,1042.747c-1.197,0-2.179-0.956-2.205-2.157l-6.729-317.296L983.79,550.412
						c-0.243-1.193,0.525-2.358,1.718-2.601c1.186-0.243,2.358,0.525,2.601,1.718l35.348,173.078
						c0.028,0.129,0.041,0.263,0.045,0.394l6.733,317.494c0.026,1.219-0.941,2.226-2.157,2.252
						C1028.06,1042.747,1028.045,1042.747,1028.03,1042.747z"/>
					<path style="fill:#F2E6DC;" d="M1325.621,1035.399c-0.028,0-0.056,0-0.084-0.002c-1.217-0.045-2.166-1.068-2.121-2.284
						l12.118-327.784c0.002-0.095,0.013-0.187,0.028-0.28l25.922-155.44c0.198-1.202,1.337-2.026,2.536-1.813
						c1.202,0.2,2.013,1.337,1.813,2.536l-25.898,155.302l-12.114,327.642C1327.778,1034.464,1326.801,1035.399,1325.621,1035.399z"
						/>
					<path style="fill:#F2E6DC;" d="M1180.189,710.554c-0.48,0-0.967-0.157-1.371-0.48c-0.954-0.76-1.109-2.147-0.351-3.098
						l88.49-111.012l-19.04-9.095c-0.547-0.26-0.963-0.734-1.148-1.311c-0.187-0.575-0.129-1.204,0.161-1.735l37.702-69.084
						c0.583-1.066,1.923-1.462,2.993-0.878c1.068,0.583,1.462,1.923,0.878,2.993l-36.586,67.04l19.443,9.286
						c0.607,0.291,1.049,0.84,1.199,1.494c0.151,0.657-0.006,1.343-0.424,1.869l-90.219,113.18
						C1181.48,710.27,1180.837,710.554,1180.189,710.554z"/>
					<path style="fill:#F2E6DC;" d="M1162.686,678.218c-0.573,0-1.146-0.222-1.578-0.665l-88.873-91.134
						c-0.495-0.508-0.715-1.221-0.594-1.918c0.123-0.7,0.573-1.296,1.21-1.604l21.984-10.664l-32.293-49.348
						c-0.667-1.021-0.381-2.386,0.637-3.053c1.021-0.667,2.383-0.379,3.053,0.637l33.664,51.445c0.347,0.532,0.448,1.184,0.28,1.796
						c-0.17,0.612-0.592,1.12-1.163,1.395l-21.488,10.426l86.739,88.944c0.85,0.872,0.833,2.267-0.039,3.118
						C1163.797,678.009,1163.241,678.218,1162.686,678.218z"/>
				</g>
				<path style="fill:#F2E6DC;" d="M966.681,1000.856c-1.201,0-2.185-0.965-2.205-2.17c-0.801-51.824-2.92-105.75-4.967-157.903
					c-4.438-113.036-8.63-219.802,2.823-268.17c0.278-1.186,1.468-1.921,2.653-1.636c1.184,0.28,1.919,1.468,1.636,2.653
					c-11.313,47.78-7.131,154.255-2.704,266.981c2.048,52.177,4.166,106.131,4.969,158.006c0.019,1.219-0.954,2.22-2.17,2.239
					C966.702,1000.856,966.692,1000.856,966.681,1000.856z"/>
			</g>
		</g>
		<g>
			<g>
				<path style="fill:#363E44;" d="M891.145,1579.362l-9.225-78.013H569.239c0,0-45.415,127.682-56.328,171.233
					c-6.552,26.147-12.663,57.956-18.352,93.81c66.324,96.842,150.783,180.28,248.486,245.427
					c4.775-42.071,13.235-117.782,14.32-125.761c3.14,7.503,35.107,106.973,54.603,167.464
					c98.242,53.668,207.406,89.845,323.31,104.344C1081.061,2019.519,891.145,1579.362,891.145,1579.362z"/>
				<path style="fill:#FFFFFF;" d="M757.367,1888.087c-0.112,0-0.228-0.009-0.342-0.026c-1.204-0.189-2.026-1.318-1.839-2.519
					l19.626-125.472c0.187-1.201,1.32-2.018,2.519-1.839c1.204,0.189,2.026,1.318,1.839,2.519l-19.626,125.472
					C759.374,1887.309,758.435,1888.087,757.367,1888.087z"/>
			</g>
			<g>
				<path style="fill:#84524D;" d="M633.471,1010.004c68.273-64.914,173.574-54.426,272.479-5.7L633.471,1010.004z"/>
				<g>
					<path style="fill:#84524D;" d="M459.039,1152.515c0,0,14.983-151.427,259.74-153.467c65.043-0.542,126.474,1.137,181.243,3.841
						c23.945,1.182,55.436,45,76.58,46.473c103.781,7.231,183.551,27.56,183.551,27.56l35.828,70.554l-227.785,90.122
						l-19.787,12.223l-5.977,403.189l-67.265,20.521l-47.883-93.487l-68.405,100.327l-250.818-31.922l32.687-390.772
						L459.039,1152.515z"/>
					<polygon style="fill:#FFFFFF;" points="820.444,1293.885 710.778,995.394 823.865,998.604 					"/>
					<path style="fill:#363E44;" d="M828.933,1584.453c-1.219,0-2.205-0.986-2.205-2.205v-244.403l-12.226-19.381v-0.252
						c-4.459-9.607-111.104-180.087-167.381-269.696l-2.054-3.273l31.871-0.866l-21.719-44.559c-0.534-1.096-0.08-2.416,1.014-2.948
						c1.105-0.541,2.416-0.08,2.948,1.014l24.72,50.713l-30.992,0.844c73.104,116.416,158.65,253.298,165.555,267.276l0.108-0.067
						l12.566,19.919v245.678C831.138,1583.466,830.152,1584.453,828.933,1584.453z"/>
					<path style="fill:#363E44;" d="M827.286,1339.412c-0.174,0-0.353-0.019-0.53-0.065c-1.182-0.291-1.905-1.486-1.613-2.668
						l71.93-291.947l-31.884,3.357l1.789-57.25c0.037-1.216,1.074-2.127,2.272-2.136c1.217,0.039,2.173,1.057,2.136,2.274
						l-1.632,52.199l33.102-3.486l-73.433,298.045C829.177,1338.74,828.277,1339.412,827.286,1339.412z"/>
				</g>
				<g>
					<g>
						<g>
							<path style="fill:#BC8271;" d="M1329.993,744.499c-7.027-2.81-15.978,1.922-17.853,3.349
								c-0.529-6.938-3.641-13.791-12.028-16.664c-7.447-2.551-16.209,3.809-16.946,4.407c-0.201-0.923,2.012-10.382-8.173-15.917
								c-6.884-3.74-15.037-0.69-17.339,0.886c-0.463-1.055-3.117-8.912-11.127-11.214c-21.887-6.29-41.65,43.204-59.294,111.463
								c-37.072,143.425-44.157,229.635-44.535,231.054c-6.831,25.363,115.115,16.956,155.916,39.368
								c0.619-3.293,18.871-41.079,23.134-249.108c0.445-21.711,13.58-60.835,17.106-75.313
								C1340.775,758.917,1339.128,748.151,1329.993,744.499z"/>
							<path style="fill:#BC8271;" d="M1208.579,775.134c-11.932-64.209-27.241-67.89-34.129-63.686
								c-23.388,14.274,2.262,170.275,2.262,170.275S1194.926,822.653,1208.579,775.134z"/>
						</g>
					</g>
					<path style="fill:#FFFFFF;" d="M1216.052,1178.736c136.81-43.323,111.337-193.688,108.177-296.941l-160.217-16.169
						l-25.485,158.059L1216.052,1178.736z"/>
					<polygon style="fill:#FFFFFF;" points="948.41,1249.821 905.95,1004.304 1138.527,1023.685 1224.645,1175.771 					"/>
					<path style="fill:#E6D0BE;" d="M1316.147,936.916c-0.069,0-0.14-0.002-0.211-0.011l-155.071-14.7
						c-1.212-0.114-2.102-1.191-1.985-2.403c0.114-1.21,1.171-2.14,2.403-1.985l155.072,14.699c1.212,0.114,2.102,1.191,1.985,2.403
						C1318.231,936.061,1317.271,936.916,1316.147,936.916z"/>
				</g>
				<g>
					<path style="fill:#EFBC73;" d="M1159.938,788.181c-41.144,44.077-36.92,96.517-32.45,152.036
						c3.996,49.613,8.526,105.844-15.33,171.468c-29.767,81.884-81.555,118.987-131.637,154.869
						c-51.503,36.898-100.151,71.751-111.757,148.371c-9.724,64.196,9.963,139.347,54.007,206.187
						c43.17,65.509,102.548,110.482,158.835,120.3c21.243,3.706,39.919,2.14,56.395,0.751c23.344-1.966,41.784-3.512,63.946,8.425
						c34.62,18.648,58.314,59.804,70.421,122.32l34.635-6.709c-14.219-73.411-43.935-122.757-88.326-146.668
						c-31.401-16.911-57.95-14.678-83.632-12.521c-15.742,1.322-30.611,2.571-47.376-0.351
						c-46.889-8.18-97.522-47.417-135.441-104.961c-38.733-58.777-56.895-126.622-48.583-181.491
						c9.375-61.899,48.228-89.734,97.421-124.979c51.91-37.191,110.747-79.345,144.246-171.491
						c26.481-72.847,21.413-135.784,17.339-186.355c-4.321-53.663-7.443-92.437,23.075-125.13
						c24.893-26.669,64.264-40.872,117.525-42.548c-3.194-11.208-5.536-22.672-6.68-34.904
						C1236.171,737.725,1190.401,755.545,1159.938,788.181z"/>
					<path style="fill:#FFFFFF;" d="M1281.968,1859.633c-0.993,0-1.895-0.676-2.14-1.684c-0.289-1.182,0.437-2.375,1.621-2.663
						l20.395-4.961c1.173-0.291,2.375,0.437,2.663,1.621c0.289,1.182-0.437,2.375-1.621,2.664l-20.395,4.961
						C1282.317,1859.614,1282.14,1859.633,1281.968,1859.633z"/>
					<path style="fill:#FFFFFF;" d="M1286.009,1846.404c-0.967,0-1.854-0.642-2.123-1.621c-0.323-1.173,0.366-2.386,1.542-2.709
						l14.699-4.042c1.156-0.327,2.386,0.364,2.709,1.542c0.323,1.173-0.366,2.386-1.542,2.709l-14.699,4.042
						C1286.401,1846.378,1286.203,1846.404,1286.009,1846.404z"/>
					<path style="fill:#FFFFFF;" d="M1283.804,1835.38c-0.967,0-1.854-0.642-2.123-1.621c-0.323-1.173,0.366-2.386,1.542-2.709
						l14.699-4.042c1.156-0.327,2.386,0.364,2.709,1.542c0.323,1.173-0.366,2.386-1.542,2.709l-14.699,4.042
						C1284.196,1835.354,1283.998,1835.38,1283.804,1835.38z"/>
					<path style="fill:#FFFFFF;" d="M1279.395,1824.356c-0.967,0-1.854-0.642-2.123-1.621c-0.323-1.173,0.366-2.386,1.542-2.709
						l14.7-4.042c1.154-0.329,2.386,0.366,2.709,1.542c0.323,1.173-0.366,2.386-1.542,2.709l-14.7,4.042
						C1279.787,1824.33,1279.589,1824.356,1279.395,1824.356z"/>
					<path style="fill:#FFFFFF;" d="M1236.381,1758.151c-0.814,0-1.595-0.452-1.981-1.232c-0.536-1.092-0.088-2.414,1.005-2.952
						l15.55-7.657c1.089-0.534,2.411-0.088,2.952,1.006c0.536,1.092,0.088,2.414-1.006,2.952l-15.55,7.657
						C1237.04,1758.078,1236.709,1758.151,1236.381,1758.151z"/>
					<path style="fill:#FFFFFF;" d="M1262.839,1794.998c-0.872,0-1.701-0.523-2.046-1.382c-0.454-1.13,0.093-2.414,1.223-2.868
						l16.099-6.47c1.128-0.452,2.416,0.095,2.868,1.223c0.454,1.13-0.092,2.414-1.223,2.868l-16.099,6.47
						C1263.393,1794.946,1263.113,1794.998,1262.839,1794.998z"/>
					<path style="fill:#FFFFFF;" d="M1259.091,1784.4c-0.85,0-1.662-0.495-2.024-1.324c-0.487-1.115,0.024-2.416,1.141-2.902
						l13.974-6.093c1.12-0.487,2.418,0.028,2.902,1.141c0.487,1.115-0.024,2.416-1.141,2.902l-13.974,6.093
						C1259.683,1784.342,1259.383,1784.4,1259.091,1784.4z"/>
					<path style="fill:#FFFFFF;" d="M1247.429,1764.268c-0.79,0-1.554-0.426-1.951-1.171c-0.571-1.077-0.159-2.412,0.915-2.982
						l11.943-6.332c1.072-0.571,2.411-0.159,2.982,0.915c0.571,1.077,0.159,2.412-0.915,2.982l-11.944,6.332
						C1248.131,1764.186,1247.778,1764.268,1247.429,1764.268z"/>
					<path style="fill:#FFFFFF;" d="M1253.156,1774.116c-0.85,0-1.662-0.495-2.024-1.324c-0.487-1.115,0.024-2.416,1.141-2.903
						l13.974-6.093c1.118-0.484,2.416,0.028,2.903,1.141c0.487,1.115-0.024,2.416-1.141,2.902l-13.974,6.093
						C1253.749,1774.058,1253.449,1774.116,1253.156,1774.116z"/>
					<path style="fill:#FFFFFF;" d="M1187.856,1726.687c-0.579,0-1.158-0.228-1.591-0.678c-0.844-0.879-0.814-2.276,0.065-3.118
						l12.51-11.997c0.881-0.84,2.276-0.812,3.118,0.065c0.844,0.879,0.814,2.276-0.065,3.118l-12.51,11.997
						C1188.954,1726.482,1188.405,1726.687,1187.856,1726.687z"/>
					<path style="fill:#FFFFFF;" d="M1226.938,1749.648c-0.736,0-1.458-0.368-1.875-1.042c-0.642-1.033-0.325-2.392,0.711-3.036
						l14.736-9.157c1.034-0.639,2.394-0.325,3.036,0.711c0.642,1.034,0.325,2.392-0.711,3.036l-14.736,9.157
						C1227.736,1749.541,1227.334,1749.648,1226.938,1749.648z"/>
					<path style="fill:#FFFFFF;" d="M1200.234,1729.18c-0.558,0-1.115-0.211-1.546-0.633c-0.868-0.853-0.881-2.248-0.026-3.118
						l9.474-9.644c0.851-0.87,2.246-0.881,3.118-0.026c0.868,0.853,0.881,2.248,0.026,3.118l-9.474,9.644
						C1201.376,1728.961,1200.805,1729.18,1200.234,1729.18z"/>
					<path style="fill:#FFFFFF;" d="M1208.668,1736.839c-0.614,0-1.225-0.256-1.66-0.754c-0.801-0.917-0.708-2.31,0.209-3.111
						l11.481-10.029c0.915-0.803,2.31-0.706,3.111,0.209c0.801,0.917,0.708,2.31-0.209,3.111l-11.48,10.029
						C1209.702,1736.66,1209.183,1736.839,1208.668,1736.839z"/>
					<path style="fill:#FFFFFF;" d="M1031.721,1700.335c-0.439,0-0.883-0.131-1.27-0.403c-0.995-0.704-1.232-2.078-0.53-3.075
						l6.615-9.37c0.704-0.993,2.076-1.229,3.075-0.53c0.995,0.704,1.232,2.078,0.53,3.075l-6.614,9.37
						C1033.094,1700.01,1032.414,1700.335,1031.721,1700.335z"/>
					<path style="fill:#FFFFFF;" d="M1022.901,1695.098c-0.482,0-0.969-0.157-1.376-0.482c-0.949-0.762-1.105-2.149-0.344-3.1
						l7.717-9.646c0.762-0.947,2.149-1.107,3.101-0.344c0.949,0.762,1.105,2.149,0.344,3.1l-7.717,9.646
						C1024.189,1694.814,1023.55,1695.098,1022.901,1695.098z"/>
					<path style="fill:#FFFFFF;" d="M1013.533,1689.035c-0.517,0-1.034-0.179-1.451-0.545c-0.917-0.803-1.01-2.196-0.209-3.111
						l7.717-8.819c0.805-0.919,2.196-1.01,3.111-0.209c0.917,0.803,1.01,2.196,0.209,3.111l-7.717,8.819
						C1014.756,1688.781,1014.147,1689.035,1013.533,1689.035z"/>
					<path style="fill:#FFFFFF;" d="M1005.265,1683.798c-0.508,0-1.018-0.174-1.434-0.532c-0.926-0.792-1.034-2.183-0.239-3.107
						l8.268-9.646c0.792-0.928,2.185-1.031,3.107-0.239c0.926,0.792,1.034,2.183,0.239,3.107l-8.268,9.646
						C1006.503,1683.538,1005.885,1683.798,1005.265,1683.798z"/>
					<path style="fill:#FFFFFF;" d="M993.414,1679.94c-0.54,0-1.081-0.196-1.505-0.594c-0.889-0.831-0.937-2.226-0.106-3.116
						l11.851-12.678c0.835-0.896,2.229-0.939,3.116-0.105c0.889,0.831,0.937,2.226,0.106,3.116l-11.851,12.678
						C994.59,1679.705,994.002,1679.94,993.414,1679.94z"/>
					<path style="fill:#FFFFFF;" d="M973.846,1652.104c-0.538,0-1.077-0.196-1.503-0.592c-0.891-0.829-0.941-2.224-0.11-3.116
						l7.441-7.992c0.829-0.889,2.222-0.941,3.116-0.11c0.891,0.829,0.941,2.224,0.11,3.116l-7.441,7.992
						C975.026,1651.867,974.436,1652.104,973.846,1652.104z"/>
					<path style="fill:#FFFFFF;" d="M964.2,1644.387c-0.618,0-1.234-0.261-1.671-0.767c-0.794-0.922-0.691-2.315,0.233-3.109
						l9.922-8.544c0.917-0.79,2.31-0.693,3.109,0.233c0.794,0.922,0.691,2.315-0.232,3.109l-9.922,8.544
						C965.223,1644.211,964.711,1644.387,964.2,1644.387z"/>
					<path style="fill:#FFFFFF;" d="M960.342,1636.671c-0.588,0-1.176-0.235-1.611-0.698c-0.831-0.889-0.786-2.285,0.103-3.118
						l8.544-7.992c0.891-0.831,2.284-0.784,3.118,0.103c0.831,0.889,0.786,2.285-0.103,3.118l-8.544,7.992
						C961.423,1636.475,960.882,1636.671,960.342,1636.671z"/>
					<path style="fill:#FFFFFF;" d="M952.903,1629.505c-0.661,0-1.313-0.295-1.748-0.859c-0.743-0.962-0.564-2.347,0.4-3.092
						l9.646-7.441c0.965-0.741,2.347-0.564,3.092,0.401c0.743,0.962,0.564,2.347-0.401,3.092l-9.646,7.441
						C953.846,1629.354,953.372,1629.505,952.903,1629.505z"/>
					<path style="fill:#FFFFFF;" d="M938.296,1614.071c-0.635,0-1.264-0.271-1.699-0.797c-0.777-0.939-0.648-2.328,0.289-3.105
						l11.3-9.37c0.937-0.782,2.33-0.648,3.105,0.289c0.777,0.939,0.648,2.328-0.289,3.105l-11.3,9.37
						C939.291,1613.905,938.791,1614.071,938.296,1614.071z"/>
					<path style="fill:#FFFFFF;" d="M918.177,1569.699c-0.717,0-1.421-0.349-1.845-0.995c-0.667-1.016-0.385-2.384,0.633-3.053
						l9.646-6.339c1.018-0.667,2.383-0.388,3.053,0.633c0.667,1.016,0.385,2.383-0.633,3.053l-9.646,6.339
						C919.012,1569.583,918.592,1569.699,918.177,1569.699z"/>
					<path style="fill:#FFFFFF;" d="M913.216,1561.431c-0.728,0-1.44-0.36-1.86-1.019c-0.655-1.025-0.355-2.388,0.672-3.045
						l9.922-6.339c1.021-0.652,2.39-0.357,3.044,0.672c0.655,1.025,0.355,2.388-0.672,3.044l-9.922,6.339
						C914.034,1561.319,913.623,1561.431,913.216,1561.431z"/>
					<path style="fill:#FFFFFF;" d="M931.218,1352.341c-0.375,0-0.756-0.095-1.102-0.297l-10.473-6.063
						c-1.053-0.609-1.415-1.959-0.803-3.012c0.609-1.055,1.959-1.417,3.012-0.803l10.473,6.063c1.053,0.609,1.415,1.959,0.803,3.012
						C932.719,1351.947,931.979,1352.341,931.218,1352.341z"/>
					<path style="fill:#FFFFFF;" d="M939.118,1345.91c-0.37,0-0.747-0.093-1.092-0.291l-11.575-6.615
						c-1.057-0.605-1.425-1.951-0.82-3.008c0.603-1.057,1.947-1.432,3.008-0.82l11.575,6.615c1.057,0.605,1.425,1.951,0.82,3.008
						C940.628,1345.512,939.885,1345.91,939.118,1345.91z"/>
					<path style="fill:#FFFFFF;" d="M945.733,1339.296c-0.377,0-0.756-0.095-1.105-0.297l-11.392-6.615
						c-1.053-0.611-1.412-1.962-0.801-3.014s1.961-1.41,3.014-0.801l11.392,6.615c1.053,0.612,1.412,1.962,0.801,3.014
						C947.234,1338.901,946.493,1339.296,945.733,1339.296z"/>
					<path style="fill:#FFFFFF;" d="M963.922,1323.679c-0.359,0-0.726-0.088-1.064-0.274l-10.656-5.88
						c-1.066-0.59-1.453-1.931-0.866-2.997c0.59-1.066,1.927-1.451,2.997-0.866l10.656,5.88c1.066,0.59,1.453,1.931,0.866,2.997
						C965.453,1323.267,964.7,1323.679,963.922,1323.679z"/>
					<path style="fill:#FFFFFF;" d="M1027.311,1277.561c-0.45,0-0.902-0.138-1.294-0.422l-8.085-5.88
						c-0.986-0.717-1.204-2.095-0.487-3.079c0.713-0.986,2.093-1.204,3.079-0.487l8.085,5.88c0.986,0.717,1.204,2.095,0.487,3.079
						C1028.665,1277.246,1027.994,1277.561,1027.311,1277.561z"/>
					<path style="fill:#FFFFFF;" d="M1034.845,1271.68c-0.439,0-0.883-0.131-1.27-0.403l-9.37-6.615
						c-0.995-0.704-1.232-2.078-0.53-3.075c0.704-0.99,2.076-1.229,3.075-0.53l9.37,6.614c0.995,0.704,1.232,2.078,0.53,3.075
						C1036.219,1271.355,1035.538,1271.68,1034.845,1271.68z"/>
					<path style="fill:#FFFFFF;" d="M1041.459,1266.168c-0.424,0-0.85-0.121-1.229-0.377l-9.005-6.063
						c-1.01-0.678-1.277-2.05-0.596-3.06c0.678-1.012,2.048-1.281,3.06-0.596l9.005,6.063c1.01,0.678,1.277,2.05,0.596,3.06
						C1042.865,1265.828,1042.168,1266.168,1041.459,1266.168z"/>
					<path style="fill:#FFFFFF;" d="M1054.322,1255.881c-0.517,0-1.036-0.181-1.453-0.547l-10.473-9.188
						c-0.915-0.803-1.008-2.196-0.204-3.111c0.805-0.919,2.2-1.003,3.111-0.204l10.473,9.187c0.915,0.803,1.008,2.196,0.204,3.111
						C1055.543,1255.626,1054.934,1255.881,1054.322,1255.881z"/>
					<path style="fill:#FFFFFF;" d="M1073.983,1237.874c-0.519,0-1.04-0.181-1.458-0.551l-6.249-5.512
						c-0.915-0.805-1.001-2.198-0.196-3.111c0.805-0.915,2.203-1.001,3.111-0.196l6.248,5.512c0.915,0.805,1.001,2.198,0.196,3.111
						C1075.201,1237.622,1074.592,1237.874,1073.983,1237.874z"/>
					<path style="fill:#FFFFFF;" d="M1084.636,1226.85c-0.469,0-0.945-0.151-1.346-0.461l-8.085-6.246
						c-0.965-0.743-1.141-2.13-0.396-3.092c0.739-0.963,2.125-1.143,3.092-0.396l8.085,6.246c0.965,0.743,1.141,2.129,0.396,3.092
						C1085.95,1226.555,1085.297,1226.85,1084.636,1226.85z"/>
					<path style="fill:#FFFFFF;" d="M1125.609,1169.156c-0.338,0-0.68-0.078-1.001-0.241l-7.9-4.041
						c-1.085-0.556-1.514-1.884-0.96-2.967c0.558-1.087,1.886-1.511,2.967-0.96l7.9,4.042c1.085,0.556,1.514,1.884,0.96,2.967
						C1127.182,1168.719,1126.41,1169.156,1125.609,1169.156z"/>
					<path style="fill:#FFFFFF;" d="M1130.386,1160.154c-0.299,0-0.603-0.06-0.894-0.189l-9.922-4.41
						c-1.113-0.495-1.613-1.798-1.12-2.911c0.497-1.109,1.8-1.613,2.911-1.12l9.922,4.41c1.113,0.495,1.613,1.798,1.12,2.911
						C1132.038,1159.665,1131.233,1160.154,1130.386,1160.154z"/>
					<path style="fill:#FFFFFF;" d="M1134.615,1151.335c-0.276,0-0.556-0.052-0.827-0.161l-16.353-6.615
						c-1.128-0.456-1.673-1.742-1.216-2.87c0.458-1.128,1.74-1.671,2.87-1.217l16.353,6.615c1.128,0.456,1.673,1.742,1.216,2.87
						C1136.312,1150.814,1135.487,1151.335,1134.615,1151.335z"/>
					<path style="fill:#FFFFFF;" d="M1137.922,1142.332c-0.263,0-0.527-0.045-0.786-0.144l-10.107-3.858
						c-1.139-0.435-1.708-1.71-1.275-2.847c0.435-1.139,1.718-1.705,2.846-1.275l10.107,3.858c1.139,0.435,1.707,1.71,1.275,2.846
						C1139.647,1141.792,1138.809,1142.332,1137.922,1142.332z"/>
					<path style="fill:#FFFFFF;" d="M1141.413,1134.43c-0.252,0-0.508-0.043-0.758-0.136l-11.024-4.042
						c-1.143-0.418-1.731-1.684-1.311-2.827c0.42-1.143,1.692-1.731,2.827-1.311l11.024,4.041c1.143,0.418,1.731,1.684,1.311,2.827
						C1143.155,1133.877,1142.311,1134.43,1141.413,1134.43z"/>
					<path style="fill:#FFFFFF;" d="M1145.088,1124.694c-0.239,0-0.48-0.039-0.717-0.121l-11.209-3.858
						c-1.152-0.396-1.763-1.651-1.367-2.801c0.396-1.154,1.656-1.761,2.801-1.367l11.209,3.859c1.152,0.396,1.763,1.651,1.367,2.801
						C1146.858,1124.121,1146.003,1124.694,1145.088,1124.694z"/>
					<path style="fill:#FFFFFF;" d="M1148.027,1116.977c-0.218,0-0.437-0.032-0.657-0.099l-11.207-3.492
						c-1.163-0.364-1.811-1.6-1.449-2.762c0.364-1.161,1.595-1.8,2.762-1.449l11.207,3.492c1.163,0.364,1.811,1.6,1.449,2.762
						C1149.838,1116.372,1148.968,1116.977,1148.027,1116.977z"/>
					<path style="fill:#FFFFFF;" d="M1150.417,1108.709c-0.196,0-0.394-0.026-0.592-0.08l-18.556-5.146
						c-1.173-0.325-1.86-1.542-1.535-2.715c0.327-1.173,1.542-1.856,2.715-1.535l18.556,5.146c1.173,0.325,1.86,1.542,1.535,2.715
						C1152.269,1108.069,1151.382,1108.709,1150.417,1108.709z"/>
					<path style="fill:#FFFFFF;" d="M1152.99,1100.073c-0.198,0-0.401-0.026-0.601-0.082l-13.046-3.675
						c-1.171-0.332-1.854-1.548-1.524-2.722c0.332-1.171,1.555-1.852,2.722-1.524l13.046,3.675c1.171,0.332,1.854,1.548,1.524,2.722
						C1154.835,1099.437,1153.953,1100.073,1152.99,1100.073z"/>
					<path style="fill:#FFFFFF;" d="M1166.217,994.241h-15.434c-1.219,0-2.205-0.986-2.205-2.205s0.986-2.205,2.205-2.205h15.434
						c1.219,0,2.205,0.986,2.205,2.205S1167.436,994.241,1166.217,994.241z"/>
					<path style="fill:#FFFFFF;" d="M1161.075,933.241c-0.022,0-0.043,0-0.063,0l-13.229-0.366
						c-1.219-0.034-2.177-1.049-2.145-2.265c0.034-1.197,1.014-2.144,2.203-2.144c0.022,0,0.043,0,0.063,0l13.229,0.366
						c1.219,0.035,2.177,1.049,2.145,2.265C1163.243,932.293,1162.264,933.241,1161.075,933.241z"/>
					<path style="fill:#FFFFFF;" d="M1160.89,923.136c-0.026,0-0.052,0-0.075-0.002l-16.353-0.551
						c-1.217-0.041-2.168-1.059-2.127-2.276c0.039-1.219,1.146-2.201,2.276-2.129l16.353,0.551c1.216,0.041,2.168,1.059,2.127,2.276
						C1163.052,922.197,1162.072,923.136,1160.89,923.136z"/>
					<path style="fill:#FFFFFF;" d="M1160.337,913.765c-0.009,0-0.019,0-0.03,0l-13.412-0.183c-1.217-0.017-2.192-1.016-2.175-2.235
						c0.017-1.208,1.001-2.175,2.205-2.175c0.009,0,0.019,0,0.03,0l13.412,0.183c1.216,0.017,2.192,1.016,2.175,2.235
						C1162.524,912.799,1161.54,913.765,1160.337,913.765z"/>
					<path style="fill:#FFFFFF;" d="M1159.971,904.946c-0.009,0-0.019,0-0.03,0l-13.78-0.183c-1.216-0.017-2.19-1.016-2.175-2.235
						c0.017-1.206,1.001-2.175,2.205-2.175c0.009,0,0.019,0,0.03,0l13.78,0.183c1.217,0.017,2.19,1.016,2.175,2.235
						C1162.158,903.977,1161.174,904.946,1159.971,904.946z"/>
					<path style="fill:#FFFFFF;" d="M1159.422,894.656c-0.052,0-0.103-0.002-0.157-0.006l-13.046-0.917
						c-1.214-0.084-2.13-1.139-2.043-2.353c0.082-1.214,1.12-2.151,2.353-2.043l13.046,0.917c1.214,0.084,2.13,1.139,2.043,2.353
						C1161.538,893.769,1160.569,894.656,1159.422,894.656z"/>
					<path style="fill:#FFFFFF;" d="M1160.524,879.222c-0.078,0-0.155-0.004-0.235-0.013l-19.109-2.02
						c-1.21-0.127-2.089-1.212-1.959-2.424c0.127-1.21,1.188-2.097,2.424-1.959l19.109,2.02c1.21,0.127,2.089,1.212,1.959,2.424
						C1162.595,878.381,1161.637,879.222,1160.524,879.222z"/>
					<path style="fill:#FFFFFF;" d="M1162.361,862.135c-0.151,0-0.306-0.015-0.459-0.047l-15.617-3.307
						c-1.191-0.252-1.953-1.423-1.701-2.614c0.252-1.191,1.432-1.944,2.614-1.701l15.617,3.307c1.191,0.252,1.953,1.423,1.701,2.614
						C1164.296,861.425,1163.379,862.135,1162.361,862.135z"/>
					<path style="fill:#FFFFFF;" d="M1164.195,853.316c-0.202,0-0.409-0.028-0.616-0.088l-15.8-4.593
						c-1.169-0.34-1.841-1.563-1.501-2.732c0.338-1.167,1.546-1.845,2.732-1.501l15.8,4.593c1.169,0.34,1.841,1.563,1.501,2.732
						C1166.032,852.689,1165.151,853.316,1164.195,853.316z"/>
					<path style="fill:#FFFFFF;" d="M1187.531,811.609c-0.521,0-1.044-0.183-1.464-0.558l-11.575-10.29
						c-0.911-0.807-0.993-2.203-0.183-3.111c0.807-0.913,2.201-0.997,3.111-0.183l11.575,10.29c0.911,0.807,0.993,2.203,0.183,3.111
						C1188.743,811.36,1188.138,811.609,1187.531,811.609z"/>
					<path style="fill:#FFFFFF;" d="M1193.409,806.464c-0.586,0-1.169-0.23-1.602-0.691l-9.553-10.105
						c-0.838-0.883-0.797-2.28,0.086-3.116c0.885-0.838,2.28-0.799,3.118,0.086l9.553,10.105c0.838,0.885,0.797,2.282-0.088,3.118
						C1194.498,806.263,1193.954,806.464,1193.409,806.464z"/>
				</g>
				<g>
					<path style="fill:#BC8271;" d="M563.504,1456.982c54.797,20.278,62.076,25.819,179.273,46.575
						c49.899,8.838,91.911,13.665,117.672,20.973c9.325,0.559,64.429,27.524,71.13,11.26c5.001-12.139-38.366-31.195-48.609-37.969
						c10.233,1.776,75.544,37.922,83.187,19.295c7.936-19.343-58.274-44.9-66.884-49.141c0.811-0.062,87.573,33.647,96.408,16.036
						c8.584-17.112-65.343-42.753-81.647-50.56c15.229,4.273,83.399,23.813,88.981,10.161c8.622-21.09-67.868-45.068-121.257-59.727
						c21.14-16.35,29.509-28.85,24.643-34.258c-2.47-2.743-31.515-0.156-70.024,22.129c-19.923-5.45-132.004-34.674-198.014-54.149
						c-45.649,19.256-90.323,37.766-135.972,57.021C506.217,1424.892,542.25,1449.117,563.504,1456.982z"/>
					<path style="fill:#FFFFFF;" d="M709.084,1326.802c-13.088-2.747-40.421-10.29-43.674-12.433l-1.601-18.914
						c-3.599-42.515-14.074-84.165-31.016-123.325l-64.082-148.124c-67.926,19.428-113.181,73.493-118.491,129.611l0,0
						c-5.323,118.823-21.579,260.478,18.24,285.02c43.923,24.746,163.542,56.476,281.781,84.393l45.566-176.385L709.084,1326.802z"
						/>
					<path style="fill:#363E44;" d="M795.809,1348.851c-0.174,0-0.351-0.019-0.525-0.063l-133.76-32.706
						c-1.184-0.291-1.908-1.484-1.619-2.666c0.291-1.184,1.494-1.91,2.666-1.619l133.76,32.706c1.184,0.291,1.908,1.484,1.619,2.666
						C797.702,1348.177,796.802,1348.851,795.809,1348.851z"/>
					<path style="fill:#363E44;" d="M746.569,1526.337c-0.12,0-0.241-0.009-0.364-0.03c-54.544-9.088-122.501-30.273-194.446-52.7
						c-9.693-3.021-19.458-6.065-29.268-9.103c-1.163-0.36-1.813-1.596-1.453-2.758c0.36-1.163,1.591-1.813,2.758-1.453
						c9.814,3.04,19.578,6.083,29.274,9.106c71.799,22.382,139.614,43.521,193.858,52.56c1.201,0.2,2.013,1.335,1.813,2.536
						C748.563,1525.573,747.628,1526.337,746.569,1526.337z"/>
					<path style="fill:#E6D0BE;" d="M740.685,1516.049c-0.34,0-0.687-0.08-1.01-0.245l-44.096-22.785
						c-0.876-0.452-1.346-1.432-1.15-2.399l30.867-152.132c0.243-1.191,1.389-1.949,2.601-1.723
						c1.193,0.243,1.964,1.406,1.723,2.601l-30.538,150.498l42.617,22.02c1.081,0.56,1.505,1.89,0.947,2.971
						C742.254,1515.614,741.483,1516.049,740.685,1516.049z"/>
				</g>
				<path style="fill:#BC8271;" d="M1228.072,735.005l-4.122,18.233c-1.419,6.275,2.613,12.486,8.922,13.744l0,0
					c5.418,1.08,10.833-1.864,12.872-6.999l6.542-18.046l-4.118,16.14c-5.833,20.821,14.835,27.915,23.402,6.391l3.737-10.953
					l-5.28,23.352c-1.817,8.037,3.347,15.992,11.427,17.603l0,0c6.939,1.384,13.875-2.388,16.486-8.964l6.636-16.715l-1.512,9.025
					c-8.234,29.014,17.233,26.055,17.233,26.055l15.69-41.504l-37.206-28.295l-24.804,1.654l-40.881-17.087L1228.072,735.005z"/>
				<path style="fill:#363E44;" d="M1313.15,804.978c-2.379,0-4.713-0.672-6.742-1.987c-3.604-2.336-7.222-6.748-7.17-15.033
					c-3.439,6.546-10.826,10.159-18.214,8.675c-4.498-0.896-8.35-3.508-10.845-7.353c-2.495-3.845-3.314-8.425-2.302-12.897
					l0.542-2.394c-4.769,5.359-10.522,6.662-14.904,5.174c-4.56-1.542-8.488-6.378-8.572-13.95
					c-3.157,3.286-7.831,4.864-12.503,3.934c-3.641-0.726-6.759-2.84-8.778-5.953c-2.02-3.113-2.683-6.821-1.865-10.441
					l4.123-18.233l3.467-11.31c0.357-1.161,1.576-1.822,2.756-1.46c1.163,0.357,1.817,1.591,1.46,2.756l-3.423,11.149l-4.08,18.071
					c-0.553,2.45-0.105,4.959,1.262,7.067c1.367,2.106,3.477,3.538,5.941,4.031c4.384,0.872,8.744-1.505,10.391-5.652l6.518-17.983
					c0.403-1.105,1.606-1.703,2.722-1.357c1.124,0.347,1.778,1.514,1.488,2.653l-4.117,16.14
					c-2.605,9.304,0.575,14.992,4.625,16.362c4.27,1.443,10.673-1.479,14.594-11.332l3.699-10.85
					c0.377-1.107,1.555-1.733,2.687-1.408c1.126,0.319,1.809,1.464,1.55,2.607l-5.28,23.353c-0.747,3.301-0.144,6.683,1.699,9.523
					c1.843,2.84,4.687,4.767,8.007,5.43c5.887,1.176,11.786-2.024,14.004-7.616l6.638-16.715c0.416-1.047,1.55-1.617,2.642-1.309
					c1.085,0.301,1.768,1.376,1.583,2.487l-1.511,9.026c-0.013,0.08-0.032,0.159-0.054,0.239c-2.948,10.38-1.729,17.402,3.619,20.87
					c2.076,1.346,4.556,1.647,6.981,0.85c2.586-0.848,4.621-2.79,5.579-5.327l10.841-28.682c0.431-1.139,1.703-1.712,2.842-1.283
					c1.139,0.431,1.714,1.703,1.283,2.842l-10.841,28.682c-1.434,3.79-4.47,6.69-8.328,7.958
					C1315.843,804.765,1314.489,804.978,1313.15,804.978z"/>
				<path style="fill:#363E44;" d="M1112.201,1022.904c-0.06,0-0.118-0.002-0.181-0.006l-190.717-15.434
					c-1.212-0.099-2.117-1.163-2.02-2.377c0.101-1.214,1.135-2.108,2.377-2.02l190.717,15.434c1.212,0.099,2.117,1.163,2.02,2.377
					C1114.302,1022.03,1113.338,1022.904,1112.201,1022.904z"/>
			</g>
			<g>
				<g>
					<polygon style="fill:#FFFFFF;" points="708.701,987.779 795.01,1046.395 722.967,1057.603 					"/>
					<polygon style="fill:#FFFFFF;" points="822.933,994.702 779.548,1046.857 836.69,1049.907 					"/>
					<polygon style="fill:#363E44;" points="781.112,1046.059 737.076,1021.263 755.032,1089.24 					"/>
					<polygon style="fill:#363E44;" points="814.886,1088.812 781.112,1046.059 816.596,1015.277 					"/>
					<polygon style="fill:#363E44;" points="772.133,1041.784 775.126,1058.03 790.09,1056.748 789.235,1038.791 					"/>
				</g>
				<g>
					<path style="fill:#BC8271;" d="M794.823,1012.572c-27.677,24.105-73.165,21.868-85.031-26.501l2.859-151.919l96.008-0.458
						l-5.18,160.151C803.247,1001,800.222,1007.869,794.823,1012.572z"/>
					<path style="fill:#BC8271;" d="M771.121,751.683c4.102-0.549,43.458-5.211,68.214,20.917
						c18.421,19.442,21.481,45.144,20.094,89.03c-1.633,51.681-9.829,82.346-24.3,93.06
						c-22.864,16.929-94.432-16.481-122.487-60.535c-20.25-31.8-19.595-73.727-0.604-106.601
						C730.978,754.772,768.503,752.034,771.121,751.683z"/>
					<path style="fill:#363E44;" d="M804.353,961.331c-0.153,0-0.308-0.015-0.465-0.049c-29.343-6.289-71.999-30.982-93.25-64.353
						c-0.655-1.027-0.351-2.39,0.676-3.044c1.023-0.65,2.39-0.353,3.044,0.676c19.859,31.186,61.586,56.223,90.456,62.411
						c1.191,0.254,1.949,1.427,1.692,2.618C806.284,960.622,805.369,961.331,804.353,961.331z"/>
					<g>
						<path style="fill:#FFFFFF;" d="M777.504,842.365c0,0,5.259,14.954,17.701,26.25c2.614,2.373,16.775-23.295,13.175-24.382
							C792.613,839.473,777.504,842.365,777.504,842.365z"/>
						<path style="fill:#363E44;" d="M845.624,881.526c0,0-7.7-21.897-26.511-32.71c-3.49-2.008-7.118-3.489-10.712-4.575
							c-8.093,5.101-13.36,14.15-13.244,24.32c2.629,2.391,5.57,4.624,8.859,6.514C822.826,885.891,845.624,881.526,845.624,881.526
							z"/>
					</g>
					<path style="fill:#FFFFFF;" d="M829.593,735.462c-17.343-14.518-43.157-20.105-68.443-17.988l28.561,10.507l-46.132-7.766
						c-20.036,4.632-38.317,14.211-49.932,28.131c-30.738,36.835-30.266,72.832,9.686,155.101
						c4.186-24.974,6.302-62.171,23.505-69.245c11.122-4.573,22.091-1.797,27.211-0.077c5.126-24.813,7.482-48.064,29.968-50.639
						c23.842-2.73,61.555,20.977,63.996,23.375C848.593,801.731,860.446,761.288,829.593,735.462z"/>
					<g>
						
							<ellipse transform="matrix(0.8874 -0.461 0.461 0.8874 -308.2622 432.3343)" style="fill:#BC8271;" cx="730.89" cy="847.203" rx="27.511" ry="32.549"/>
						<path style="fill:#363E44;" d="M720.275,858.682c-0.665,0-1.324-0.299-1.757-0.87c-0.743-0.977-1.412-2.035-1.99-3.143
							c-2.278-4.384-2.971-9.276-1.953-13.774c1.049-4.634,3.774-8.3,7.674-10.327c1.981-1.029,4.138-1.567,6.412-1.602
							c1.275-0.047,2.218,0.954,2.237,2.172c0.017,1.216-0.954,2.218-2.173,2.237c-1.58,0.024-3.077,0.396-4.444,1.107
							c-2.728,1.417-4.649,4.039-5.406,7.388c-0.788,3.482-0.233,7.303,1.565,10.763c0.461,0.885,0.995,1.731,1.587,2.508
							c0.736,0.971,0.549,2.353-0.42,3.09C721.207,858.535,720.74,858.682,720.275,858.682z"/>
					</g>
					<path style="fill:#FFFFFF;" d="M752.947,817.002c4.138-0.251-0.206,46.969,14.132,65.315
						c20.394,26.09,55.993,27.232,88.201,25.64c6.681,14.954,33.672,77.817,12.372,96.717
						c-21.967,19.491-93.495-9.383-120.342-61.914C723.601,896.369,746.344,817.402,752.947,817.002z"/>
					<path style="fill:#363E44;" d="M828.111,929.505c-3.146,0-6.218-1.126-8.533-3.316c-5.086-4.804-3.54-11.836-3.471-12.133
						c0.273-1.184,1.447-1.927,2.644-1.654c1.186,0.273,1.927,1.455,1.654,2.644c-0.011,0.045-1.046,4.87,2.201,7.939
						c2.603,2.457,6.735,2.812,10.047,0.868c1.051-0.62,2.403-0.265,3.017,0.786c0.616,1.051,0.265,2.401-0.786,3.016
						C832.768,928.898,830.419,929.505,828.111,929.505z"/>
					<path style="fill:#BC8271;" d="M855.679,865.925c11.775,14.134,21.79,22.732,18.121,30.83
						c-4.793,10.578-22.006,10.817-23.051,10.655L855.679,865.925z"/>
				</g>
			</g>
		</g>
		<g>
			<path style="fill:#363E44;" d="M1847.463,1611.61l-87.286-329.25l-428.599,82.291l-34.968,245.28l-28.972,552.13
				c2.495,0.936,5.028,1.783,7.58,2.59c91.377-2.473,179.406-18.349,262.204-45.723l38.89-344.18l35.216,316.037
				c102.926-44.316,196.092-106.974,275.384-183.865L1847.463,1611.61z"/>
			<g>
				<path style="fill:#363E44;" d="M2089.301,1313.94c48.942-111.665-117.039-325.9-282.584-413.404
					c-46.942-24.812-123.269-46.472-173.078-45.199c-60.269,1.54-97.012,2.205-97.012,2.205
					c-30.336-5.614-167.962,2.793-223.422,43.361c-158.747,116.121,6.329,190.877,6.329,190.877l-11.719,454.121l550.953,70.177
					l-61.103-406.352C1797.665,1209.727,2040.666,1424.906,2089.301,1313.94z"/>
				<rect x="1505.067" y="892.524" style="fill:#F7F1EB;" width="159.054" height="505.104"/>
				<path style="fill:#FFFFFF;" d="M1739.834,1628.616c-14.799,0-28.945-5.211-40.335-14.956
					c-12.828-10.977-20.513-26.298-21.637-43.147l-6.072-90.992c-0.011-0.166-0.002-0.334,0.024-0.497l71.157-440.525
					l-57.821-47.701c-0.816-0.674-1.038-1.834-0.528-2.763c0.508-0.93,1.617-1.363,2.614-1.036l64.049,20.885l-23.902-122.361
					c-0.233-1.195,0.547-2.353,1.742-2.586c1.191-0.235,2.353,0.547,2.586,1.742l24.621,126.043
					c0.151,0.767-0.118,1.555-0.704,2.074c-0.583,0.517-1.399,0.682-2.142,0.446l-56.554-18.442l49.822,41.101
					c0.603,0.5,0.898,1.279,0.773,2.052l-71.321,441.524l6.057,90.742c1.044,15.653,8.184,29.89,20.104,40.089
					s27.106,15.04,42.714,13.662l113.49-10.09c1.236-0.099,2.287,0.79,2.392,2c0.108,1.214-0.788,2.284-2,2.392l-113.49,10.09
					C1743.584,1628.532,1741.705,1628.616,1739.834,1628.616z"/>
				<polygon style="fill:#FFFFFF;" points="1492.53,857.542 1577.29,830.841 1664.506,855.338 1627.024,956.759 1578.194,935.211 
					1535.524,951.799 				"/>
				<g>
					<g>
						<path style="fill:#E2A18D;" d="M1823.615,1547.148c-26.85,59.329-45.927,90.575-52.243,104.181
							c-11.807,25.434-63.904,126.652-36.312,135.912c13.01,4.366,26.695-31.161,32.942-44.488
							c-4.409,16.232-31.107,76.88-13.834,81.235c17.777,4.481,46.591-70.115,47.129-70.649
							c-2.246,8.644-36.182,70.362-17.731,76.528c17.768,5.938,43.698-61.582,48.667-69.871
							c-1.454,11.334-13.222,36.618-1.631,40.473c15.531,5.166,28.862-33.195,34.137-40.105
							c10.509-22.589,91.942-144.653,91.942-144.653C1963.692,1591.626,1864.929,1526.693,1823.615,1547.148z"/>
						<path style="fill:#363E44;" d="M1772.988,1711.833c-0.265,0-0.534-0.047-0.795-0.149l-11.509-4.451
							c-1.137-0.439-1.701-1.716-1.262-2.851c0.439-1.137,1.72-1.699,2.851-1.262l11.509,4.451c1.137,0.439,1.701,1.716,1.262,2.851
							C1774.706,1711.296,1773.871,1711.833,1772.988,1711.833z"/>
						<path style="fill:#363E44;" d="M1802.174,1723.169c-0.265,0-0.534-0.047-0.795-0.149l-11.508-4.451
							c-1.137-0.439-1.701-1.716-1.262-2.851c0.439-1.137,1.723-1.699,2.851-1.262l11.508,4.451
							c1.137,0.439,1.701,1.716,1.262,2.851C1803.892,1722.633,1803.059,1723.169,1802.174,1723.169z"/>
						<path style="fill:#363E44;" d="M1831.766,1735.039c-0.265,0-0.534-0.047-0.794-0.148l-11.509-4.451
							c-1.137-0.439-1.701-1.716-1.262-2.851c0.439-1.135,1.723-1.699,2.851-1.262l11.509,4.451
							c1.137,0.439,1.701,1.716,1.262,2.851C1833.485,1734.503,1832.649,1735.039,1831.766,1735.039z"/>
						<path style="fill:#363E44;" d="M1858.825,1745.254c-0.265,0-0.534-0.047-0.794-0.149l-11.509-4.453
							c-1.137-0.439-1.701-1.716-1.262-2.851c0.439-1.135,1.72-1.701,2.851-1.262l11.509,4.453c1.137,0.439,1.701,1.716,1.262,2.851
							C1860.543,1744.717,1859.708,1745.254,1858.825,1745.254z"/>
					</g>
				</g>
				<path style="fill:#363E44;" d="M1783.55,1538.141l181.953,85.074c0,0,208.325-362.504,103.22-418.047
					C1954.329,1144.718,1783.55,1538.141,1783.55,1538.141z"/>
				<path style="fill:#FFFFFF;" d="M1789.078,1545.814c-0.23,0-0.465-0.037-0.698-0.114c-1.154-0.383-1.779-1.632-1.393-2.788
					c0.635-1.906,64.541-191.507,149.732-264.167c0.926-0.792,2.321-0.68,3.109,0.246c0.79,0.928,0.68,2.319-0.245,3.109
					c-84.259,71.865-147.781,260.313-148.414,262.208C1790.861,1545.231,1790.002,1545.814,1789.078,1545.814z"/>
				<polygon style="fill:#FFFFFF;" points="1976.488,1603.506 1959.217,1638.416 1787.976,1544.711 1802.675,1505.024 				"/>
				<path style="fill:#FFFFFF;" d="M1441.268,1620.496c-1.238,0-2.48-0.037-3.729-0.11l-141.059-8.255
					c-1.214-0.071-2.142-1.113-2.071-2.33c0.073-1.216,1.053-2.134,2.33-2.071l141.059,8.255
					c15.925,0.911,31.089-4.582,42.699-15.531c11.608-10.949,18-25.765,18-41.721v-26.187l-77.231-525.49
					c-0.133-0.902,0.304-1.791,1.096-2.239l58.69-33.176l-54.466,4.952c-0.706,0.071-1.415-0.222-1.88-0.767
					c-0.465-0.547-0.635-1.283-0.456-1.979l27.928-108.77c0.303-1.18,1.509-1.886,2.685-1.587c1.178,0.304,1.888,1.505,1.587,2.685
					l-27.151,105.743l61.561-5.598c1.04-0.108,1.996,0.547,2.304,1.54c0.31,0.99-0.114,2.065-1.018,2.575l-66.297,37.476
					l77.035,524.153c0.015,0.105,0.024,0.213,0.024,0.321v26.348c0,17.184-6.884,33.139-19.385,44.93
					C1471.931,1614.594,1457.046,1620.496,1441.268,1620.496z"/>
				<polygon style="fill:#8B865C;" points="1504.932,939.948 1577.783,1034.663 1664.506,944.265 1667.446,1466.808 
					1504.289,1465.338 				"/>
				<path style="fill:#FFFFFF;" d="M1717.42,1391.109c-1.098,0-2.05-0.818-2.185-1.936c-0.149-1.208,0.71-2.308,1.918-2.457
					l83.783-10.29c1.232-0.187,2.31,0.71,2.457,1.918c0.149,1.208-0.711,2.308-1.918,2.457l-83.783,10.29
					C1717.598,1391.104,1717.508,1391.109,1717.42,1391.109z"/>
				<g>
					<g>
						<g>
							<path style="fill:#E2A18D;" d="M1155.117,1683.848c4.203,64.986,2.061,101.533,2.884,116.511
								c1.54,27.999,4.865,129.67,33.571,124.867c13.535-2.264,7.201-27.899,6.448-42.597c3.742,16.399,9.333,77.745,26.625,73.465
								c17.796-4.405,7.514-79.055,7.737-79.779c2.082,8.685,4.498,73.092,23.681,69.858c18.473-3.115,6.263-68.878,6.751-78.53
								c4.047,10.686,9.868,67.349,21.911,65.301c16.136-2.745,5.544-71.683,6.95-80.262
								c-1.348-24.877,13.119-170.897,13.119-170.897C1299.656,1657.231,1181.959,1646.368,1155.117,1683.848z"/>
							<path style="fill:#363E44;" d="M1174.59,1854.737c-1.1,0-2.052-0.82-2.188-1.94c-0.144-1.21,0.717-2.308,1.925-2.455
								l12.249-1.481c1.208-0.131,2.308,0.715,2.455,1.925c0.144,1.21-0.717,2.308-1.925,2.455l-12.249,1.481
								C1174.767,1854.732,1174.679,1854.737,1174.59,1854.737z"/>
							<path style="fill:#363E44;" d="M1205.68,1851.018c-1.1,0-2.052-0.82-2.188-1.94c-0.146-1.208,0.715-2.306,1.925-2.455
								l12.249-1.484c1.223-0.149,2.31,0.715,2.455,1.925c0.146,1.208-0.715,2.306-1.925,2.455l-12.249,1.484
								C1205.856,1851.014,1205.768,1851.018,1205.68,1851.018z"/>
							<path style="fill:#363E44;" d="M1237.378,1847.58c-1.1,0-2.052-0.82-2.188-1.94c-0.146-1.208,0.715-2.306,1.925-2.455
								l12.249-1.484c1.21-0.131,2.308,0.715,2.455,1.925c0.144,1.21-0.717,2.308-1.925,2.455l-12.249,1.483
								C1237.555,1847.575,1237.467,1847.58,1237.378,1847.58z"/>
							<path style="fill:#363E44;" d="M1266.06,1843.868c-1.1,0-2.052-0.82-2.188-1.94c-0.146-1.208,0.715-2.306,1.925-2.455
								l12.251-1.484c1.225-0.129,2.31,0.715,2.455,1.925c0.146,1.208-0.715,2.306-1.925,2.455l-12.251,1.484
								C1266.237,1843.863,1266.149,1843.868,1266.06,1843.868z"/>
						</g>
						<path style="fill:#E2A18D;" d="M1282.521,1761.518l17.461,19.039c3.739,5.963,6.007,12.729,6.617,19.74l1.968,22.631
							c0.315,3.627,1.658,7.131,4.033,9.89c7.5,8.712,15.172,5.565,18.978-15.078c4.071-7.617,4.344-20.825,5.086-34.726
							c0.519-9.728,0.629-22.055-4.534-30.316c-7.744-12.39-25.542-47.586-36.931-61.735L1282.521,1761.518z"/>
					</g>
					<polygon style="fill:#363E44;" points="1357.71,1391.387 1306.121,1715.469 1130.261,1694.442 1156.295,1340.398 					"/>
					
						<rect x="1130.868" y="1658.704" transform="matrix(-0.9971 -0.0764 0.0764 -0.9971 2310.6848 3455.9512)" style="fill:#FFFFFF;" width="181.109" height="50.181"/>
					<path style="fill:#363E44;" d="M1449.536,866.913l-52.364,2.205c-55.121,8.819-93.697,29.454-119.244,46.485
						c-39.687,26.458-94.456,212.023-110.241,321.904c-14.203,98.865-16.169,188.88-16.169,188.88l164.627,99.217l73.31-513.723
						L1449.536,866.913z"/>
				</g>
				<path style="fill:#FFFFFF;" d="M1313.628,1667.898c-0.017,0-0.037,0-0.056,0c-1.219-0.032-2.179-1.044-2.149-2.261
					l12.807-500.21c0.032-1.199,1.012-2.149,2.205-2.149c0.017,0,0.037,0,0.056,0c1.219,0.032,2.179,1.044,2.149,2.261
					l-12.807,500.21C1315.8,1666.948,1314.82,1667.898,1313.628,1667.898z"/>
				<path style="fill:#FFFFFF;" d="M1341.13,1394.048c-1.178,0-2.155-0.932-2.201-2.119c-0.047-1.216,0.9-2.241,2.117-2.289
					l113.182-4.41c1.225-0.047,2.244,0.9,2.289,2.116c0.047,1.217-0.9,2.241-2.116,2.289l-113.182,4.41
					C1341.188,1394.048,1341.16,1394.048,1341.13,1394.048z"/>
				<path style="fill:#FFFFFF;" d="M1559.777,1464.97c-0.002,0-0.004,0-0.006,0c-1.217-0.004-2.203-0.993-2.198-2.211l1.102-410.096
					c0.002-0.549,0.207-1.076,0.579-1.481l51.445-56.223c0.825-0.9,2.22-0.96,3.113-0.138c0.898,0.82,0.96,2.216,0.138,3.113
					l-50.868,55.594l-1.1,409.244C1561.978,1463.986,1560.991,1464.97,1559.777,1464.97z"/>
				<g>
					
						<ellipse transform="matrix(0.7071 -0.7071 0.7071 0.7071 -291.3602 1428.3777)" style="fill:#84524D;" cx="1578.524" cy="1065.892" rx="8.826" ry="8.826"/>
					
						<ellipse transform="matrix(0.9239 -0.3827 0.3827 0.9239 -305.0802 688.4422)" style="fill:#84524D;" cx="1577.973" cy="1111.09" rx="8.825" ry="8.826"/>
					<circle style="fill:#84524D;" cx="1576.865" cy="1161.249" r="8.826"/>
					<circle style="fill:#84524D;" cx="1576.313" cy="1206.448" r="8.826"/>
					<circle style="fill:#84524D;" cx="1577.422" cy="1249.994" r="8.825"/>
					
						<ellipse transform="matrix(0.9239 -0.3827 0.3827 0.9239 -375.6171 702.0343)" style="fill:#84524D;" cx="1576.871" cy="1295.193" rx="8.825" ry="8.826"/>
					<circle style="fill:#84524D;" cx="1575.762" cy="1345.352" r="8.826"/>
					<circle style="fill:#84524D;" cx="1575.211" cy="1390.551" r="8.826"/>
					
						<ellipse transform="matrix(0.7071 -0.7071 0.7071 0.7071 -555.9421 1537.0527)" style="fill:#84524D;" cx="1577.416" cy="1439.608" rx="8.826" ry="8.826"/>
				</g>
			</g>
			<g>
				<path style="fill:#84524D;" d="M1625.133,770.429c37.339-18.997,53.522-62.442,56.201-107.647
					c1.998-33.721-15.407-56.634-40.854-56.418c-17.508-28.749-83.221-34.369-110.888-13.618
					c-50.836,38.127-47.787,147.778,9.078,180.276C1576.225,794.485,1621.744,772.153,1625.133,770.429z"/>
				<g>
					<polygon style="fill:#E2A18D;" points="1578.194,935.211 1578.194,935.211 1528.128,879.893 1523.948,789.096 
						1630.662,784.512 1634.787,875.408 					"/>
					<path style="fill:#E2A18D;" d="M1657.043,727.769c-1.944,41.274-26.472,105.582-79.753,103.072
						c-53.282-2.51-71.656-68.839-69.712-110.113c1.05-22.287,6.227-59.562,22.435-69.618c13.809-8.568,38.609,14.669,57.596,15.563
						c20.636,0.972,39.799-20.963,52.602-9.51C1653.015,668.614,1658.016,707.132,1657.043,727.769z"/>
					
						<ellipse transform="matrix(0.9322 -0.362 0.362 0.9322 -168.1715 594.7929)" style="fill:#E2A18D;" cx="1503.159" cy="746.173" rx="21.134" ry="31.702"/>
					
						<ellipse transform="matrix(0.4481 -0.894 0.894 0.4481 241.866 1898.7581)" style="fill:#E2A18D;" cx="1658.677" cy="753.499" rx="31.702" ry="21.134"/>
					<path style="fill:#363E44;" d="M1660.462,770.088c-0.766,0-1.511-0.398-1.916-1.113c-0.605-1.057-0.237-2.403,0.823-3.006
						c2.989-1.707,5.652-4.677,7.499-8.365c1.85-3.686,2.633-7.598,2.211-11.013c-0.383-3.086-1.716-5.348-3.751-6.369
						c-0.396-0.196-0.818-0.349-1.251-0.448c-1.186-0.271-1.929-1.453-1.658-2.64c0.269-1.188,1.453-1.94,2.64-1.658
						c0.777,0.177,1.531,0.448,2.244,0.803c3.398,1.703,5.581,5.172,6.151,9.769c0.53,4.27-0.409,9.076-2.644,13.532
						c-2.233,4.457-5.521,8.085-9.259,10.217C1661.207,769.996,1660.833,770.088,1660.462,770.088z"/>
					<path style="fill:#363E44;" d="M1500.699,762.561c-0.437,0-0.881-0.129-1.266-0.401c-3.518-2.474-6.451-6.395-8.257-11.041
						c-1.804-4.646-2.287-9.519-1.359-13.72c0.999-4.524,3.501-7.773,7.041-9.149c0.745-0.289,1.522-0.487,2.313-0.588
						c1.21-0.17,2.313,0.693,2.47,1.901c0.157,1.208-0.693,2.313-1.901,2.47c-0.439,0.058-0.872,0.168-1.285,0.329
						c-2.121,0.823-3.658,2.95-4.33,5.988c-0.743,3.359-0.329,7.327,1.163,11.171c1.494,3.845,3.867,7.052,6.683,9.03
						c0.995,0.7,1.236,2.076,0.536,3.073C1502.077,762.234,1501.392,762.561,1500.699,762.561z"/>
					<path style="fill:#363E44;" d="M1648.467,772.532c-0.243,0-0.493-0.041-0.736-0.127c-1.148-0.407-1.748-1.667-1.341-2.814
						c3.884-10.97,6.593-22.752,7.831-34.073c0.131-1.212,1.193-2.091,2.431-1.953c1.212,0.133,2.084,1.221,1.953,2.431
						c-1.275,11.655-4.061,23.781-8.059,35.068C1650.224,771.968,1649.376,772.532,1648.467,772.532z"/>
					<path style="fill:#363E44;" d="M1513.17,770.078c-0.963,0-1.847-0.635-2.121-1.608c-3.858-13.731-5.923-28.949-5.809-42.85
						c0.011-1.212,0.995-2.188,2.205-2.188c0.006,0,0.011,0,0.017,0c1.219,0.011,2.198,1.005,2.188,2.222
						c-0.11,13.498,1.895,28.279,5.646,41.622c0.329,1.171-0.353,2.39-1.527,2.719
						C1513.568,770.052,1513.368,770.078,1513.17,770.078z"/>
					<g>
						<path style="fill:#FFFFFF;" d="M1649.787,728.757c0,0-3.664,5.536-10.177,10.971c-4.33,3.613-17.964,3.426-17.964,3.426
							s-15.143,7.188-21.381,5.833c-6.242-1.356-10.416-3.298-10.416-3.298s2.011-3.04,5.703-6.825
							c4.603-4.72,23.824-5.436,23.824-5.436s12.581-9.417,18.64-8.247C1645.003,726.53,1649.787,728.757,1649.787,728.757z"/>
						<path style="fill:#363E44;" d="M1616.555,725.669c-9.153,2.585-16.336,8.427-20.941,13.138
							c0.677,3.738,2.274,7.245,4.65,10.179c6.238,1.356,14.543,2.127,22.818-0.211c6.658-1.881,12.258-5.488,16.6-9.128
							c1.108-5.024,0.432-10.072-1.646-14.45C1631.97,724.02,1624.261,723.493,1616.555,725.669z"/>
					</g>
					<g>
						<path style="fill:#FFFFFF;" d="M1513.019,722.314c0,0,3.591,6.725,10.428,13.174c3.784,3.57,16.573,2.479,16.573,2.479
							s13.049,9.894,19.222,9.274c6.978-0.701,11.858-2.435,11.858-2.435s-1.681-3.148-4.932-7.201
							c-4.131-5.151-22.095-8.717-22.095-8.717s-13.036-9.628-19.212-9.007C1517.892,720.583,1513.019,722.314,1513.019,722.314z"/>
						<path style="fill:#363E44;" d="M1566.193,737.637c-4.129-5.156-10.804-11.79-19.798-15.273
							c-7.509-2.907-15.28-3.093-21.444-2.479c-2.055,4.26-2.811,9.188-1.806,14.181c0.099,0.501,0.241,0.983,0.373,1.468
							c3.775,3.553,8.516,7.019,14.205,9.221c7.509,2.908,15.28,3.094,21.448,2.479
							C1562.335,744.718,1564.757,741.395,1566.193,737.637z"/>
					</g>
					<path style="fill:#363E44;" d="M1579.853,834.418c-0.965,0-1.933-0.028-2.915-0.088c-21.008-1.279-36.98-15.92-48.549-28.534
						c-0.823-0.898-0.762-2.291,0.136-3.116c0.891-0.823,2.291-0.762,3.116,0.136c11.689,12.747,26.245,25.935,45.565,27.112
						c19.339,1.186,35.637-10.932,47.666-21.617c0.906-0.807,2.302-0.728,3.113,0.185c0.807,0.911,0.726,2.304-0.185,3.114
						C1615.724,822.332,1599.505,834.418,1579.853,834.418z"/>
					<path style="fill:#363E44;" d="M1581.444,777.174c-0.825,0-1.613-0.463-1.992-1.255c-0.525-1.098-0.06-2.414,1.04-2.939
						c2-0.954,4.466-2.5,4.855-4.44c0.222-1.098-0.243-2.043-1.234-3.908c-0.777-1.462-1.744-3.281-2.399-5.699
						c-0.96-3.535-0.982-7.314-0.067-11.233c0.276-1.184,1.464-1.923,2.648-1.645c1.186,0.276,1.923,1.462,1.645,2.648
						c-0.747,3.198-0.736,6.253,0.028,9.076c0.527,1.94,1.296,3.387,2.039,4.786c1.085,2.041,2.205,4.153,1.662,6.847
						c-0.603,2.989-3.051,5.529-7.28,7.547C1582.086,777.105,1581.763,777.174,1581.444,777.174z"/>
					<path style="fill:#363E44;" d="M1576.434,793.538c-4.429,0-9.02-2.315-11.866-6.037c-1.839-2.401-2.877-5.284-2.928-8.113
						c-0.022-1.216,0.947-2.222,2.166-2.244c1.174-0.047,2.222,0.947,2.244,2.166c0.035,1.895,0.751,3.852,2.02,5.512
						c2.14,2.797,5.615,4.451,8.839,4.293c1.204-0.052,2.259,0.857,2.33,2.071c0.071,1.216-0.857,2.259-2.071,2.33
						C1576.923,793.532,1576.679,793.538,1576.434,793.538z"/>
				</g>
				<path style="fill:#363E44;" d="M1637.137,640.189c-0.706,0-1.402-0.338-1.828-0.967c-4.02-5.93-8.819-11.067-14.265-15.268
					c-30.166-23.25-71.265-11.993-83.144-7.992c-1.154,0.398-2.403-0.23-2.793-1.385c-0.39-1.154,0.23-2.405,1.385-2.793
					c12.4-4.181,55.347-15.91,87.243,8.677c5.818,4.487,10.94,9.967,15.225,16.284c0.683,1.008,0.42,2.379-0.588,3.064
					C1637.994,640.066,1637.564,640.189,1637.137,640.189z"/>
				<path style="fill:#363E44;" d="M1521.888,644.465c-0.76,0-1.499-0.392-1.908-1.096c-0.614-1.053-0.256-2.403,0.797-3.014
					c12.505-7.271,56.503-29.802,97.613-14.456c7.517,2.806,14.525,6.754,20.834,11.739c0.956,0.754,1.118,2.14,0.362,3.096
					c-0.754,0.956-2.138,1.122-3.096,0.362c-5.947-4.698-12.555-8.421-19.641-11.067c-39.31-14.667-81.774,7.114-93.853,14.138
					C1522.646,644.368,1522.265,644.465,1521.888,644.465z"/>
				<g>
					<polygon style="fill:#776E42;" points="1578.194,935.211 1525.602,900.536 1536.341,974.332 					"/>
					<polygon style="fill:#776E42;" points="1624.819,902.741 1578.194,935.211 1625.165,969.231 					"/>
				</g>
			</g>
		</g>
		<g>
			<path style="fill:#D3BBA3;" d="M1684.618,508.16l181.676,98.195c25.522-2.427,58.213,4.892,89.979,22.027l11.244-20.803
				l-336.759-182.017L1684.618,508.16z"/>
			<path style="fill:#8B865C;" d="M2091.529,641.565c-19.843,36.712-65.852,50.436-102.563,30.594
				c-36.711-19.842-50.435-65.852-30.592-102.563c19.842-36.711,65.851-50.435,102.563-30.592
				C2097.647,558.845,2111.371,604.854,2091.529,641.565z M1977.432,579.896c-14.162,26.203-4.368,59.042,21.835,73.204
				c26.202,14.162,59.042,4.366,73.204-21.836c14.163-26.203,4.367-59.041-21.835-73.203
				C2024.432,543.898,1991.594,553.693,1977.432,579.896z"/>
			<path style="fill:#D3BBA3;" d="M1773.881,421.676l92.399,184.691c-3.233,25.433,3.048,58.339,19.17,90.631l-21.148,10.58
				L1693.029,365.23L1773.881,421.676z"/>
			<path style="fill:#363E44;" d="M1866.281,608.572c-0.809,0-1.587-0.446-1.974-1.219l-36.442-72.841
				c-0.545-1.09-0.103-2.414,0.986-2.958c1.089-0.543,2.411-0.103,2.958,0.986l36.442,72.841c0.545,1.089,0.103,2.414-0.986,2.958
				C1866.949,608.497,1866.613,608.572,1866.281,608.572z"/>
			<path style="fill:#363E44;" d="M1793.32,567.897c-0.81,0-1.587-0.446-1.974-1.219l-36.074-72.104
				c-0.545-1.09-0.103-2.414,0.986-2.958c1.089-0.54,2.414-0.103,2.958,0.986l36.074,72.104c0.545,1.089,0.104,2.414-0.986,2.958
				C1793.988,567.822,1793.652,567.897,1793.32,567.897z"/>
			<path style="fill:#8B865C;" d="M1927.005,801.055c-7.323,13.549-18.598,24.514-32.658,31.547
				c-18.079,9.045-38.597,10.507-57.776,4.119c-19.179-6.388-34.723-19.862-43.767-37.941c-9.045-18.079-10.507-38.597-4.119-57.777
				c6.387-19.175,19.862-34.722,37.941-43.766c37.321-18.672,82.873-3.499,101.544,33.821c9.045,18.078,10.507,38.598,4.119,57.777
				C1930.868,793.099,1929.098,797.183,1927.005,801.055z M1813.009,739.128c-1.494,2.764-2.757,5.678-3.771,8.721
				c-4.56,13.69-3.515,28.334,2.94,41.237c13.326,26.637,45.839,37.467,72.475,24.142c26.637-13.328,37.468-45.839,24.141-72.477
				c-6.455-12.903-17.549-22.521-31.238-27.081c-13.689-4.559-28.334-3.515-41.237,2.94
				C1826.283,721.632,1818.235,729.459,1813.009,739.128z"/>
			<path style="fill:#363E44;" d="M1816.565,545.467c0.377,3.967-2.533,7.488-6.5,7.865c-3.967,0.377-7.488-2.533-7.865-6.5
				c-0.377-3.967,2.533-7.488,6.5-7.865S1816.188,541.5,1816.565,545.467z"/>
		</g>
	</g>
</g>
</svg>
