<?xml version="1.0" encoding="utf-8"?>
<!-- Generator: Adobe Illustrator 27.5.0, SVG Export Plug-In . SVG Version: 6.00 Build 0)  -->
<svg version="1.1" xmlns="http://www.w3.org/2000/svg" xmlns:xlink="http://www.w3.org/1999/xlink" x="0px" y="0px"
	 viewBox="0 0 499.999 500" style="enable-background:new 0 0 499.999 500;" xml:space="preserve">
<g id="BACKGROUND">
	<g>
		<g>
			<rect style="fill:#FFFFFF;" width="499.999" height="500"/>
		</g>
	</g>
</g>
<g id="OBJECTS">
	<path style="fill:#C9DEE2;" d="M440.793,231.659c0,94.717-90.681,185.396-185.397,185.396c-94.717,0-192.688-76.783-192.688-171.5
		s97.971-171.5,192.688-171.5C350.113,74.055,440.793,136.942,440.793,231.659z"/>
	<g id="YOUTH">
		<defs>
			<path id="SVGID_1_" d="M440.793,231.659c0,94.717-90.681,185.396-185.397,185.396c-94.717,0-192.688-76.783-192.688-171.5
				s97.971-171.5,192.688-171.5C350.113,74.055,440.793,136.942,440.793,231.659z"/>
		</defs>
		<clipPath id="SVGID_00000034769988134666179930000013656002946815659916_">
			<use xlink:href="#SVGID_1_"  style="overflow:visible;"/>
		</clipPath>
		<g style="clip-path:url(#SVGID_00000034769988134666179930000013656002946815659916_);">
			<path style="fill:#231E3B;" d="M119.352,271.451c0,0-6.405,2.866-14.398,18.774c-7.992,15.909-30.223,85.161-22.571,95.56
				c7.652,10.398,29.499,15.551,29.499,15.551s-2.621,7.453,14.941,10.742c17.562,3.288,49.378,9.499,66.506,0
				c7.537-17.492,4.869-114.759,4.869-114.759L119.352,271.451z"/>
			<g>
				<g>
					<path style="fill:#FFFFFF;" d="M174.913,367.034c-10.736,11.075-26.29,16.714-41.576,13.717
						c-0.671-0.131-0.958,0.896-0.283,1.028c15.662,3.071,31.6-2.632,42.613-13.991
						C176.145,367.294,175.392,366.539,174.913,367.034z"/>
					<path style="fill:#FFFFFF;" d="M127.475,379.684c-1.763-0.575-3.565-1.023-5.328-1.599c-0.655-0.213-0.933,0.816-0.283,1.028
						c1.763,0.576,3.565,1.022,5.328,1.599C127.847,380.926,128.126,379.896,127.475,379.684z"/>
					<path style="fill:#FFFFFF;" d="M142.112,387.145c-4.902,0.955-9.711-0.076-13.977-2.61c-0.592-0.352-1.128,0.569-0.538,0.92
						c4.519,2.685,9.618,3.728,14.797,2.718C143.069,388.041,142.783,387.013,142.112,387.145z"/>
					<path style="fill:#FFFFFF;" d="M124.669,309.863c0.029-6.22,0.506-12.428,0.533-18.649c0.003-0.687-1.063-0.687-1.066,0
						c-0.026,6.222-0.504,12.43-0.533,18.649C123.601,310.55,124.666,310.55,124.669,309.863z"/>
					<path style="fill:#FFFFFF;" d="M89.363,380.1c0.579-1.338,1.169-2.672,1.719-4.023c0.26-0.637-0.772-0.91-1.027-0.282
						c-0.449,1.1-0.923,2.19-1.397,3.279c-0.65-0.944-1.293-1.895-1.892-2.873c-0.357-0.587-1.28-0.052-0.92,0.536
						c0.728,1.191,1.518,2.341,2.313,3.487c-0.657,1.523-1.293,3.055-1.834,4.629c-0.224,0.651,0.805,0.929,1.027,0.283
						c0.453-1.315,0.977-2.601,1.519-3.877c0.792,1.141,1.578,2.284,2.303,3.471c0.358,0.586,1.28,0.05,0.92-0.537
						C91.237,382.792,90.299,381.446,89.363,380.1z"/>
					<path style="fill:#FFFFFF;" d="M113.033,312.536c-1.029,6.768-1.515,13.577-1.752,20.403
						c-2.919-4.984-4.01-11.457-3.595-17.064c0.051-0.686-1.015-0.681-1.066,0c-0.467,6.308,0.923,13.718,4.603,18.978
						c-0.314,11.084-0.046,22.206-0.428,33.271c-0.378,10.962,0.341,21.965,0.01,32.926c0.429,0.116,0.787,0.211,1.057,0.281
						c0.352-10.857-0.32-21.768-0.019-32.629c0.31-11.184,0.04-22.461,0.382-33.688c0.116-0.142,0.147-0.337,0.016-0.537
						c0.234-7.254,0.731-14.486,1.82-21.657C114.163,312.147,113.135,311.859,113.033,312.536z"/>
				</g>
			</g>
		</g>
		<path style="clip-path:url(#SVGID_00000034769988134666179930000013656002946815659916_);fill:#714865;" d="M132.633,280.287
			c0,0-9.087,24.8,0,44.239c9.087,19.439,16.035,22.914,11.762,33.165c-4.273,10.252-5.292,15.847,10.67,13.316
			c15.962-2.531,25.02-19.514,23.955-35.8c-1.065-16.285-4.04-29.531,1.177-37.563C185.414,289.616,132.633,280.287,132.633,280.287
			z"/>
		<path style="clip-path:url(#SVGID_00000034769988134666179930000013656002946815659916_);fill:#231E3B;" d="M396.953,261.73
			c-8.171-4.264-4.264-17.205-32.622-12.908c-7.335,1.111-12.137,4.382-19.951,1.541c0,0-31.577-0.464-37.3,14.151
			c-1.402,3.579-2.806,29.79-17.132,57.959c-1.065,13.434-2.23,38.239-3.359,57.955c11.966-7.528,23.211-17.196,30.794-29.182
			c-3.907,18.117-10.658,50.088-9.948,52.93c0.711,2.843,56.127,24.155,91.295,2.486c-2.65-14.208,0-22.379,0-22.379
			s36.588-28.063,38.364-48.311C438.87,315.724,405.122,265.993,396.953,261.73z"/>
		<g style="clip-path:url(#SVGID_00000034769988134666179930000013656002946815659916_);">
			<path style="fill:#EA9188;" d="M335.498,195.658c0,0-16.339,31.615,10.657,38.009c-1.421,8.88-1.775,16.696-1.775,16.696
				s10.42,4.023,19.951-1.541c-0.059-4.853,0-9.116,0-9.116s11.308-56.481-5.032-55.415
				C342.958,185.356,344.024,182.87,335.498,195.658z"/>
			<path style="fill:#FFFFFF;" d="M402.992,172.923c-0.85,0.735-3.553-11.367-25.576-15.275
				c-22.025-3.908-39.785-0.339-44.049,14.927c-4.263,15.267,5.329,29.477,7.46,22.372c1.065,5.329,3.196,7.319,4.973,1.883
				c0,3.8,0.71,15.523-4.263,19.075c-1.775,1.065,1.778,3.908,4.618-1.776c2.841-5.684,2.132-13.322,5.684-12.167
				c3.552,1.155,8.88,11.932-1.776,15.602c-2.132,1.893-5.328,15.037,0,21.786c2.132,2.842-0.71-4.262,0.711-6.039
				c2.842,6.394,1.776,8.526,3.907,9.235c2.132,0.711,3.553-7.459,3.553-7.459s0.711,7.859,0,9.437
				c-0.711,1.575,4.617-3.398,5.684-7.306c-0.71,6.393-1.421,6.327-1.776,7.604c-0.357,1.277,1.959,1.029,3.553-1.919
				c3.551-6.572-0.725,1.11,1.946,1.622c2.671,0.51,2.404-5.529,7.541-8.511c2.915-1.692,35.626-15.846,32.429-47.105
				c6.394,1.421,11.785-7.104,0.209-8.88C412.227,171.503,408.319,168.305,402.992,172.923z"/>
			<g>
				<path style="fill:#231E3B;" d="M339.227,172.568c0.025-0.812,0.35-1.664,0.584-2.433c0.132-0.435,0.274-0.866,0.428-1.294
					c0.001-0.004,0.004-0.008,0.006-0.012c0.184-0.018,0.346-0.134,0.386-0.381c0.065-0.424,0.169-1.172-0.491-1.172
					c-0.522,0-0.693,0.664-0.841,1.048c-0.501,1.299-1.094,2.839-1.137,4.246C338.14,173.255,339.207,173.254,339.227,172.568z
					 M340.505,168.207C340.535,168.167,340.532,168.178,340.505,168.207L340.505,168.207z M339.618,167.972
					C339.614,167.942,339.616,167.93,339.618,167.972L339.618,167.972z"/>
				<path style="fill:#231E3B;" d="M338.518,177.896c0.023-0.838,0.336-1.639,0.354-2.487c0.013-0.688-1.053-0.686-1.065,0
					c-0.019,0.847-0.331,1.644-0.355,2.487C337.431,178.584,338.497,178.583,338.518,177.896z"/>
				<path style="fill:#231E3B;" d="M342.142,171.588c-0.412,0.88-0.428,1.8-0.428,2.755c0,0.688,1.065,0.688,1.065,0
					c0-0.742-0.04-1.529,0.282-2.217C343.352,171.507,342.434,170.966,342.142,171.588z"/>
				<path style="fill:#231E3B;" d="M404.59,195.302c-0.049,2.406-0.655,4.691-1.403,6.964c-0.216,0.654,0.814,0.932,1.028,0.283
					c0.777-2.363,1.391-4.747,1.44-7.247C405.668,194.615,404.603,194.616,404.59,195.302z"/>
				<path style="fill:#231E3B;" d="M401.766,205.107c-0.836,2.077-1.768,4.131-3.143,5.912c-0.421,0.544,0.507,1.074,0.92,0.538
					c1.433-1.854,2.381-4.004,3.251-6.166C403.051,204.753,402.02,204.479,401.766,205.107z"/>
				<path style="fill:#231E3B;" d="M399.189,205.874c0.775-1.573,1.451-3.192,2.485-4.619c0.405-0.557-0.52-1.088-0.92-0.538
					c-1.035,1.427-1.71,3.045-2.485,4.618C397.965,205.949,398.884,206.49,399.189,205.874z"/>
				<path style="fill:#231E3B;" d="M351.214,206.92c-1.996,1.279-2.702,3.274-2.377,5.575c0.062,0.435,0.622,0.46,0.891,0.235
					c0.19-0.161,0.43-0.271,0.674-0.37c0.071,0.282,0.142,0.564,0.212,0.846c0.166,0.667,1.194,0.384,1.027-0.283
					c-0.118-0.474-0.236-0.948-0.355-1.421c-0.089-0.359-0.48-0.458-0.782-0.319c-0.236,0.109-0.467,0.201-0.693,0.301
					c-0.02-1.495,0.596-2.781,1.939-3.643C352.328,207.471,351.794,206.548,351.214,206.92z"/>
				<path style="fill:#231E3B;" d="M335.957,205.163c0.374-0.878,0.934-1.858,2.007-1.843c0.413,0.006,1.232,0.369,1.264,0.863
					c0.043,0.682,1.109,0.687,1.065,0c-0.063-0.994-1.018-1.684-1.925-1.879c-1.611-0.348-2.763,0.985-3.331,2.321
					C334.772,205.249,335.689,205.793,335.957,205.163z"/>
				<path style="fill:#231E3B;" d="M340.01,211.729c-1.159,2.203-3.192,4.27-5.721,4.729c-0.675,0.122-0.388,1.149,0.283,1.027
					c2.781-0.503,5.081-2.791,6.358-5.217C341.25,211.66,340.332,211.121,340.01,211.729z"/>
				<path style="fill:#231E3B;" d="M357.773,214.926c-0.92,1.764-2.387,3.372-4.071,4.427c-0.582,0.364-0.048,1.286,0.537,0.92
					c1.836-1.149,3.45-2.885,4.454-4.809C359.01,214.855,358.09,214.317,357.773,214.926z"/>
				<path style="fill:#231E3B;" d="M361.625,212.922c-0.359,2.016-1.088,3.824-2.35,5.448c-0.415,0.536,0.333,1.296,0.754,0.753
					c1.38-1.777,2.229-3.703,2.624-5.918C362.773,212.534,361.746,212.247,361.625,212.922z"/>
			</g>
		</g>
		<path style="clip-path:url(#SVGID_00000034769988134666179930000013656002946815659916_);fill:#EA9188;" d="M215.416,229.408
			c0,0-7.09,33.564-27.338,27.438c-17.051-8.613-13.144-25.565-10.657-26.503c2.486-0.938,9.945-11.534,11.722-11.032
			C190.92,219.813,224.178,203.566,215.416,229.408z"/>
		<g style="clip-path:url(#SVGID_00000034769988134666179930000013656002946815659916_);">
			<path style="fill:#FFFFFF;" d="M416.757,338c-2.464-1.243-4.922-2.57-7.147-4.216c1.513-0.284,3.026-0.554,4.534-0.85
				c0.675-0.133,0.389-1.16-0.283-1.028c-1.891,0.372-3.792,0.695-5.683,1.065c-0.372,0.073-0.54,0.643-0.235,0.891
				c2.522,2.044,5.388,3.6,8.277,5.058C416.833,339.229,417.373,338.309,416.757,338z"/>
			<path style="fill:#FFFFFF;" d="M310.344,349.287c-2.782-0.288-5.852,1.162-8.006,2.79c-2.097,1.582-3.901,4.273-3.152,7.023
				c0.622,2.289,2.322,2.763,4.101,2.389c-1.541,0.444-3.155,0.533-4.557-0.059c-5.809-2.459,5.909-16.58,10.48-16.043
				c0.683,0.08,0.675-0.986,0-1.066c-4.367-0.512-8.159,4.728-10.228,7.897c-1.641,2.512-4.418,6.739-1.722,9.501
				c2.176,2.225,6.296,0.956,8.647-0.163c3.28-1.56,6.586-5.107,7.432-8.704C313.84,350.713,312.295,349.489,310.344,349.287z
				 M307.197,359.537c-0.26,0.192-0.542,0.383-0.835,0.566c0.158-0.11,0.31-0.223,0.457-0.338c1.081-0.858,4.265-5.222,1.928-6.311
				c-2.093-0.977-4.428,1.118-5.324,2.855c-0.199,0.388,0.057,0.753,0.461,0.801c1.221,0.146,1.826-0.247,2.982-0.728
				c0.624-0.262,0.35-1.293-0.283-1.028c-0.526,0.22-1.085,0.465-1.659,0.602c0.305-0.384,0.652-0.724,1.083-1.036
				c0.398-0.289,2.602-1.465,2.344,0.411c-0.313,2.274-2.418,4.114-4.406,4.947c-4.52,1.895-4.275-3.773-2.343-6.07
				c1.254-1.49,10.233-6.761,10.755-2.35C312.689,354.663,309.185,358.056,307.197,359.537z"/>
			<path style="fill:#FFFFFF;" d="M429.814,332.592c2.211-1.153,2.433,3.372,2.483,4.445c0.033,0.685,1.099,0.688,1.065,0
				c-0.079-1.681-0.266-5.58-2.73-5.663c-2.133-0.072-3.692,2.234-4.637,3.849c-2.219,3.792-3.384,12.102,2.28,13.677
				c4.739,1.317,6.442-8.56,3.365-10.743c-1.476-1.048-3.031,0.222-3.897,1.429c-1.531,2.136-1.408,5.027-0.347,7.313
				c0.117,0.25,0.506,0.345,0.728,0.191c1.991-1.363,2.336-3.285,2.022-5.574c-0.066-0.48-1.044-0.709-1.426-0.604
				c-0.656,0.182-0.39,0.749-0.614,1.188c-0.312,0.61,0.608,1.15,0.921,0.537c0.128-0.249,0.15-0.572,0.153-0.661
				c-0.001,0.062,0.001,0.286,0.038,0.808c0.088,1.208-0.31,2.223-1.142,2.992c-0.577-1.59-0.563-3.284,0.139-4.864
				c0.413-0.931,1.794-2.828,2.94-1.768c2.201,2.038,0.505,10.614-3.455,8.369c-3.717-2.107-2.641-7.952-1.159-11.044
				C427.257,334.972,428.307,333.378,429.814,332.592z"/>
			<path style="fill:#FFFFFF;" d="M395.353,303.647c0.122-4.239,1.685-8.235,2.132-12.434c0.073-0.683-0.993-0.676-1.065,0
				c-0.297,2.79-1.079,5.485-1.611,8.223c-0.686-6.12-1.401-12.241-2.117-18.367c-0.078-0.674-1.145-0.682-1.065,0
				c4.077,34.87,8.153,69.625,6.729,104.716c0.208-0.989,0.374-1.501,0.374-1.501s0.288-0.223,0.785-0.615
				c0.916-26.723-1.304-53.254-4.214-79.795C395.332,303.809,395.351,303.734,395.353,303.647z"/>
			<path style="fill:#FFFFFF;" d="M336.897,321.387c-2.363,2.983-4.547,6.114-7.037,8.992c1.443-3.018,2.87-6.045,4.322-9.059
				c0.296-0.615-0.623-1.155-0.92-0.536c-2.911,6.041-5.742,12.121-8.77,18.107c-1.522,3.011-3.12,5.982-4.786,8.917
				c-0.79,1.393-1.681,2.738-2.397,4.168c-0.049,0.097-0.099,0.191-0.148,0.289c-0.21,0.979-0.428,1.991-0.652,3.035
				c0.125-0.032,0.238-0.094,0.328-0.224c1.443-2.072,2.527-4.536,3.789-6.73c1.684-2.924,3.253-5.913,4.786-8.917
				c1.035-2.031,2.04-4.077,3.034-6.13c0.11-0.007,0.223-0.045,0.323-0.148c3.306-3.382,5.951-7.313,8.88-11.011
				C338.072,321.608,337.324,320.848,336.897,321.387z"/>
		</g>
		<g style="clip-path:url(#SVGID_00000034769988134666179930000013656002946815659916_);">
			<path style="fill:#714865;" d="M344.379,250.363c0,0-5.355-1.954-14.756,0.533c4.985,12.61,24.168,53.11,34.293,66.695
				c7.459-16.253,9.531-20.517,9.531-20.517L344.379,250.363z"/>
			<path style="fill:#714865;" d="M352.212,298.142c0,0-2.633,57.7-2.843,63.943c-0.209,6.244,17.743,17.563,20.94,18.105
				c3.197,0.54,27.96-9.241,37.958-22.822c5.874-13.202,3.603-19.265,3.603-19.265s-31.333-33.947-43.729-47.879
				C359.653,292.632,352.212,298.142,352.212,298.142z"/>
			<path style="fill:#FFFFFF;" d="M368.142,290.225c0,0-9.515,0.638-15.93,7.917c-0.729,10.123,9.964,44.232-2.843,63.943
				c-1.794,3.372-1.794,15.077,20.94,18.105c5.683-6.919,25.932-20.119,34.457-21.334c8.525-1.216,12.078-17.556,7.104-20.753
				C407.609,338.104,388.781,328.513,368.142,290.225z"/>
			<g>
				<path style="fill:#231E3B;" d="M353.259,301.604c0.013,0.687,1.079,0.689,1.065,0c-0.014-0.695-0.143-1.388-0.276-2.069
					c-0.065-0.34-0.14-0.679-0.21-1.018c-0.026-0.131-0.052-0.263-0.077-0.393c-0.014-0.081,0.003-0.177-0.012-0.158
					c0.035-0.193-0.02-0.407-0.222-0.551c-0.32-0.23-0.693-0.014-0.825,0.305c-0.096,0.236,0.011,0.569,0.054,0.807
					C352.947,299.545,353.238,300.561,353.259,301.604z"/>
				<path style="fill:#231E3B;" d="M353.811,304.143c0.25,1.248,0.496,2.495,0.799,3.73c0.164,0.667,1.191,0.385,1.027-0.283
					c-0.303-1.235-0.55-2.482-0.798-3.73C354.704,303.187,353.676,303.472,353.811,304.143z"/>
				<path style="fill:#231E3B;" d="M354.857,311.461c0.021,1.072,0.247,2.126,0.267,3.197c0.012,0.687,1.077,0.688,1.066,0
					c-0.021-1.071-0.247-2.125-0.268-3.197C355.911,310.775,354.845,310.774,354.857,311.461z"/>
				<path style="fill:#231E3B;" d="M355.675,318.796c0.306,1.436,0.807,2.816,1.066,4.264c0.121,0.675,1.147,0.388,1.028-0.283
					c-0.26-1.446-0.762-2.827-1.065-4.263C356.56,317.841,355.533,318.126,355.675,318.796z"/>
				<path style="fill:#231E3B;" d="M356.722,325.849c0.02,1.577,0.29,3.119,0.552,4.67c0.114,0.677,1.141,0.39,1.028-0.282
					c-0.245-1.46-0.496-2.904-0.515-4.388C357.78,325.162,356.714,325.161,356.722,325.849z"/>
				<path style="fill:#231E3B;" d="M356.99,333.841c0.122,1.237,0.255,2.485,0.266,3.729c0.006,0.688,1.071,0.689,1.065,0
					c-0.01-1.244-0.144-2.492-0.266-3.729C357.987,333.165,356.921,333.157,356.99,333.841z"/>
				<path style="fill:#231E3B;" d="M357.328,339.966c-0.653,1.089-0.605,2.506-0.605,3.732c0,0.687,1.065,0.687,1.065,0
					c0-1.029-0.09-2.28,0.46-3.195C358.603,339.915,357.682,339.379,357.328,339.966z"/>
				<path style="fill:#231E3B;" d="M355.905,351.567c0.561-1.445,0.877-2.999,1.545-4.402c0.293-0.618-0.626-1.157-0.92-0.537
					c-0.709,1.489-1.057,3.122-1.653,4.656C354.628,351.925,355.658,352.2,355.905,351.567z"/>
				<path style="fill:#231E3B;" d="M354.397,354.087c-0.504,0.784-0.824,1.644-1.119,2.524c-0.218,0.654,0.813,0.932,1.028,0.283
					c0.265-0.797,0.554-1.56,1.011-2.27C355.691,354.044,354.768,353.51,354.397,354.087z"/>
				<path style="fill:#231E3B;" d="M350.789,363.417c0.572-0.872,1.051-1.801,1.782-2.557c0.477-0.494-0.275-1.249-0.755-0.754
					c-0.794,0.822-1.325,1.824-1.947,2.773C349.491,363.456,350.415,363.989,350.789,363.417z"/>
				<path style="fill:#231E3B;" d="M370.2,376.092c-0.817,0.831-1.433,1.766-1.736,2.899c-0.177,0.665,0.852,0.946,1.028,0.283
					c0.257-0.962,0.77-1.725,1.462-2.43C371.434,376.355,370.681,375.601,370.2,376.092z"/>
				<path style="fill:#231E3B;" d="M373.664,372.895c-0.534,0.532-1.066,1.066-1.6,1.598c-0.485,0.486,0.269,1.24,0.755,0.755
					c0.532-0.533,1.065-1.067,1.598-1.599C374.903,373.163,374.149,372.409,373.664,372.895z"/>
				<path style="fill:#231E3B;" d="M378.567,368.548c-1.143,0.597-2.129,1.53-2.855,2.589c-0.391,0.568,0.534,1.102,0.92,0.538
					c0.624-0.909,1.494-1.695,2.473-2.207C379.714,369.15,379.175,368.231,378.567,368.548z"/>
				<path style="fill:#231E3B;" d="M383.363,365.618c-1.052,0.71-2.125,1.541-2.856,2.59c-0.394,0.565,0.531,1.098,0.92,0.537
					c0.621-0.889,1.584-1.606,2.473-2.207C384.465,366.156,383.934,365.232,383.363,365.618z"/>
				<path style="fill:#231E3B;" d="M389.351,362.633c-1.306,0.364-2.476,1.175-3.591,1.919c-0.569,0.379-0.036,1.303,0.537,0.92
					c1.035-0.69,2.125-1.474,3.337-1.811C390.294,363.478,390.013,362.45,389.351,362.633z"/>
				<path style="fill:#231E3B;" d="M394.679,359.436c-1.041,0.368-2.101,0.971-2.899,1.736c-0.498,0.477,0.258,1.229,0.754,0.754
					c0.66-0.634,1.566-1.157,2.428-1.462C395.606,360.238,395.329,359.207,394.679,359.436z"/>
				<path style="fill:#231E3B;" d="M401.073,356.772c-0.982,0.246-1.967,0.484-2.931,0.799c-0.649,0.213-0.371,1.242,0.283,1.029
					c0.964-0.314,1.949-0.554,2.931-0.8C402.022,357.633,401.74,356.606,401.073,356.772z"/>
				<path style="fill:#231E3B;" d="M408.267,355.44c-1.142,0.264-2.322,0.271-3.464,0.533c-0.67,0.155-0.386,1.183,0.283,1.027
					c1.142-0.263,2.322-0.27,3.463-0.532C409.22,356.313,408.936,355.287,408.267,355.44z"/>
				<path style="fill:#231E3B;" d="M407.734,339.418c0.996,0.325,2.022,0.535,3.072,0.551c0.688,0.013,0.686-1.054,0-1.065
					c-0.958-0.015-1.88-0.217-2.789-0.514C407.361,338.176,407.083,339.206,407.734,339.418z"/>
				<path style="fill:#231E3B;" d="M404.553,337.323c-0.799-0.266-1.598-0.532-2.397-0.798c-0.654-0.218-0.932,0.812-0.283,1.027
					c0.8,0.267,1.599,0.533,2.398,0.8C404.923,338.57,405.202,337.54,404.553,337.323z"/>
				<path style="fill:#231E3B;" d="M399.492,334.392c-0.637-0.236-1.222-0.757-1.547-1.352c-0.329-0.604-1.249-0.066-0.92,0.537
					c0.462,0.849,1.287,1.51,2.184,1.844C399.854,335.663,400.129,334.631,399.492,334.392z"/>
				<path style="fill:#231E3B;" d="M393.066,328.403c-0.48-0.492-1.232,0.261-0.754,0.753c0.747,0.767,1.38,1.634,2.132,2.397
					c0.482,0.491,1.235-0.263,0.754-0.753C394.447,330.037,393.813,329.169,393.066,328.403z"/>
				<path style="fill:#231E3B;" d="M390.024,326.309c0.563,0.395,1.096-0.528,0.536-0.92c-0.863-0.606-1.466-1.55-1.94-2.473
					c-0.313-0.613-1.233-0.074-0.92,0.536C388.263,324.551,389.003,325.593,390.024,326.309z"/>
				<path style="fill:#231E3B;" d="M385.385,321.43c0.481,0.491,1.233-0.262,0.754-0.754c-0.66-0.677-1.205-1.455-1.865-2.131
					c-0.48-0.492-1.233,0.261-0.753,0.753C384.18,319.974,384.726,320.753,385.385,321.43z"/>
				<path style="fill:#231E3B;" d="M381.04,316.793c0.404,0.547,1.33,0.016,0.92-0.537c-0.818-1.104-1.522-2.314-2.481-3.306
					c-0.478-0.493-1.23,0.26-0.753,0.754C379.621,314.629,380.276,315.762,381.04,316.793z"/>
				<path style="fill:#231E3B;" d="M377.128,311.039c0.472,0.502,1.224-0.255,0.753-0.753c-0.564-0.596-0.93-1.396-1.195-2.162
					c-0.224-0.646-1.252-0.369-1.028,0.283C375.985,309.352,376.433,310.306,377.128,311.039z"/>
				<path style="fill:#231E3B;" d="M373.792,305.743c0.225,0.645,1.254,0.368,1.028-0.283c-0.301-0.871-0.708-1.703-1.119-2.525
					c-0.307-0.614-1.226-0.074-0.92,0.537C373.151,304.213,373.522,304.957,373.792,305.743z"/>
				<path style="fill:#231E3B;" d="M370.649,300.541c0.375,0.573,1.298,0.039,0.92-0.537c-0.567-0.867-1.031-1.797-1.599-2.664
					c-0.375-0.571-1.298-0.039-0.92,0.537C369.618,298.744,370.082,299.674,370.649,300.541z"/>
				<path style="fill:#231E3B;" d="M367.398,294.819c0.229,0.643,1.259,0.366,1.028-0.283c-0.387-1.09-1.018-2.098-1.652-3.058
					c-0.377-0.569-1.301-0.037-0.92,0.537C366.433,292.894,367.045,293.822,367.398,294.819z"/>
				<path style="fill:#231E3B;" d="M367.888,305.12c-3.281,0.654-6.278,2.1-9.303,3.484c-0.332,0.152-0.314,0.603-0.108,0.837
					c0.356,0.406,0.747,0.845,0.929,1.363c0.097,0.275,0.359,0.452,0.655,0.372c0.296-0.079,0.58-0.186,0.872-0.272
					c-0.165,0.684,0.046,1.611,0.097,2.27c0.085,1.113,0.207,2.231,0.222,3.351c0.003,0.263,0.241,0.568,0.532,0.533
					c3.755-0.454,2.411-4.426,1.723-7.033c2.117-0.809,4.184-1.748,6.273-2.632c0.28-0.117,0.309-0.496,0.19-0.727
					c-0.321-0.641-0.628-1.295-1.065-1.865C368.549,304.335,367.811,304.668,367.888,305.12z M368.78,306.671
					c-1.927,0.824-3.842,1.679-5.8,2.416c-0.202-0.033-0.426,0.046-0.555,0.215c-0.729,0.264-1.469,0.497-2.217,0.711
					c-0.143-0.266-0.32-0.514-0.508-0.755c2.794-1.281,5.579-2.563,8.619-3.143c0.052-0.009,0.087-0.033,0.126-0.052
					C368.561,306.263,368.674,306.464,368.78,306.671z M362.287,315.872c-0.038-0.803-0.104-1.604-0.168-2.404
					c-0.042-0.54-0.084-1.08-0.117-1.621c-0.012-0.192-0.02-0.387-0.024-0.58c-0.001-0.028,0-0.041,0-0.064
					c0.111-0.145,0.143-0.34,0.001-0.541c-0.008-0.013-0.018-0.026-0.026-0.038c-0.01-0.016-0.024-0.017-0.034-0.029
					c0.199-0.066,0.405-0.119,0.603-0.19C363.056,312.185,364.124,315.191,362.287,315.872z M361.98,311.067
					C361.982,311.05,361.983,311.051,361.98,311.067L361.98,311.067z"/>
				<path style="fill:#231E3B;" d="M361.822,360.876c0.191-2.046-0.491-4.212-1.121-6.13c-0.084-0.253-0.292-0.362-0.502-0.366
					c2.968-6.609,3.039-13.843,3.983-21.071c0.082-0.622-0.795-0.661-1.015-0.153c-0.082-0.064-0.183-0.114-0.317-0.114
					c-0.799,0-1.599,0-2.397,0c-0.009,0-0.017,0-0.025,0c-0.688,0-0.688,1.065,0,1.065c0.006,0,0.013,0,0.02,0
					c0.078,7.908-1.83,15.281-4.239,22.771c-0.082,0.257,0.096,0.607,0.373,0.655c0.45,0.063,0.893,0.151,1.333,0.267
					c0.239,0.056,0.47-0.036,0.602-0.245c0.004-0.008,0.008-0.016,0.012-0.022c0.204,1.372,0.034,2.769-0.186,4.142
					c-0.053,0.323,0.138,0.691,0.513,0.675C360.026,362.296,361.693,362.267,361.822,360.876z M357.453,356.471
					c2.334-7.35,4.139-14.602,4.06-22.364c0.445,0,0.892,0,1.337,0c0.068,0,0.125-0.017,0.181-0.036
					c-0.445,3.691-0.652,7.405-1.194,11.085C361.513,347.355,360.075,355.765,357.453,356.471z M360.761,360.944
					c-0.393,0.157-0.838,0.232-1.281,0.279c0.234-1.627,0.346-3.274-0.112-4.877c-0.016-0.055-0.043-0.093-0.069-0.134
					c0.164-0.3,0.311-0.604,0.461-0.906c0.409,1.266,0.761,2.548,0.939,3.871C360.719,359.35,360.907,360.885,360.761,360.944z"/>
				<path style="fill:#231E3B;" d="M387.095,338.903c-0.017-0.204-0.127-0.338-0.267-0.421c0.03-0.128,0.054-0.259,0.058-0.397
					c0.083-2.951-1.649-5.982-2.741-8.647c-0.249-0.606-1.215-0.365-1.038,0.229c-0.109-0.076-0.251-0.108-0.417-0.069
					c-2.999,0.728-6.028,1.299-9.001,2.137c-2.048,0.576-5.418,1.342-6.504,3.437c-0.099,0.191-0.068,0.371,0.019,0.515
					c-0.053,0.078-0.091,0.169-0.091,0.287c0.01,2.306,0.277,6.59,2.999,7.512c-0.141,0.047-0.263,0.152-0.317,0.34
					c-0.398,1.419,0.669,3.698,1.031,5.039c0.299,1.099,0.758,2.242,0.87,3.381c0.162,1.641-0.009,3.293,0.181,4.938
					c0.719,6.256,6.926,2.911,10.607,2.097c3.644-0.807,9.139-1.323,10.25-5.663C394.122,348.206,387.477,343.955,387.095,338.903z
					 M382.973,330.625c0.221-0.055,0.329-0.204,0.363-0.372c0.632,1.534,1.272,3.06,1.815,4.628c0.376,1.09,1.134,2.822,0.245,3.836
					c-0.067,0.077-0.151,0.143-0.23,0.212c-0.149,0.039-0.285,0.14-0.37,0.28c-0.984,0.629-2.413,0.861-3.443,1.081
					c-0.159,0.034-0.315,0.06-0.473,0.092c-0.952-2.852-2.086-5.643-2.862-8.548c-0.01-0.034-0.029-0.057-0.043-0.086
					C379.64,331.373,381.313,331.027,382.973,330.625z M381.061,350.84c-0.648-3.037-1.417-6.044-2.198-9.048
					c0.437-0.074,0.878-0.146,1.322-0.216C381.001,344.011,382.695,349.247,381.061,350.84z M378.608,340.813
					c-0.752-2.893-1.496-5.789-2.129-8.71c0.168-0.042,0.335-0.087,0.502-0.127c0,0.047-0.006,0.091,0.009,0.142
					c0.767,2.869,1.952,5.637,2.864,8.463C379.436,340.658,379.022,340.738,378.608,340.813z M368.178,335.972
					c0-0.104-0.031-0.189-0.075-0.262c0.002-0.001,0.003-0.001,0.003-0.002c1.086-2.097,5.033-2.729,7.09-3.284
					c0.083-0.022,0.167-0.041,0.25-0.063c0.628,2.903,1.367,5.779,2.114,8.655c-1.071,0.215-2.137,0.466-3.207,0.855
					c-1.253,0.452-2.662,1.078-3.989,0.519C368.097,341.432,368.188,337.969,368.178,335.972z M372.796,354.273
					c-0.011-1.873-0.282-3.316-0.779-5.105c-0.339-1.216-1.546-3.806-1.193-5.061c0.059-0.208-0.009-0.37-0.124-0.485
					c0.085,0.012,0.164,0.034,0.255,0.04c1.499,0.108,2.879-0.473,4.267-0.975c0.86-0.312,1.72-0.527,2.59-0.702
					c0.851,3.268,1.693,6.538,2.375,9.848c0.055,0.262,0.398,0.477,0.656,0.373c2.891-1.163,1.686-5.645,1.174-7.891
					c-0.224-0.98-0.5-1.946-0.801-2.902c1.059-0.177,2.49-0.464,3.653-0.996c0.426,1.936,1.32,3.828,1.998,5.659
					c0.68,1.841,2.842,5.987,1.221,7.702c-1.838,1.944-6.058,2.029-8.514,2.484c-0.897,0.166-1.901,0.349-2.86,0.646
					c-0.019-0.093-0.063-0.186-0.166-0.265c-1.849-1.445-2.483-4.497-3.106-6.636c-0.532-1.831-1.169-3.856-1.267-5.775
					c-0.034-0.685-1.1-0.687-1.065,0c0.111,2.214,0.853,4.502,1.467,6.613c0.604,2.078,1.353,4.971,3.104,6.441
					c-0.786,0.351-1.495,0.819-2.016,1.487c-0.02,0.025-0.025,0.053-0.04,0.08c-0.063-0.083-0.127-0.146-0.19-0.237
					C372.639,357.435,372.804,355.634,372.796,354.273z M377.838,359.494c-1.345,0.475-2.477,0.77-3.483,0.086
					c0.021-0.018,0.043-0.028,0.062-0.052c1.736-2.225,5.863-2.309,8.419-2.776c1.97-0.361,4.301-0.764,5.854-2.138
					c0.306,0.41,0.488,0.99,0.289,1.465c-0.057,0.136-0.044,0.249-0.004,0.347c-1.543,0.78-3.39,1.104-5.035,1.458
					C381.868,358.33,379.841,358.788,377.838,359.494z M390.14,355.655c-0.002-0.66-0.312-1.349-0.717-1.836
					c1.112-1.56-0.407-4.822-0.913-6.309c-0.853-2.5-2.168-5.042-2.664-7.663c0.096-0.071,0.19-0.144,0.274-0.222
					c0.588,3.393,3.373,6.57,4.797,9.588C392.015,351.541,392.146,353.999,390.14,355.655z"/>
				<path style="fill:#231E3B;" d="M367.648,332.703c4.587-2.219,9.543-3.564,14.651-3.657c0.687-0.012,0.688-1.077,0-1.065
					c-5.299,0.097-10.433,1.501-15.188,3.803C366.492,332.082,367.033,333,367.648,332.703z"/>
				<path style="fill:#231E3B;" d="M375.497,361.835c-2.61,0.833-3.779-2.507-5.076-4.126c-0.43-0.536-1.18,0.224-0.754,0.754
					c1.613,2.013,2.895,5.425,6.113,4.399C376.432,362.654,376.154,361.625,375.497,361.835z"/>
				<path style="fill:#231E3B;" d="M364.184,305.527c1.038-0.733,2.208-0.977,3.462-0.992c0.687-0.008,0.688-1.073,0-1.065
					c-1.427,0.02-2.818,0.302-3.999,1.138C363.09,305.001,363.622,305.926,364.184,305.527z"/>
				<path style="fill:#231E3B;" d="M410.806,343.167c-0.056,3.358-0.807,6.539-1.846,9.716c-0.216,0.654,0.814,0.933,1.028,0.283
					c1.067-3.267,1.826-6.552,1.883-9.999C411.883,342.478,410.817,342.479,410.806,343.167z"/>
				<path style="fill:#231E3B;" d="M358.057,374.943c-3.485-1.863-5.113-5.323-7.002-8.6c-0.343-0.596-1.264-0.061-0.92,0.536
					c1.985,3.446,3.729,7.03,7.385,8.983C358.125,376.186,358.664,375.266,358.057,374.943z"/>
				<path style="fill:#231E3B;" d="M366.721,377.02c-1.886-0.515-4.112-0.626-5.733-1.81c-0.556-0.407-1.086,0.518-0.537,0.92
					c1.704,1.248,4.007,1.378,5.987,1.919C367.103,378.229,367.383,377.202,366.721,377.02z"/>
				<path style="fill:#231E3B;" d="M356.034,296.919c1.819-1.734,4.061-2.823,6.449-3.482c0.188,0.182,0.496,0.248,0.744,0.019
					c0.276-0.132,0.554-0.265,0.831-0.396c0.678-0.133,0.385-1.144-0.283-1.028c-3.151,0.618-6.151,1.9-8.495,4.134
					C354.782,296.64,355.536,297.392,356.034,296.919z"/>
			</g>
		</g>
		<g style="clip-path:url(#SVGID_00000034769988134666179930000013656002946815659916_);">
			<path style="fill:#FFFFFF;" d="M242.96,253.116c0,0-10.301-1.145-42.628-1.065c-29.307,0.071-63.408-2.746-67.67-4.171
				c-7.46-2.49-23.445,8.167-13.854,26.284c15.985,15.984,58.962,32.497,74.947,33.031c-1.065,16.517,1.462,67.339-2.108,87.222
				c-3.57,11.358-3.536,15.507-3.536,15.507s49.966,38.334,93.592,10.375c2.064-14.64,7.478-102.607,9.41-107.32
				c16.319-1.517,78.129-18.492,102.64-47.304c5.329-6.432,1.451-22.94-11.189-20.991c-16.576,2.554-42.095,13.167-85.082,13.167
				c-14.724-0.145-35.073-2.07-35.073-2.07S253.084,258.711,242.96,253.116z"/>
			<g>
				<path style="fill:#231E3B;" d="M205.734,254.71c-4.016,6.916-7.86,14.12-9.644,21.975c-0.152,0.67,0.875,0.954,1.027,0.283
					c1.766-7.77,5.565-14.878,9.538-21.719C207,254.654,206.08,254.118,205.734,254.71z"/>
				<path style="fill:#231E3B;" d="M287.187,300.805c-0.482-4.634-0.482-9.22,0-13.854c0.07-0.685-0.995-0.678-1.066,0
					c-0.481,4.634-0.481,9.22,0,13.854C286.192,301.482,287.257,301.489,287.187,300.805z"/>
				<path style="fill:#231E3B;" d="M286.275,312.711c-2.938-0.112-5.873-0.105-8.821,0.368c-0.678,0.109-0.39,1.137,0.284,1.028
					c2.465-0.397,4.929-0.446,7.393-0.382c-3.107,3.074-5.313,7.031-7.462,10.789c-0.343,0.598,0.578,1.134,0.92,0.537
					c2.274-3.975,4.594-8.18,8.035-11.277c1.41,0.062,2.822,0.146,4.234,0.219c0.087-0.462,0.173-0.809,0.257-1.015
					c0.073-0.007,0.155-0.017,0.23-0.023c-1.58-0.073-3.156-0.165-4.73-0.229C286.507,312.686,286.391,312.672,286.275,312.711z"/>
				<path style="fill:#231E3B;" d="M287.187,277.892c-0.051,0.687,1.016,0.682,1.066,0c0.525-7.128,2.708-14.015,6.408-20.09
					c-0.402-0.009-0.808-0.02-1.216-0.031C289.831,263.882,287.71,270.776,287.187,277.892z"/>
				<path style="fill:#231E3B;" d="M193.425,283.08c-1.579,7.784-1.32,15.857-0.833,23.763c-0.822-0.788-1.866-1.476-2.471-1.96
					c-3.195-2.557-6.568-4.9-9.925-7.237c-8.044-5.602-16.251-10.965-24.353-16.482c-0.57-0.388-1.102,0.536-0.538,0.92
					c7.374,5.023,14.83,9.925,22.181,14.98c3.435,2.361,6.852,4.75,10.181,7.257c0.599,0.451,2.439,1.573,3.724,2.691
					c0.808,0.087,1.581,0.152,2.289,0.177c-0.497-7.915-0.808-16.028,0.774-23.825C194.589,282.693,193.562,282.407,193.425,283.08z
					"/>
				<path style="fill:#231E3B;" d="M193.654,309.147c0.081-0.084,0.137-0.192,0.126-0.35c-0.021-0.316-0.039-0.635-0.059-0.951
					C193.697,308.265,193.675,308.692,193.654,309.147z"/>
				<path style="fill:#231E3B;" d="M257.434,269.44c-7.375,5.016-16.863,7.271-25.521,4.563c-0.658-0.205-0.937,0.823-0.283,1.028
					c8.909,2.785,18.746,0.494,26.343-4.672C258.536,269.976,258.004,269.052,257.434,269.44z"/>
				<path style="fill:#231E3B;" d="M233.406,271.48c2.1,0.692,4.227,1.325,6.394,1.776c0.671,0.139,0.956-0.889,0.284-1.028
					c-2.167-0.449-4.293-1.083-6.395-1.776C233.034,270.237,232.756,271.266,233.406,271.48z"/>
				<path style="fill:#231E3B;" d="M262.41,255.78c0,0-0.276,0.084-0.747,0.191c0.674,1.437,1.266,2.904,1.565,4.48
					c0.127,0.676,1.155,0.389,1.027-0.283c-0.289-1.526-0.854-2.956-1.498-4.356C262.537,255.792,262.41,255.78,262.41,255.78z"/>
				<path style="fill:#231E3B;" d="M257.847,256.498c0.248,1.981,0.496,3.963,0.743,5.943c0.084,0.672,1.15,0.68,1.065,0
					c-0.25-2.009-0.501-4.018-0.754-6.027C258.571,256.447,258.217,256.475,257.847,256.498z"/>
				<path style="fill:#231E3B;" d="M253.261,262.441c0.038-2.016,0.365-4.006,0.684-5.997c-0.342-0.028-0.69-0.068-1.046-0.111
					c-0.328,2.027-0.666,4.055-0.703,6.108C252.184,263.128,253.249,263.125,253.261,262.441z"/>
				<path style="fill:#231E3B;" d="M245.428,261.516c0.752-2.121,1.941-4.168,3.288-6.024c-0.35-0.101-0.704-0.221-1.059-0.337
					c-1.335,1.883-2.495,3.93-3.256,6.079C244.17,261.882,245.2,262.16,245.428,261.516z"/>
				<path style="fill:#231E3B;" d="M240.756,259.157c1.246-1.756,2.428-3.589,3.841-5.216c-0.325-0.152-0.652-0.325-0.979-0.494
					c-1.379,1.627-2.553,3.439-3.782,5.173C239.438,259.181,240.362,259.713,240.756,259.157z"/>
				<path style="fill:#231E3B;" d="M373.507,259.243c-19.133,1.121-39.758,2.45-57.938-4.775c-0.64-0.255-0.914,0.776-0.283,1.026
					c18.265,7.259,39.005,5.939,58.222,4.815C374.189,260.268,374.194,259.203,373.507,259.243z"/>
				<path style="fill:#231E3B;" d="M152.754,279.648c-2.292-2.262-4.819-4.266-7.567-5.944c-0.588-0.359-1.124,0.562-0.538,0.92
					c2.674,1.634,5.122,3.578,7.352,5.777C152.49,280.884,153.244,280.13,152.754,279.648z"/>
				<path style="fill:#231E3B;" d="M146.36,280.713c-0.489-0.483-1.243,0.27-0.753,0.753c2.188,2.161,4.581,4.096,7.035,5.945
					c0.549,0.413,1.08-0.513,0.538-0.92C150.797,284.697,148.483,282.809,146.36,280.713z"/>
				<path style="fill:#231E3B;" d="M384.96,256.119c-1.324,0.642-2.742,1.081-4.136,1.546c-0.647,0.216-0.37,1.245,0.283,1.026
					c1.482-0.493,2.982-0.971,4.391-1.651C386.118,256.741,385.577,255.821,384.96,256.119z"/>
				<path style="fill:#231E3B;" d="M379.227,253.402c-3.136,0.52-6.265,1.007-9.449,1.046c-0.688,0.009-0.689,1.074,0,1.065
					c3.279-0.04,6.503-0.548,9.732-1.085C380.186,254.316,379.899,253.29,379.227,253.402z"/>
				<path style="fill:#231E3B;" d="M328.48,296.615c-2.282,1.124-4.646,2.073-6.927,3.198c-0.618,0.303-0.078,1.222,0.537,0.92
					c2.281-1.125,4.645-2.074,6.927-3.198C329.633,297.232,329.093,296.313,328.48,296.615z"/>
				<path style="fill:#231E3B;" d="M316.351,301.356c-1.962,0.501-3.898,1.102-5.86,1.6c-0.666,0.169-0.383,1.197,0.283,1.028
					c1.962-0.5,3.897-1.101,5.86-1.6C317.3,302.215,317.017,301.188,316.351,301.356z"/>
				<path style="fill:#231E3B;" d="M320.082,296.029c-1.676,0.547-3.416,1.011-5.188,1.046c-0.686,0.015-0.688,1.08,0,1.065
					c1.866-0.037,3.705-0.508,5.471-1.083C321.014,296.844,320.735,295.815,320.082,296.029z"/>
				<path style="fill:#231E3B;" d="M126.268,252.849c0.227-0.021,0.407-0.061,0.608-0.169c0.143-0.078,0.296-0.348,0.458-0.364
					c0.678-0.063,0.684-1.129,0-1.065c-0.226,0.022-0.407,0.061-0.608,0.17c-0.143,0.076-0.296,0.348-0.458,0.363
					C125.59,251.847,125.584,252.913,126.268,252.849z"/>
				<path style="fill:#231E3B;" d="M121.096,255.136c-0.743,0.786-1.203,1.815-1.682,2.772c-0.306,0.613,0.613,1.152,0.92,0.539
					c0.434-0.869,0.842-1.845,1.516-2.557C122.322,255.391,121.569,254.636,121.096,255.136z"/>
				<path style="fill:#231E3B;" d="M128.663,255.053c-1.123,0.563-2.241,1.175-2.855,2.322c-0.323,0.607,0.597,1.145,0.92,0.539
					c0.525-0.982,1.517-1.463,2.474-1.941C129.816,255.667,129.276,254.747,128.663,255.053z"/>
			</g>
		</g>
		<g style="clip-path:url(#SVGID_00000034769988134666179930000013656002946815659916_);">
			<path style="fill:#714865;" d="M285.638,257.457c-3.069-2.122-11.594-3.612-16.213-1.268c0,0-6.258,19.652-10.531,32.143
				c-5.109-2.945-12.232-5.263-22.327-5.637c-2.926-0.108-6.265,0.155-9.688,0.874c2.354-11.523,6.334-28.96,7.463-30.991
				c0,0-6.023-1.382-13.561-0.391c-2.522,6.465-7.294,27.052-9.172,38.39c-2.054,1.68-3.907,3.645-5.415,5.966
				c-6.927,10.657-8.051,18.447-3.789,25.549c0,14.029-3.425,62.137-4.204,76.771c-0.439,8.229,37.08,16.017,55.415,7.164
				c4.796-3.449,16.773-11.321,17.178-26.034c0.364-13.21,2.753-62.653,0.832-76.481
				C275.13,288.217,281.952,260.274,285.638,257.457z"/>
			<g>
				<path style="fill:#231E3B;" d="M235.574,371.582c-5.797,9.173-15.159,15.333-20.958,24.511c-0.369,0.583,0.554,1.116,0.92,0.537
					c5.796-9.173,15.158-15.333,20.958-24.511C236.862,371.537,235.939,371.003,235.574,371.582z"/>
				<path style="fill:#231E3B;" d="M228.732,367.73c1.091-3.664,2.075-7.348,2.506-11.153c0.077-0.683-0.989-0.675-1.065,0
					c-0.42,3.707-1.406,7.303-2.468,10.87C227.508,368.107,228.537,368.387,228.732,367.73z"/>
				<path style="fill:#231E3B;" d="M220.965,364.949c0.135-0.006,0.268-0.025,0.401-0.052c0.117,0.027,0.242,0.023,0.372-0.045
					c0.137-0.074,0.268-0.151,0.394-0.234c0.675-0.353,1.247-0.944,1.545-1.605c0.685-1.516-0.158-2.974-1.382-3.903
					c-0.066-0.052-0.134-0.102-0.202-0.151c-0.289-0.211-0.568-0.06-0.695,0.189c-0.406,0.021-0.773,0.17-1.074,0.573
					c-0.242,0.323-0.362,0.767-0.491,1.143c-0.182,0.531-0.379,1.067-0.488,1.619C219.11,363.669,219.548,365.008,220.965,364.949z"
					/>
				<path style="fill:#231E3B;" d="M248.645,372.917c-0.754,11.8-2.919,23.664-1.979,35.506c0.35-0.085,0.701-0.167,1.043-0.258
					c-0.889-11.757,1.252-23.534,2.001-35.248C249.754,372.23,248.688,372.235,248.645,372.917z"/>
				<path style="fill:#231E3B;" d="M281.705,255.823c-0.357-0.096-0.724-0.184-1.101-0.265c-4.212,6.439-6.038,13.689-8.735,20.827
					c-1.983,5.253-5.123,10.953-5.143,16.73c-0.781-0.85-1.623-1.636-2.496-2.379c-0.233-5.715,3.347-11.598,4.772-17.051
					c1.686-6.453,3.075-13.42,7.44-18.68c-0.454-0.017-0.906-0.019-1.355-0.006c-3.756,4.969-5.2,11.081-6.744,16.989
					c-0.827,3.161-1.784,6.209-2.906,9.278c-0.994,2.719-2.156,5.638-2.265,8.582c-1.244-0.957-2.56-1.803-3.942-2.503
					c-0.115,0.337-0.231,0.678-0.344,1.007c3.83,1.964,7.153,5.088,9.649,8.743c-3.243-1.022-6.332,1.92-8.616,4.303
					c-2.992,3.121-4.587,7.059-6.326,10.939c-1.673,3.737-4.028,7.171-6.36,10.527c-2.596,3.735-5.814,6.805-10.16,8.355
					c-2.406,0.857-5.062,1.163-7.743,1.173c0.047-1.27,0.092-2.542,0.145-3.811c0.232-5.621,0.77-11.566,1.898-17.404
					c2.345,0.174,4.685,0.4,7.007,0.797c0.277,0.047,0.584-0.069,0.655-0.373c0.386-1.633,0.621-3.16,0.362-4.82
					c0.003-0.103-0.025-0.198-0.084-0.277c-0.01-0.015-0.023-0.025-0.034-0.039c-0.023-0.024-0.045-0.047-0.076-0.066
					c-0.074-0.051-0.159-0.078-0.25-0.079c-2.077-0.321-4.176-0.553-6.286-0.735c2.256-8.336,5.99-16.141,12.175-22.069
					c-0.429-0.071-0.871-0.136-1.313-0.199c-6.084,6.084-9.674,13.91-11.864,22.189c-2.761-0.217-5.536-0.357-8.306-0.477
					c0.023-0.104,0.042-0.209,0.065-0.313c1.844-8.263,5.17-17.375,12.472-22.028c-0.604-0.01-1.221-0.005-1.854,0.015
					c-6.075,4.593-9.223,12.244-11.149,19.668c-0.225,0.866-0.42,1.739-0.619,2.613c-2.083-0.09-4.161-0.175-6.223-0.286
					c-0.183-0.011-0.371,0.107-0.46,0.264c-0.715,1.251-1.264,2.573-1.404,4.016c-0.022,0.222,0.177,0.468,0.391,0.514
					c2.184,0.468,4.387,0.755,6.597,0.967c-1.194,6.883-1.83,13.889-2.563,20.808c-2.924-0.612-5.781-1.557-8.461-2.872
					c-2.12-1.041-4.095-2.378-5.846-3.961c-0.633-0.571-1.353-1.358-1.9-2.34c-0.002,0.438-0.01,1.338-0.017,1.832
					c0.462,0.479,0.952,1.068,1.369,1.446c1.633,1.478,3.487,2.69,5.426,3.723c2.858,1.521,6.028,2.607,9.309,3.315
					c-0.9,8.371-1.626,16.791-1.701,25.215c-0.026,2.896-0.982,15.533,4.792,13.875c1.059-0.305,1.855-1.384,2.477-2.219
					c0.059-0.08,0.084-0.157,0.094-0.23c3.327-4.524,3.944-10.449,4.284-15.913c0.41-6.571,0.613-13.153,0.852-19.734
					c1.448-0.035,2.88-0.132,4.275-0.296c7.573-0.885,12.309-6.15,16.249-12.175c1.185-1.81,2.265-3.621,3.27-5.473
					c-2.284,18.009-2.38,36.2-4.085,54.263c-0.064,0.685,1.002,0.678,1.066,0c0.083-0.885,0.146-1.772,0.222-2.657
					c5.49,0.948,8.75-3.51,13.703-4.806c0.063-0.016,0.125-0.03,0.189-0.046c-1.526,5.764-3.214,11.488-4.505,17.313
					c-0.148,0.67,0.879,0.955,1.027,0.283c1.332-6.014,3.087-11.921,4.652-17.875c2.28-0.508,4.47-0.88,6.158-2.098
					c0.018-0.468,0.033-0.94,0.051-1.414c-1.498,1.539-3.709,2.008-5.932,2.433c0.357-1.38,0.703-2.763,1.027-4.15
					c2.038-0.537,3.989-1.323,5.061-2.949c0.025-0.764,0.051-1.534,0.075-2.31c-0.183,0.024-0.345,0.137-0.398,0.374
					c-0.505,2.285-2.64,3.301-4.979,3.936c-0.223-0.095-0.489-0.059-0.629,0.161c-1.602,0.389-3.237,0.641-4.469,1.028
					c-4.036,1.272-5.955,6.169-10.632,5.213c1.169-16.026,1.474-32.125,3.62-48.064c0.032-0.239-0.079-0.426-0.236-0.542
					c0.645-1.273,1.271-2.561,1.862-3.898c1.801-4.076,8.123-14.807,13.578-10.872c0.043,0.031,0.085,0.042,0.127,0.058
					c0.813,1.389,1.511,2.835,2.072,4.312c0.134-0.581,0.271-1.18,0.413-1.795c-1.096-2.483-2.571-4.84-4.319-6.967
					c0.012-0.049,0.025-0.096,0.021-0.153c-0.416-6.002,2.962-12.118,5.071-17.564C275.661,269.537,277.41,262.267,281.705,255.823z
					 M227.583,348.139c-0.242,6.891-0.074,15.235-4.714,20.848c-0.064,0.078-0.096,0.16-0.113,0.242
					c-3.507,4.222-4.373-1.777-4.638-4.347c-0.38-3.681-0.297-7.418-0.179-11.11c0.226-7.065,0.851-14.12,1.601-21.147
					c2.82,0.533,5.706,0.784,8.542,0.787C227.866,338.328,227.754,343.256,227.583,348.139z M228.791,322.597
					c-0.307,3.237-0.512,6.503-0.665,9.774c-2.413-0.068-4.818-0.339-7.052-0.66c-0.474-0.067-0.942-0.171-1.413-0.257
					c0.748-6.974,1.434-13.983,2.626-20.899c2.697,0.227,5.403,0.368,8.105,0.554C229.654,314.946,229.15,318.816,228.791,322.597z
					 M262.604,357.672c0.875-0.247,1.872-0.449,2.89-0.683c-0.324,1.368-0.666,2.729-1.02,4.089c-0.483,0.098-0.961,0.2-1.425,0.323
					c-4.568,1.194-7.472,5.613-12.665,4.606c-0.003-0.001-0.006,0.001-0.009,0c0.078-0.928,0.164-1.856,0.234-2.786
					C255.709,364.148,258.017,358.965,262.604,357.672z"/>
				<path style="fill:#231E3B;" d="M227.104,282.473c-1.792,0.472-3.604,1.035-5.394,1.691c0.443-4.813,1.877-9.704,2.993-14.366
					c1.399-5.846,2.697-12.154,5.299-17.632c-0.349-0.051-0.718-0.094-1.11-0.125c-2.433,5.282-3.699,11.251-5.066,16.849
					c-1.242,5.089-2.807,10.443-3.223,15.694c-1.007,0.396-2.003,0.823-2.98,1.289c1.054-11.464,4.79-22.736,7.891-33.811
					c-0.371,0.033-0.752,0.079-1.144,0.136c-3.151,11.215-6.89,22.619-7.867,34.235c-1.637,0.842-3.214,1.783-4.675,2.861
					c-0.093,0.539-0.181,1.061-0.264,1.565c4.382-3.516,9.914-5.756,15.301-7.222C226.944,283.254,227.022,282.868,227.104,282.473z
					"/>
			</g>
		</g>
		<path style="clip-path:url(#SVGID_00000034769988134666179930000013656002946815659916_);fill:#EA9188;" d="M227.497,385.168
			c1.108-0.555,1.57-1.412,0.9-2.306c0,0-3.284-0.355-6.793-1.599c-3.315-1.175-5.805,1.454-1.983,3.396
			c-1.613-0.047-3.427-0.182-5.407-0.458c-8.121-1.133-7.915,3.553,0,4.736c-7.502,0.309-8.561,3.707,0,5.562
			c-7.193,0.616-6.885,4.085,3,4.513c9.886,0.43,12.247,0.478,12.247,0.478S225.995,394.22,227.497,385.168z"/>
		<g style="clip-path:url(#SVGID_00000034769988134666179930000013656002946815659916_);">
			<path style="fill:#231E3B;" d="M291.344,320.342c-11.084,21.793-31.297,46.891-63.836,61.455
				c-1.776,4.263-3.552,11.724,3.197,19.538c7.686,0,33.091-6.569,55.883-20.907C294.468,367.054,306.547,353.378,291.344,320.342z"
				/>
		</g>
		<path style="clip-path:url(#SVGID_00000034769988134666179930000013656002946815659916_);fill:#714865;" d="M187.012,179.868
			c0,0,35.672,1.613,41.015,25.575c5.343,23.961-2.857,34.953-12.611,32.122c-2.295-0.701,6.1-4.411,5.366-10.548
			c-2.865,2.92-8.479,10.085-12.599,8.101c-0.923-1.983,3.954-7.322,3.38-10.781c-2.172,5.067-10.69,9.281-15.489,7.707
			c1.595-4.771-3.733-7.961-9.062-2.636c-5.328,5.325-3.73,11.788,0,13.618c-1.066,3.429-2.134,8.484,2.664,8.742
			c-3.73,2.68-7.976,5.108-14.911,7.624c-6.935,2.516-41.57,6.431-42.103-11.513c-0.533-17.942,6.415-15.598,11.733-31.956
			C149.713,199.565,152.91,181.485,187.012,179.868z"/>
		<g style="clip-path:url(#SVGID_00000034769988134666179930000013656002946815659916_);">
			<path style="fill:#EA9188;" d="M285.588,211.021c0,0,2.121,33.836-21.186,33.569c-0.927,7.726-1.992,11.189-1.992,11.189
				s-14.121,5.769-19.449-2.664c-0.447-4.795,0-11.456,0-11.456s11.456-34.635,12.522-34.369c1.066,0.267,27.175-5.329,27.175-5.329
				L285.588,211.021z"/>
			<path style="fill:#231E3B;" d="M244.026,167.446c0,0,5.073-10.016,9.591-4.014c2.53,3.363-2.665,6.927-2.665,6.927
				s18.117-9.824,33.036,5.695c14.921,15.518,9.06,34.356,0,37.991c-2.663,0.971-3.196-1.16-1.065-4.89
				c-4.262,4.263-12.19,8.181-14.354,4.89c0.501-4.357-5.595-2.249-8.941,2.292c-3.346,4.541-1.982,9.87,3.73,12.001
				c-2.813,5.329-8.675,15.788-9.74,20.149c-1.065,4.361-3.73,0.284-3.73-3.805c-1.066,4.97-5.861,5.154-5.861,0
				c0,6.034-5.329,4.089-6.394,0c-1.065-4.089-8.526-13.148-15.453-19.009c-6.927-5.861-15.985-41.892,15.453-55.314
				c-4.796-1.167-3.081-7.324-1.247-8.379C239.364,160.268,242.96,161.81,244.026,167.446z"/>
			<g>
				<path style="fill:#231E3B;" d="M276.138,232.621c-2.357-0.615-3.628-3.014-4.156-5.223c-0.16-0.668-1.188-0.385-1.028,0.283
					c0.616,2.576,2.181,5.258,4.901,5.967C276.521,233.822,276.803,232.794,276.138,232.621z"/>
				<path style="fill:#231E3B;" d="M279.374,217.977c-2.078-0.796-3.979,0.986-4.69,2.76c-0.256,0.638,0.775,0.913,1.028,0.283
					c0.501-1.249,1.656-2.367,3.1-2.093c1.577,0.296,1.327,1.953,0.722,3.015c-0.341,0.598,0.58,1.135,0.92,0.539
					C281.399,220.823,281.379,218.747,279.374,217.977z"/>
				<path style="fill:#231E3B;" d="M262.033,217.305c-0.541,0.423,0.22,1.171,0.753,0.753c0.255-0.199,0.873-0.71,1.219-0.418
					c0.299,0.254,0.346,0.803,0.375,1.162c0.061,0.708-0.023,1.464-0.22,2.174c-0.371-0.458-0.858-0.787-1.518-0.796
					c-1.079-0.016-1.527,1.141-1.564,2.031c-0.029,0.687,1.036,0.684,1.065,0c0.064-1.539,1.218-0.823,1.617,0.142
					c0.156,0.376,0.751,0.594,0.975,0.127c0.666-1.399,0.982-3.215,0.527-4.725C264.746,216.042,263.145,216.435,262.033,217.305z"
					/>
				<path style="fill:#231E3B;" d="M261.325,230.611c0.193-0.661-0.835-0.941-1.027-0.283c-1.046,3.57-0.294,7.283,1.386,10.535
					c0.315,0.61,1.235,0.071,0.92-0.538C261.052,237.324,260.36,233.907,261.325,230.611z"/>
				<path style="fill:#714865;" d="M231.38,179.07c-0.92-0.234-2.148,0.868-2.824,1.337c-1.334,0.923-2.661,1.927-3.822,3.063
					c-0.492,0.48,0.262,1.234,0.753,0.753c0.896-0.874,1.896-1.645,2.9-2.388c0.467-0.347,2.251-1.853,2.71-1.737
					C231.763,180.266,232.046,179.238,231.38,179.07z"/>
				<path style="fill:#714865;" d="M222.869,186.4c-1.19,1.244-1.954,2.81-2.268,4.498c-0.125,0.671,0.902,0.959,1.027,0.283
					c0.282-1.514,0.924-2.91,1.995-4.028C224.098,186.658,223.345,185.902,222.869,186.4z"/>
				<path style="fill:#714865;" d="M229.529,184.802c-1.337,1.591-2.754,3.103-3.813,4.903c-0.349,0.593,0.572,1.129,0.92,0.538
					c1.014-1.723,2.368-3.166,3.647-4.688C230.722,185.033,229.972,184.275,229.529,184.802z"/>
				<path style="fill:#714865;" d="M255.236,218.339c-0.49,1.73-0.269,3.862,0,5.611c0.103,0.677,1.129,0.389,1.027-0.283
					c-0.237-1.55-0.434-3.515,0-5.046C256.451,217.96,255.422,217.679,255.236,218.339z"/>
				<path style="fill:#714865;" d="M257.274,226.471c-0.318-0.609-1.238-0.07-0.92,0.538c0.39,0.743,0.943,1.389,1.333,2.132
					c0.318,0.608,1.238,0.07,0.92-0.538C258.217,227.859,257.664,227.214,257.274,226.471z"/>
				<path style="fill:#714865;" d="M283.971,183.172c-0.289-1.089-0.772-2.116-1.387-3.058c-0.374-0.573-1.297-0.04-0.92,0.538
					c0.568,0.869,1.012,1.797,1.278,2.803C283.12,184.119,284.147,183.837,283.971,183.172z"/>
			</g>
		</g>
		<g style="clip-path:url(#SVGID_00000034769988134666179930000013656002946815659916_);">
			<g>
				<path style="fill:#231E3B;" d="M190.158,231.936c-0.085-0.28-0.176-0.428-0.46-0.527c0.04,0.305,0.08,0.609,0.119,0.914
					c0.31-0.191,0.878-0.592,1.273-0.401c0.324,0.157,0.218,0.96,0.201,1.23c-0.051,0.794-0.284,1.673-0.624,2.393
					c0.262-0.034,0.523-0.067,0.785-0.101c-2.145-2.296-5.261,1.022-2.56,2.917c0.529,0.371,1.028-0.496,0.505-0.863
					c-1.489-1.045,0.172-2.604,1.348-1.346c0.207,0.222,0.649,0.188,0.785-0.101c0.564-1.193,0.913-2.649,0.716-3.965
					c-0.241-1.608-1.937-1.238-2.932-0.626c-0.384,0.236-0.286,0.773,0.119,0.914c-0.079-0.057-0.159-0.115-0.238-0.172
					C189.381,232.816,190.347,232.554,190.158,231.936L190.158,231.936z"/>
			</g>
		</g>
		<g style="clip-path:url(#SVGID_00000034769988134666179930000013656002946815659916_);">
			<path style="fill:#231E3B;" d="M156.567,201.432c2.15-4.127,5.395-7.562,9.4-9.933c0.591-0.35,0.055-1.271-0.538-0.92
				c-4.152,2.457-7.553,6.035-9.782,10.315C155.331,201.503,156.25,202.042,156.567,201.432z"/>
			<path style="fill:#231E3B;" d="M151.826,213.028c0.545-2.054,1.451-3.958,2.61-5.734c0.377-0.578-0.546-1.111-0.92-0.538
				c-1.207,1.849-2.15,3.852-2.718,5.989C150.621,213.409,151.65,213.691,151.826,213.028z"/>
			<path style="fill:#231E3B;" d="M159.305,204.36c-0.077,1.583-1.071,3.177-1.579,4.654c-0.225,0.652,0.805,0.929,1.027,0.283
				c0.548-1.593,1.535-3.227,1.618-4.938C160.403,203.673,159.338,203.677,159.305,204.36z"/>
			<path style="fill:#231E3B;" d="M183.971,227.962c-4.154,4.585-24.141,19.755-12.681,25.88c0.606,0.324,1.145-0.597,0.539-0.92
				c-10.053-5.374,9.098-20.015,12.895-24.207C185.185,228.208,184.433,227.451,183.971,227.962z"/>
			<path style="fill:#231E3B;" d="M181.684,252.849c-5.29-0.654-6.507-5.919-3.354-9.747c0.434-0.526-0.316-1.285-0.753-0.754
				c-3.794,4.606-2.124,10.796,4.107,11.567C182.365,253.999,182.357,252.933,181.684,252.849z"/>
			<path style="fill:#231E3B;" d="M209.998,220.077c-1.187,1.732-2.701,3.208-4.18,4.688c-0.487,0.487,0.268,1.24,0.753,0.753
				c1.545-1.546,3.107-3.093,4.346-4.903C211.307,220.046,210.383,219.514,209.998,220.077z"/>
			<path style="fill:#231E3B;" d="M200.333,226.207c1.24-0.055,2.206-0.92,3.042-1.754c0.486-0.486-0.268-1.24-0.754-0.753
				c-0.612,0.611-1.366,1.401-2.288,1.442C199.649,225.171,199.646,226.238,200.333,226.207z"/>
			<path style="fill:#231E3B;" d="M205.399,238.344c-1.884-0.693-3.75,0.062-5.053,1.43c-0.417-0.558-0.753-1.179-1.235-1.689
				c-0.473-0.499-1.225,0.255-0.753,0.754c0.577,0.609,0.947,1.381,1.501,2.012c0.012,0.016,0.023,0.03,0.037,0.044
				c0.021,0.024,0.038,0.051,0.061,0.074c0.248,0.263,0.57,0.176,0.754-0.034c0.027-0.025,0.058-0.041,0.082-0.073
				c0.931-1.227,2.375-1.975,3.923-1.623c1.399,0.317,1.715,1.544,1.018,2.683c-0.36,0.589,0.562,1.124,0.92,0.539
				C207.611,240.898,207.225,239.016,205.399,238.344z"/>
			<path style="fill:#231E3B;" d="M196.873,249.725c-0.9-0.461-1.48-1.04-1.94-1.94c-0.313-0.612-1.233-0.072-0.92,0.538
				c0.536,1.047,1.275,1.786,2.322,2.322C196.945,250.958,197.484,250.039,196.873,249.725z"/>
			<path style="fill:#231E3B;" d="M155.311,301.944c-6.381-2.864-13.394-5.097-18.542-10.041c-0.496-0.476-1.249,0.277-0.753,0.753
				c5.225,5.018,12.279,7.301,18.757,10.208C155.395,303.142,155.937,302.225,155.311,301.944z"/>
			<path style="fill:#231E3B;" d="M170.23,306.74c-1.218-0.593-2.512-1.007-3.73-1.6c-0.616-0.299-1.156,0.62-0.538,0.921
				c1.218,0.592,2.512,1.006,3.73,1.599C170.308,307.958,170.848,307.04,170.23,306.74z"/>
			<path style="fill:#231E3B;" d="M160.639,310.468c-1.54-0.995-3.256-1.668-4.795-2.663c-0.58-0.375-1.113,0.548-0.538,0.92
				c1.54,0.995,3.256,1.668,4.795,2.664C160.68,311.764,161.213,310.84,160.639,310.468z"/>
			<path style="fill:#231E3B;" d="M167.903,349.026c-0.751,1.46-1.637,2.831-2.185,4.39c-0.229,0.648,0.801,0.927,1.027,0.282
				c0.518-1.469,1.371-2.759,2.078-4.136C169.136,348.952,168.216,348.413,167.903,349.026z"/>
			<path style="fill:#231E3B;" d="M163.298,356.826c-1.176,0.629-1.833,1.805-1.862,3.125c-0.016,0.688,1.05,0.686,1.065,0
				c0.022-0.957,0.487-1.751,1.335-2.205C164.442,357.422,163.904,356.503,163.298,356.826z"/>
			<path style="fill:#231E3B;" d="M162.878,355c0.501-0.474-0.254-1.226-0.753-0.755c-0.259,0.245-0.572,0.411-0.846,0.637
				c-0.36,0.295-0.619,0.662-0.836,1.071c-0.322,0.606,0.598,1.145,0.92,0.537C161.739,355.781,162.322,355.526,162.878,355z"/>
		</g>
	</g>
</g>
<g id="DESIGNED_BY_FREEPIK">
	<g>
		<g id="XMLID_1_">
			<g id="XMLID_20_">
				<path id="XMLID_28_" style="fill:#1D262D;" d="M260.303,461.465c-0.434,0.443-0.805,0.932-1.109,1.453l-0.465-0.241
					c-0.066-0.297-0.35-0.502-0.658-0.466c-0.332,0.039-0.568,0.339-0.529,0.67c0.039,0.331,0.338,0.567,0.67,0.528
					c0.064-0.007,0.127-0.025,0.184-0.052l0.451,0.234c-0.252,0.554-0.434,1.139-0.539,1.743l0.746,0.132
					c0.23-1.306,0.85-2.507,1.793-3.473L260.303,461.465z"/>
				<path id="XMLID_27_" style="fill:#1D262D;" d="M265.79,459.164c-0.17,0-0.34,0.006-0.508,0.017l-0.074-0.626
					c0.188-0.149,0.295-0.389,0.266-0.645c-0.047-0.393-0.402-0.674-0.795-0.628c-0.395,0.046-0.676,0.402-0.629,0.796
					c0.031,0.254,0.189,0.461,0.404,0.563l0.074,0.624c-0.715,0.116-1.402,0.332-2.061,0.646l0.328,0.685
					c0.934-0.447,1.942-0.674,2.994-0.674c0.498,0,0.994,0.053,1.477,0.158l0.16-0.741
					C266.891,459.222,266.34,459.164,265.79,459.164z"/>
				<path id="XMLID_26_" style="fill:#1D262D;" d="M272.393,461.711c0.33-0.04,0.566-0.341,0.525-0.672
					c-0.041-0.331-0.342-0.566-0.672-0.525c-0.31,0.038-0.535,0.304-0.531,0.608l-0.416,0.363c-0.418-0.43-0.889-0.813-1.406-1.14
					l-0.404,0.642c1.135,0.715,2.02,1.727,2.563,2.925l0.691-0.313c-0.252-0.554-0.568-1.071-0.943-1.545l0.402-0.351
					C272.264,461.715,272.327,461.719,272.393,461.711z"/>
				<path id="XMLID_25_" style="fill:#1D262D;" d="M265.243,469.372c-0.385,0.023-0.775,0.035-1.156,0.035
					c-0.881,0-1.734-0.061-2.479-0.18c-0.391-0.062-0.846-0.154-1.271-0.292c1.047,1.861,3.07,3.125,5.389,3.125
					c2.855,0,5.264-1.916,5.949-4.503c-0.682,0.449-1.504,0.825-2.457,1.122C268.038,469.047,266.663,469.287,265.243,469.372z"/>
				<path id="XMLID_21_" style="fill:#1D262D;" d="M265.79,460.68c-3.352,0-6.078,2.666-6.078,5.943
					c0,0.425,0.045,0.849,0.137,1.261c0.674,0.483,2.705,0.891,5.348,0.731c2.879-0.174,5.297-0.958,6.672-2.159
					c-0.006-0.194-0.022-0.39-0.045-0.581C271.442,462.914,268.848,460.68,265.79,460.68z M263.631,467.195
					c-1.019,0-1.85-0.83-1.85-1.85c0-1.021,0.83-1.851,1.85-1.851c1.02,0,1.85,0.83,1.85,1.851
					C265.481,466.365,264.651,467.195,263.631,467.195z M268.368,466.287c-0.75,0-1.359-0.61-1.359-1.36s0.609-1.36,1.359-1.36
					s1.361,0.61,1.361,1.36S269.118,466.287,268.368,466.287z"/>
			</g>
			<path id="XMLID_18_" style="fill:#1D262D;" d="M281.793,462.547c-0.295-0.116-0.805-0.31-1.383-0.238
				c-0.551,0.069-0.844,0.341-0.844,1.007v0.866h2.228v1.717h-2.228v5.455h-1.932v-5.455h-1.338v-1.717h1.338v-0.889
				c0-1.68,0.897-2.782,2.568-2.782c0.642,0,1.158,0.121,1.59,0.308V462.547z"/>
			<path id="XMLID_16_" style="fill:#1D262D;" d="M286.497,465.878c-0.178-0.029-0.357-0.046-0.525-0.046
				c-0.897,0-1.51,0.548-1.51,1.613v3.908h-1.934v-7.172h1.873v0.784c0.451-0.673,1.141-0.977,2.021-0.977
				c0.414,0,0.848,0.128,1.094,0.337L286.497,465.878z"/>
			<path id="XMLID_13_" style="fill:#1D262D;" d="M294.165,467.757c0,0.222-0.016,0.488-0.037,0.651h-5.086
				c0.207,1.036,0.934,1.487,1.844,1.487c0.621,0,1.295-0.252,1.813-0.689l1.133,1.243c-0.814,0.748-1.85,1.089-3.057,1.089
				c-2.197,0-3.723-1.496-3.723-3.753c0-2.258,1.48-3.797,3.627-3.797C292.743,463.99,294.157,465.522,294.165,467.757z
				 M289.049,467.091h3.176c-0.178-0.918-0.732-1.437-1.563-1.437C289.753,465.655,289.219,466.203,289.049,467.091z"/>
			<path id="XMLID_10_" style="fill:#1D262D;" d="M301.817,467.757c0,0.222-0.016,0.488-0.037,0.651h-5.084
				c0.207,1.036,0.932,1.487,1.842,1.487c0.623,0,1.297-0.252,1.814-0.689l1.133,1.243c-0.815,0.748-1.852,1.089-3.059,1.089
				c-2.197,0-3.723-1.496-3.723-3.753c0-2.258,1.48-3.797,3.627-3.797C300.395,463.99,301.809,465.522,301.817,467.757z
				 M296.704,467.091h3.174c-0.178-0.918-0.732-1.437-1.561-1.437C297.407,465.655,296.874,466.203,296.704,467.091z"/>
			<path id="XMLID_7_" style="fill:#1D262D;" d="M310.163,467.764c0,2.154-1.494,3.775-3.471,3.775
				c-0.963,0-1.645-0.378-2.109-0.933v3.708h-1.926v-10.133h1.889v0.792c0.467-0.585,1.154-0.984,2.139-0.984
				C308.668,463.99,310.163,465.611,310.163,467.764z M304.485,467.764c0,1.133,0.748,1.977,1.844,1.977
				c1.141,0,1.85-0.881,1.85-1.977c0-1.095-0.709-1.976-1.85-1.976C305.233,465.789,304.485,466.632,304.485,467.764z"/>
			<path id="XMLID_4_" style="fill:#1D262D;" d="M313.266,461.836c0,0.696-0.541,1.229-1.236,1.229
				c-0.695,0-1.228-0.533-1.228-1.229c0-0.695,0.533-1.243,1.228-1.243C312.725,460.592,313.266,461.14,313.266,461.836z
				 M313.006,471.354h-1.932v-7.172h1.932V471.354z"/>
			<path id="XMLID_2_" style="fill:#1D262D;" d="M316.231,466.736l2.701-2.554h2.369l-3.479,3.375l3.5,3.797h-2.375l-2.717-2.901
				v2.901h-1.932v-10.658h1.932V466.736z"/>
		</g>
		<g>
			<path style="fill:#1D262D;" d="M184.611,471.29v-1.055c-0.527,0.718-1.391,1.23-2.387,1.23c-1.846,0-3.149-1.406-3.149-3.706
				c0-2.256,1.289-3.721,3.149-3.721c0.952,0,1.816,0.469,2.387,1.245v-3.765h1.099v9.771H184.611z M184.611,469.371v-3.208
				c-0.395-0.615-1.245-1.143-2.124-1.143c-1.421,0-2.27,1.172-2.27,2.739c0,1.567,0.116,2.023,1.424,2.577
				C182.579,470.733,184.216,469.986,184.611,469.371z"/>
			<path style="fill:#1D262D;" d="M187.13,467.745c0-2.051,1.465-3.706,3.486-3.706c2.139,0,3.398,1.67,3.398,3.794v0.278h-5.727
				c0.088,1.333,1.025,2.446,2.549,2.446c0.806,0,1.626-0.322,2.182-0.894l0.527,0.718c-0.703,0.703-1.655,1.084-2.812,1.084
				C188.639,471.465,187.13,469.957,187.13,467.745z M190.602,464.947c-1.509,0-2.256,1.274-2.314,2.358h4.644
				C192.916,466.25,192.213,464.947,190.602,464.947z"/>
			<path style="fill:#1D262D;" d="M194.806,470.352l0.571-0.791c0.469,0.542,1.362,1.011,2.329,1.011c1.085,0,1.67-0.513,1.67-1.216
				c0-1.714-4.38-0.659-4.38-3.281c0-1.099,0.952-2.036,2.636-2.036c1.202,0,2.051,0.454,2.622,1.025l-0.513,0.762
				c-0.424-0.513-1.201-0.894-2.109-0.894c-0.966,0-1.567,0.483-1.567,1.113c0,1.553,4.379,0.527,4.379,3.281
				c0,1.187-0.952,2.139-2.783,2.139C196.505,471.465,195.523,471.114,194.806,470.352z"/>
			<path style="fill:#1D262D;" d="M201.676,462.471c0-0.41,0.337-0.747,0.732-0.747c0.41,0,0.747,0.337,0.747,0.747
				c0,0.41-0.337,0.732-0.747,0.732C202.013,463.204,201.676,462.881,201.676,462.471z M201.866,471.29v-7.075h1.099v7.075H201.866z
				"/>
			<path style="fill:#1D262D;" d="M204.781,473.106l0.556-0.82c0.586,0.703,1.289,0.967,2.3,0.967c1.172,0,2.27-0.571,2.27-2.124
				v-1.011c-0.513,0.718-1.377,1.26-2.373,1.26c-1.846,0-3.149-1.377-3.149-3.662c0-2.271,1.289-3.677,3.149-3.677
				c0.952,0,1.802,0.469,2.373,1.245v-1.069h1.099v6.87c0,2.344-1.641,3.076-3.369,3.076
				C206.436,474.161,205.615,473.925,204.781,473.106z M209.907,469.253v-3.091c-0.381-0.615-1.23-1.143-2.109-1.143
				c-1.421,0-2.27,1.128-2.27,2.695c0,1.553,0.849,2.695,2.27,2.695C208.677,470.411,209.526,469.869,209.907,469.253z"/>
			<path style="fill:#1D262D;" d="M217.612,471.29v-4.629c0-1.245-0.63-1.641-1.582-1.641c-0.864,0-1.685,0.527-2.094,1.099v5.171
				h-1.099v-7.075h1.099v1.025c0.497-0.586,1.464-1.201,2.519-1.201c1.48,0,2.256,0.747,2.256,2.285v4.966H217.612z"/>
			<path style="fill:#1D262D;" d="M220.131,467.745c0-2.051,1.465-3.706,3.486-3.706c2.139,0,3.398,1.67,3.398,3.794v0.278h-5.727
				c0.088,1.333,1.025,2.446,2.548,2.446c0.806,0,1.626-0.322,2.183-0.894l0.527,0.718c-0.703,0.703-1.655,1.084-2.813,1.084
				C221.64,471.465,220.131,469.957,220.131,467.745z M223.603,464.947c-1.509,0-2.256,1.274-2.314,2.358h4.643
				C225.917,466.25,225.214,464.947,223.603,464.947z"/>
			<path style="fill:#1D262D;" d="M233.549,471.29v-1.055c-0.527,0.718-1.392,1.23-2.388,1.23c-1.845,0-3.149-1.406-3.149-3.706
				c0-2.256,1.288-3.721,3.149-3.721c0.952,0,1.817,0.469,2.388,1.245v-3.765h1.098v9.771H233.549z M233.549,469.371v-3.208
				c-0.396-0.615-1.245-1.143-2.124-1.143c-1.421,0-2.27,1.172-2.27,2.739c0,1.567,0.85,2.725,2.27,2.725
				C232.304,470.484,233.153,469.986,233.549,469.371z"/>
			<path style="fill:#1D262D;" d="M239.891,471.29v-9.771h1.099v3.765c0.571-0.776,1.421-1.245,2.388-1.245
				c1.845,0,3.149,1.465,3.149,3.721c0,2.3-1.304,3.706-3.149,3.706c-0.996,0-1.86-0.513-2.388-1.23v1.055H239.891z
				 M243.099,470.484c1.436,0,2.285-1.157,2.285-2.725c0-1.567-0.85-2.739-2.285-2.739c-0.864,0-1.729,0.527-2.109,1.143v3.208
				C241.37,469.986,242.234,470.484,243.099,470.484z"/>
			<path style="fill:#1D262D;" d="M247.727,473.062c0.161,0.073,0.425,0.117,0.601,0.117c0.483,0,0.806-0.161,1.055-0.747
				l0.469-1.069l-2.959-7.148h1.187l2.358,5.801l2.345-5.801h1.199l-3.544,8.511c-0.425,1.024-1.143,1.421-2.08,1.436
				c-0.234,0-0.601-0.044-0.806-0.104L247.727,473.062z"/>
		</g>
	</g>
</g>
</svg>
