<?xml version="1.0" encoding="utf-8"?>
<!-- Generator: Adobe Illustrator 27.5.0, SVG Export Plug-In . SVG Version: 6.00 Build 0)  -->
<svg version="1.1" xmlns="http://www.w3.org/2000/svg" xmlns:xlink="http://www.w3.org/1999/xlink" x="0px" y="0px"
	 viewBox="0 0 500 500" style="enable-background:new 0 0 500 500;" xml:space="preserve">
<g id="Background_Simple">
	<g>
		<path style="fill:#92E3A9;" d="M34.479,364.639c0,0,19.822,78.238,83.254,101.493c63.432,23.256,115.593-20.432,166.844-38.112
			c26.839-9.259,54.662,1.712,82.086,0.014c87.688-5.431,137.587-135.766,112.461-220.203
			c-21.752-73.098-70.992-118.422-151.906-142.292c-80.915-23.87-137.182-44.366-219.251,7.336
			C25.897,124.577,12.767,262.609,34.479,364.639z"/>
		<path style="opacity:0.7;fill:#FFFFFF;" d="M34.479,364.639c0,0,19.822,78.238,83.254,101.493
			c63.432,23.256,115.593-20.432,166.844-38.112c26.839-9.259,54.662,1.712,82.086,0.014
			c87.688-5.431,137.587-135.766,112.461-220.203c-21.752-73.098-70.992-118.422-151.906-142.292
			c-80.915-23.87-137.182-44.366-219.251,7.336C25.897,124.577,12.767,262.609,34.479,364.639z"/>
	</g>
</g>
<g id="Picture_1_">
	<g>
		<path style="fill:none;stroke:#A2A7A9;stroke-miterlimit:10;" d="M242.5,47.598v163.757h-87.645V47.598H242.5 M245.557,44.54
			H242.5h-87.645h-3.058v3.058v163.757v3.058h3.058H242.5h3.058v-3.058V47.598V44.54L245.557,44.54z"/>
		<g>
			<path style="fill:#919191;" d="M160.084,78.517c0.883,0.658,1.82,1.215,2.775,1.727c1.92,1.002,3.917,1.818,5.947,2.526
				c1.017,0.35,2.042,0.673,3.078,0.96c1.044,0.268,2.066,0.575,3.177,0.643v-0.229c-1.027-0.1-2.067-0.441-3.08-0.743
				c-1.017-0.321-2.022-0.678-3.017-1.06c-1.986-0.773-3.932-1.652-5.773-2.698c-0.913-0.532-1.801-1.105-2.612-1.757
				c-0.801-0.649-1.558-1.395-1.956-2.255l-0.139-0.321c-0.033-0.108-0.044-0.219-0.07-0.327c-0.075-0.217-0.016-0.431-0.024-0.644
				c0.088-0.417,0.268-0.823,0.585-1.175c0.609-0.714,1.492-1.267,2.421-1.703c0.452-0.241,0.939-0.43,1.423-0.621
				c0.474-0.208,0.988-0.351,1.487-0.518c1.002-0.329,2.001-0.668,3.031-0.885l1.532-0.37l1.554-0.255
				c1.03-0.205,2.083-0.251,3.126-0.357c4.193-0.295,8.426,0.17,12.693,0.538c4.268,0.399,8.593,0.705,12.926,0.666
				c4.333-0.061,8.659-0.441,12.928-1.135c4.247-0.753,8.488-1.608,12.621-2.949l1.545-0.515c0.512-0.184,1.017-0.395,1.522-0.598
				c0.506-0.199,1.009-0.407,1.499-0.659c0.489-0.252,0.995-0.448,1.465-0.744c0.945-0.563,1.891-1.145,2.679-1.954
				c0.211-0.181,0.388-0.405,0.558-0.633c0.186-0.212,0.327-0.464,0.452-0.724c0.233-0.517,0.373-1.127,0.123-1.699l-0.205,0.103
				c0.119,0.456-0.061,0.972-0.331,1.374c-0.138,0.208-0.279,0.41-0.473,0.581c-0.174,0.183-0.35,0.361-0.568,0.506
				c-0.794,0.644-1.754,1.09-2.703,1.51c-0.465,0.228-0.978,0.378-1.462,0.571c-0.484,0.194-0.988,0.348-1.496,0.494
				c-0.507,0.145-1.004,0.313-1.512,0.452l-1.538,0.383c-4.109,0.987-8.313,1.646-12.519,2.232
				c-2.105,0.237-4.203,0.546-6.313,0.699c-2.104,0.23-4.216,0.339-6.329,0.435c-4.229,0.206-8.467,0.047-12.733-0.226
				c-2.241-0.132-4.504-0.293-6.78-0.357c0.067-1.502,0.008-3.004-0.181-4.516c-0.112-0.944-0.307-1.879-0.621-2.85
				c-0.065-0.241-0.195-0.49-0.295-0.734c-0.098-0.228-0.314-0.549-0.397-0.714c-0.008-0.029,0.03,0,0.027-0.003
				c0.02-0.013,0.029-0.073,0.097-0.172c0.109-0.2,0.354-0.473,0.638-0.716c0.286-0.248,0.598-0.501,0.947-0.729
				c0.682-0.469,1.437-0.896,2.21-1.295c1.547-0.811,3.222-1.441,4.937-1.912c1.709-0.448,3.506-0.81,5.241-0.865
				c1.729-0.069,3.489,0.239,5.174,0.807c3.389,1.124,6.511,3.17,9.206,5.615l0.168-0.156c-1.23-1.388-2.617-2.622-4.114-3.729
				c-1.496-1.105-3.112-2.075-4.859-2.805c-1.75-0.713-3.639-1.178-5.583-1.223c-1.939-0.054-3.79,0.207-5.656,0.57
				c-1.856,0.376-3.685,0.905-5.471,1.638c-0.888,0.38-1.762,0.814-2.597,1.381c-0.823,0.595-1.659,1.189-2.291,2.392
				c-0.146,0.307-0.265,0.697-0.273,1.142c0.003,0.454,0.158,0.946,0.423,1.29c0.15,0.229,0.212,0.279,0.319,0.461
				c0.088,0.174,0.192,0.324,0.277,0.518c0.367,0.735,0.642,1.582,0.919,2.431c0.416,1.353,0.785,2.752,1.161,4.161
				c-1.852-0.037-3.712-0.005-5.576,0.175c-1.083,0.139-2.173,0.218-3.24,0.458l-1.607,0.309l-1.578,0.425
				c-1.061,0.255-2.081,0.631-3.104,0.997c-1.023,0.352-2.047,0.755-3.028,1.283c-0.979,0.51-1.95,1.137-2.704,2.08
				c-0.382,0.461-0.65,1.061-0.744,1.696c0.004,0.32-0.038,0.65,0.064,0.949c0.039,0.151,0.068,0.308,0.119,0.452l0.192,0.411
				C158.351,77.1,159.213,77.852,160.084,78.517z"/>
			<path style="fill:#919191;" d="M204.88,105.022c-0.306-0.741-0.668-1.444-1.051-2.133c-0.767-1.376-1.602-2.704-2.473-4.007
				c-1.421-2.122-2.921-4.186-4.458-6.221c0.617-1.136,1.211-2.282,1.746-3.456c0.625-1.363,1.205-2.745,1.705-4.164
				c1.434,0.277,2.927,0.322,4.389,0.1c1.675-0.241,3.288-0.84,4.773-1.593c0.703-0.384,1.407-0.767,2.091-1.188
				c0.671-0.449,1.348-0.879,1.985-1.387c1.278-0.99,2.497-2.114,3.507-3.448c0.512-0.655,0.941-1.409,1.236-2.22
				c0.133-0.412,0.244-0.841,0.24-1.288c0.005-0.441-0.075-0.895-0.364-1.265l-0.191,0.127c0.131,0.7-0.221,1.395-0.626,1.966
				c-0.42,0.584-0.928,1.112-1.492,1.599c-0.276,0.246-0.558,0.484-0.86,0.713c-0.295,0.231-0.58,0.467-0.901,0.675l-0.921,0.657
				l-0.959,0.618l-3.876,2.474c-1.236,0.804-2.564,1.437-3.985,1.76c-1.416,0.32-2.898,0.37-4.356,0.124
				c-1.456-0.258-2.889-0.767-4.224-1.493c-2.697-1.417-5.075-3.533-7.036-5.949l-0.191,0.127c0.84,1.35,1.838,2.589,2.948,3.735
				c1.109,1.145,2.334,2.198,3.7,3.077c1.349,0.866,2.849,1.536,4.442,1.946c-1.96,2.743-3.783,5.534-5.669,8.248
				c-1.082,1.559-2.145,3.124-3.271,4.579c-0.559,0.722-1.157,1.426-1.789,1.944c-0.313,0.276-0.641,0.443-0.874,0.526
				c-0.046,0.002-0.107,0.035-0.142,0.034c-0.027-0.014-0.055,0.004-0.088,0.002c-0.029-0.022-0.059-0.029-0.101-0.034
				c-0.048-0.043-0.099-0.081-0.154-0.116c-0.469-0.424-0.899-1.298-1.224-2.127c-0.332-0.853-0.608-1.754-0.85-2.668
				c-0.48-1.831-0.852-3.711-1.172-5.6c-0.674-3.777-1.138-7.605-1.541-11.436l-0.229,0.011c0.038,3.864,0.261,7.722,0.635,11.583
				c0.21,1.928,0.473,3.855,0.856,5.78c0.195,0.963,0.426,1.925,0.736,2.889c0.156,0.482,0.329,0.964,0.565,1.449
				c0.219,0.482,0.514,0.976,0.965,1.452c0.131,0.118,0.266,0.233,0.404,0.344c0.174,0.101,0.364,0.192,0.553,0.272
				c0.197,0.062,0.415,0.084,0.624,0.107c0.204,0.01,0.381-0.029,0.573-0.053c0.695-0.159,1.234-0.463,1.676-0.784
				c0.91-0.641,1.626-1.368,2.312-2.112c1.353-1.499,2.465-3.127,3.468-4.808c0.282-0.483,0.542-0.976,0.811-1.465
				c1.457,2.035,2.879,4.097,4.219,6.207c0.834,1.317,1.631,2.657,2.352,4.028c0.36,0.685,0.697,1.384,0.97,2.093
				c0.133,0.356,0.27,0.712,0.332,1.068c0.11,0.447,0.118,0.476-0.147,0.659c-0.54,0.306-1.367,0.362-2.106,0.406
				c-0.762,0.033-1.535,0.014-2.307-0.023c-1.545-0.078-3.094-0.235-4.638-0.419c-3.09-0.374-6.171-0.865-9.245-1.393
				c-3.076-0.521-6.145-1.087-9.213-1.672l-4.605-0.883l-1.157-0.216l-0.585-0.104l-0.299-0.049
				c-0.035-0.004-0.03-0.008-0.097-0.013c-0.072-0.004-0.146-0.004-0.22,0.001c-0.074,0.006-0.146,0.016-0.217,0.031
				c-0.087,0.033-0.176,0.078-0.259,0.133c-0.185,0.119-0.257,0.239-0.325,0.368c-0.033,0.063-0.068,0.137-0.087,0.195l-0.028,0.136
				c-0.042,0.201-0.036,0.337-0.031,0.469c0.013,0.266,0.05,0.488,0.096,0.7c0.087,0.43,0.206,0.817,0.326,1.207
				c1.025,3.046,2.319,5.878,3.557,8.758l3.748,8.589c2.437,5.738,4.805,11.513,6.642,17.412c0.915,2.939,1.711,5.932,2.05,8.894
				c0.166,1.466,0.215,2.961-0.103,4.238c-0.157,0.634-0.412,1.192-0.766,1.6c-0.47,0.525-1.034,1.091-1.571,1.621
				c-2.174,2.163-4.535,4.197-6.885,6.247c-2.344,2.061-4.733,4.091-7.025,6.24c-2.293,2.148-4.559,4.344-6.602,6.761
				c-1.006,1.221-1.957,2.495-2.771,3.861c-0.807,1.364-1.464,2.854-1.701,4.429l0.225,0.042c0.835-2.994,2.902-5.421,5.026-7.633
				c2.137-2.234,4.487-4.271,6.878-6.258c4.787-3.983,9.789-7.712,14.451-12.042c0.58-0.564,1.127-1.098,1.706-1.73
				c0.682-0.769,1.071-1.682,1.299-2.556c0.445-1.767,0.365-3.453,0.206-5.082c-0.387-3.254-1.285-6.315-2.257-9.326
				c-2.024-5.997-4.544-11.75-7.125-17.456l-3.909-8.529c-1.283-2.836-2.637-5.679-3.658-8.543
				c-0.117-0.354-0.233-0.714-0.306-1.049c-0.019-0.076-0.033-0.151-0.046-0.223l0.417,0.066l1.151,0.194l4.619,0.798
				c3.083,0.529,6.171,1.041,9.267,1.507c3.098,0.454,6.204,0.872,9.328,1.173c1.562,0.148,3.129,0.268,4.707,0.309
				c0.789,0.018,1.581,0.019,2.379-0.035c0.399-0.028,0.8-0.071,1.205-0.144c0.404-0.08,0.815-0.166,1.23-0.428
				c0.2-0.119,0.431-0.345,0.497-0.659c0.062-0.34-0.039-0.519-0.078-0.719C205.184,105.764,205.029,105.395,204.88,105.022z
				 M170.096,104.05c-0.011-0.001-0.022,0-0.032-0.003C170.05,104.043,170.076,104.047,170.096,104.05z"/>
			<path style="fill:#919191;" d="M239.454,107.827c-0.379-0.421-0.841-0.611-1.275-0.786c-0.878-0.283-1.729-0.348-2.566-0.382
				c-3.333-0.04-6.529,0.466-9.747,0.73c-1.605,0.142-3.211,0.254-4.809,0.243c-0.798-0.006-1.596-0.037-2.379-0.136
				c-0.789-0.101-1.553-0.227-2.262-0.537c-1.434-0.594-2.675-1.629-3.733-2.81c-1.06-1.188-1.956-2.528-2.753-3.923
				c-1.574-2.803-2.788-5.823-3.698-8.914l-0.222,0.058c0.844,3.138,1.989,6.195,3.518,9.078c0.775,1.434,1.655,2.823,2.723,4.078
				c1.067,1.247,2.342,2.377,3.896,3.066c0.773,0.359,1.623,0.521,2.432,0.643c0.82,0.123,1.643,0.174,2.463,0.199
				c1.641,0.049,3.271-0.027,4.894-0.131c3.237-0.191,6.48-0.614,9.63-0.499c0.777,0.042,1.555,0.13,2.218,0.359
				c0.307,0.132,0.612,0.276,0.771,0.476c0.159,0.197,0.242,0.415,0.242,0.708c-0.015,0.146-0.023,0.311-0.066,0.458
				c-0.064,0.148-0.094,0.288-0.17,0.446c-0.177,0.322-0.343,0.646-0.575,0.967c-0.422,0.645-0.915,1.277-1.414,1.898
				c-2.013,2.486-4.214,4.869-6.372,7.278c-4.339,4.808-8.676,9.65-12.663,14.814c-1.996,2.579-3.907,5.238-5.62,8.052
				c-0.434,0.699-0.849,1.412-1.239,2.143c-0.412,0.716-0.772,1.467-1.136,2.215c-0.381,0.738-0.667,1.534-1.003,2.299
				c-0.269,0.801-0.589,1.581-0.79,2.415c-0.479,1.633-0.682,3.396-0.594,5.178c0.05,0.448,0.089,0.897,0.156,1.344l0.359,1.326
				c0.265,0.826,0.554,1.544,0.844,2.316c1.166,3.031,2.363,6.036,3.491,9.052c1.148,3.008,2.216,6.036,3.154,9.099
				c0.923,3.066,1.646,6.178,2.195,9.324c0.495,3.153,0.683,6.348,0.561,9.545c-0.125,3.203-0.729,6.364-1.547,9.494l0.217,0.075
				c1.158-3.037,1.968-6.225,2.373-9.485c0.322-3.264,0.305-6.565-0.019-9.838c-0.354-3.269-1.024-6.49-1.832-9.665
				c-0.855-3.161-1.873-6.266-2.949-9.34c-1.112-3.059-2.284-6.082-3.415-9.105c-0.265-0.748-0.6-1.527-0.833-2.24l-0.291-1.013
				c-0.054-0.352-0.086-0.711-0.135-1.066c-0.084-1.44,0.045-2.946,0.462-4.426c0.158-0.745,0.443-1.476,0.669-2.214
				c0.301-0.722,0.544-1.462,0.891-2.171c0.329-0.715,0.652-1.433,1.033-2.129c0.356-0.706,0.74-1.401,1.145-2.087
				c1.593-2.756,3.408-5.406,5.316-7.991c3.84-5.16,8.065-10.052,12.315-14.933c2.119-2.452,4.274-4.867,6.292-7.451
				c0.503-0.649,0.998-1.304,1.45-2.021c0.237-0.341,0.439-0.739,0.641-1.132c0.097-0.206,0.167-0.463,0.244-0.694
				c0.061-0.24,0.076-0.488,0.088-0.741C240.032,108.822,239.83,108.239,239.454,107.827z"/>
		</g>
	</g>
</g>
<g id="Dresses">
	<g>
		<path style="fill:#263238;stroke:#263238;stroke-miterlimit:10;" d="M85.053,90.43c0,0,0.009,0.097,0.023,0.276
			c0.16,1.99,1.008,14.152-1.774,17.629c-3.032,3.791-10.108,8.086-20.974,10.361c-10.866,2.274-18.7,3.538-22.238,11.624
			c-3.538,8.087-6.318,34.115-6.318,34.115s3.285,3.032,8.086,4.296c4.801,1.263,7.834,0.758,9.603,1.263
			c1.769,0.505,1.769,0.505,1.769,0.505l4.296-8.087l7.581,39.927l-0.253,14.151c0,0-12.382,26.281-16.679,49.277
			c-4.296,22.996-5.56,93.248-5.812,104.114c-0.253,10.866-1.011,20.974-1.011,20.974l-0.253,42.827H169.98
			c0,0-0.505-101.202-5.307-133.548c-4.801-32.346-21.227-80.865-22.238-83.645c-1.011-2.78-1.264-4.043-1.264-5.054
			s-0.253-8.339-0.758-9.855c-0.505-1.516-0.505-3.033-0.505-3.033s4.296-11.119,4.296-16.931s0-11.119,0-11.119l3.033,5.307
			c0,0,3.032,2.527,9.35-0.253c6.318-2.78,10.361-9.855,12.383-11.372c2.022-1.516,2.78-2.527,2.78-2.527
			s-5.054-19.458-9.603-30.325c-4.549-10.866-21.985-14.657-27.797-16.678c-5.812-2.022-16.931-5.56-18.7-8.845
			c-1.769-3.285-1.305-15.378-1.305-15.378H85.053z"/>
		<path style="fill:#FFFFFF;stroke:#263238;stroke-miterlimit:10;" d="M144.204,170.501l3.033,5.307c0,0,3.032,2.527,9.35-0.253
			c6.318-2.78,10.361-9.855,12.383-11.372c2.022-1.516,2.78-2.527,2.78-2.527s-5.054-19.458-9.603-30.324
			c-4.549-10.866-21.985-14.657-27.797-16.678c-5.812-2.022-16.931-5.56-18.7-8.845c-1.769-3.285-1.305-15.378-1.305-15.378h-29.29
			c0,0,0.009,0.097,0.023,0.276c0.16,1.99,1.008,14.152-1.774,17.629c-3.032,3.79-10.108,8.086-20.974,10.361
			c-10.866,2.274-18.7,3.538-22.238,11.624c-3.538,8.087-6.318,34.115-6.318,34.115s3.285,3.032,8.086,4.296
			c4.801,1.263,7.834,0.758,9.603,1.263c1.769,0.505,1.769,0.505,1.769,0.505l4.296-8.087l7.581,39.927c0,0,45.191,9.173,74.8-3.791
			c0,0,4.296-11.119,4.296-16.931C144.204,175.807,144.204,170.501,144.204,170.501z"/>
		<path style="fill:#858585;stroke:#263238;stroke-linecap:round;stroke-linejoin:round;stroke-miterlimit:10;" d="M99.476,125.772
			c17.461,0.659,28.153-6.519,33.484-11.598c-6.036-2.071-15.674-5.325-17.311-8.366c-1.769-3.285-1.305-15.378-1.305-15.378h-29.29
			c0,0,0.009,0.097,0.023,0.276c0.16,1.99,1.008,14.152-1.774,17.629c-2.412,3.015-7.392,6.347-14.795,8.73
			C72.273,120.123,81.133,125.08,99.476,125.772z"/>
		<path style="fill:#A3A3A3;stroke:#263238;stroke-linecap:round;stroke-linejoin:round;stroke-miterlimit:10;" d="M114.343,90.43
			c0,3.295-6.557,5.967-14.645,5.967c-8.088,0-14.645-2.671-14.645-5.967c0-3.295,6.557-5.966,14.645-5.966
			C107.787,84.464,114.343,87.135,114.343,90.43z"/>
		<path style="fill:none;stroke:#808080;stroke-miterlimit:10;" d="M78.103,205.149c0,0-1.667,2-1.333,5.667
			c0.333,3.667,0.333,10.667,0.333,10.667s-1.667,19.667-1.333,36.667"/>
		<path style="fill:none;stroke:#808080;stroke-miterlimit:10;" d="M73.437,218.149c0,0-6.333,36.667-4,54"/>
		<path style="fill:none;stroke:#808080;stroke-miterlimit:10;" d="M55.687,267.918c-0.107,0.975-0.191,1.942-0.25,2.898"/>
		<path style="fill:none;stroke:#808080;stroke-miterlimit:10;" d="M71.103,221.816c0,0-10.968,20.915-14.608,40.657"/>
		<path style="fill:none;stroke:#808080;stroke-miterlimit:10;" d="M120.345,273.683c-0.057,1.431-0.137,2.812-0.242,4.132"/>
		<path style="fill:none;stroke:#808080;stroke-miterlimit:10;" d="M117.103,208.482v11.667c0,0,3.415,26.835,3.359,47.739"/>
		<path style="fill:none;stroke:#808080;stroke-miterlimit:10;" d="M131.77,204.149l1.333,12.667c0,0,8.667,29.667,8.667,53.667"/>
		<path style="fill:none;stroke:#808080;stroke-miterlimit:10;" d="M151.462,261.683c0.407,2.726,0.641,5.253,0.641,7.466"/>
		<path style="fill:none;stroke:#808080;stroke-miterlimit:10;" d="M136.103,202.149c0,1,1.667,13,1.667,13
			s8.303,21.239,12.27,39.029"/>
	</g>
	<g>
		<path style="fill:#FFFFFF;stroke:#263238;stroke-miterlimit:10;" d="M292.5,85.167c-15.99,0-29,13.009-29,29v305.496h9V114.167
			c0-11.028,8.972-20,20-20H479v-9H292.5z"/>
	</g>
	<g>
		<g>
			<path style="fill:#FFFFFF;stroke:#263238;stroke-linejoin:round;stroke-miterlimit:10;" d="M443.491,145.754l-5.72-3.955
				c-8-5.531-14.466-13.632-18.625-23.335l-4.769-11.126h-0.716h-6.139h-0.716l-4.769,11.126
				c-4.159,9.703-10.624,17.804-18.625,23.335l-5.721,3.955c-3.199,2.211-5.16,6.227-5.16,10.564h34.99h6.139h34.99
				C448.651,151.981,446.69,147.965,443.491,145.754z M412.717,151.64h-4.25h-28.462c0-3.509,5.593-6.758,7.808-8.546l3.961-3.199
				c5.539-4.474,10.016-11.028,12.895-18.878l3.302-9.001h0.496h4.25h0.496l3.302,9.001c2.879,7.85,7.356,14.404,12.896,18.878
				l3.961,3.199c2.215,1.789,7.702,5.038,7.702,8.546H412.717z"/>
			<path style="fill:none;stroke:#263238;stroke-linecap:round;stroke-linejoin:round;stroke-miterlimit:10;" d="M410.548,107.156
				v-8.167c0,0,4.667-3.5,4.667-8.555c0-5.055-3.889-7-8.166-5.444"/>
		</g>
		<g>
			<path style="fill:#263238;stroke:#263238;stroke-linejoin:round;stroke-miterlimit:10;" d="M399.563,120.79l8.81,25.328
				l10.773-27.654c0,0,18.409,18.844,24.466,22.148s11.563,7.709,13.215,16.518c1.652,8.81,10.462,96.909,10.462,96.909
				l-20.373,1.101l1.841,49.823h-82.231l4.955-52.026H352.21c0,0,12.114-95.257,15.417-101.864
				C370.931,144.466,399.563,120.79,399.563,120.79z"/>
			<polygon style="fill:#FFFFFF;stroke:#263238;stroke-linejoin:round;stroke-miterlimit:10;" points="391.303,126.847 
				396.259,153.827 406.721,136.207 400.113,117.486 			"/>
			<polygon style="fill:#FFFFFF;stroke:#263238;stroke-linejoin:round;stroke-miterlimit:10;" points="419.146,118.464 
				410.024,136.758 419.385,154.928 427.094,124.644 			"/>
			<line style="fill:none;stroke:#808080;stroke-miterlimit:10;" x1="446.916" y1="255.141" x2="442.511" y2="171.447"/>
			
				<line style="fill:none;stroke:#263238;stroke-linejoin:round;stroke-miterlimit:10;" x1="371.481" y1="252.938" x2="379.19" y2="171.447"/>
		</g>
	</g>
	<g>
		<g>
			<path style="fill:#FFFFFF;stroke:#263238;stroke-linejoin:round;stroke-miterlimit:10;" d="M421.685,145.754l-5.72-3.955
				c-8-5.531-14.466-13.632-18.625-23.335l-4.769-11.126h-0.716h-6.138H385l-4.769,11.126c-4.159,9.703-10.625,17.804-18.625,23.335
				l-5.721,3.955c-3.199,2.211-5.16,6.227-5.16,10.564h34.99h6.138h34.99C426.845,151.981,424.884,147.965,421.685,145.754z
				 M390.911,151.64h-4.25h-28.462c0-3.509,5.593-6.758,7.808-8.546l3.961-3.199c5.539-4.474,10.016-11.028,12.895-18.878
				l3.302-9.001h0.496h4.25h0.496l3.302,9.001c2.879,7.85,7.356,14.404,12.896,18.878l3.961,3.199
				c2.215,1.789,7.702,5.038,7.702,8.546H390.911z"/>
			<path style="fill:none;stroke:#263238;stroke-linecap:round;stroke-linejoin:round;stroke-miterlimit:10;" d="M388.742,107.156
				v-8.167c0,0,4.667-3.5,4.667-8.555c0-5.055-3.889-7-8.166-5.444"/>
		</g>
		<g>
			<path style="fill:#92E3A9;stroke:#263238;stroke-linejoin:round;stroke-miterlimit:10;" d="M377.757,120.79l8.81,25.328
				l10.773-27.654c0,0,18.409,18.844,24.466,22.148c6.057,3.304,11.563,7.709,13.215,16.518c1.652,8.81,10.462,96.909,10.462,96.909
				l-20.373,1.101l1.841,49.823H344.72l4.956-52.026h-19.272c0,0,12.114-95.257,15.417-101.864
				C349.125,144.466,377.757,120.79,377.757,120.79z"/>
			<polygon style="fill:#FFFFFF;stroke:#263238;stroke-linejoin:round;stroke-miterlimit:10;" points="369.497,126.847 
				374.453,153.827 384.915,136.207 378.307,117.486 			"/>
			<polygon style="fill:#FFFFFF;stroke:#263238;stroke-linejoin:round;stroke-miterlimit:10;" points="397.34,118.464 
				388.218,136.758 397.579,154.928 405.288,124.644 			"/>
			
				<line style="fill:none;stroke:#263238;stroke-linejoin:round;stroke-miterlimit:10;" x1="425.11" y1="255.141" x2="420.705" y2="171.447"/>
			
				<line style="fill:none;stroke:#263238;stroke-linejoin:round;stroke-miterlimit:10;" x1="349.675" y1="252.938" x2="357.384" y2="171.447"/>
		</g>
	</g>
	<g>
		<g>
			<g>
				<path style="fill:#FFFFFF;stroke:#263238;stroke-linejoin:round;stroke-miterlimit:10;" d="M373.918,149.191l-6.041-4.176
					c-8.449-5.841-15.277-14.396-19.669-24.644l-5.036-11.75h-0.756h-6.483h-0.756l-5.036,11.75
					c-4.392,10.247-11.22,18.803-19.669,24.644l-6.041,4.176c-3.378,2.335-5.449,6.576-5.449,11.157h36.952h6.483h36.952
					C379.367,155.767,377.296,151.526,373.918,149.191z M341.418,155.408h-4.489h-30.058c0-3.706,5.907-7.137,8.246-9.026
					l4.183-3.379c5.85-4.725,10.578-11.646,13.619-19.937l3.487-9.506h0.524h4.489h0.524l3.487,9.506
					c3.041,8.29,7.769,15.212,13.619,19.937l4.183,3.379c2.339,1.889,8.134,5.32,8.134,9.026H341.418z"/>
				<path style="fill:none;stroke:#263238;stroke-linecap:round;stroke-linejoin:round;stroke-miterlimit:10;" d="M339.127,108.428
					v-8.624c0,0,4.928-3.696,4.928-9.035c0-5.339-4.107-7.392-8.624-5.75"/>
			</g>
			<g>
				<path style="fill:#FFFFFF;stroke:#263238;stroke-linejoin:round;stroke-miterlimit:10;" d="M316.163,136.173
					c0,0,9.157,10.56,20.666,10.74c12.221,0.192,26.579-10.503,26.579-10.503s4.24,3.862,10.637,7.351
					c6.396,3.489,10.6,8.593,13.956,17.445c3.741,9.869,11.998,36.7,11.998,36.7l-23.778,1.163L379.478,253h-79.087l5.355-54.944
					H282.66c0,0,7.65-36.269,11.139-43.247C297.288,147.831,316.163,136.173,316.163,136.173z"/>
			</g>
		</g>
		
			<line style="fill:none;stroke:#263238;stroke-linejoin:round;stroke-miterlimit:10;" x1="305.746" y1="198.056" x2="306.955" y2="169.232"/>
		
			<line style="fill:none;stroke:#263238;stroke-linejoin:round;stroke-miterlimit:10;" x1="376.221" y1="199.069" x2="374.359" y2="171.075"/>
	</g>
</g>
<g id="Table">
	
		<line style="fill:none;stroke:#263238;stroke-linecap:round;stroke-linejoin:round;stroke-miterlimit:10;" x1="20.333" y1="433.962" x2="480.333" y2="433.962"/>
</g>
<g id="Plant">
	<g>
		<path style="fill:#92E3A9;stroke:#263238;stroke-linecap:round;stroke-linejoin:round;stroke-miterlimit:10;" d="M42.178,376.397
			c0,0-0.231-6.002-2.77-10.157c-2.539-4.155-11.773-7.156-16.621-5.078c-4.848,2.077-7.156,3.463-7.156,3.463
			s7.156,2.077,13.62,6.464C35.715,375.473,42.178,376.397,42.178,376.397z"/>
		<path style="fill:#92E3A9;stroke:#263238;stroke-linecap:round;stroke-linejoin:round;stroke-miterlimit:10;" d="M51.874,379.398
			c0,0-5.54-5.309-6.464-12.696c-0.923-7.387,6.925-18.929,6.925-18.929s3.924,7.156,6.233,15.466
			C60.876,371.549,51.874,379.398,51.874,379.398z"/>
		<path style="fill:#92E3A9;stroke:#263238;stroke-linecap:round;stroke-linejoin:round;stroke-miterlimit:10;" d="M62.492,377.089
			c0,0-1.385-6.925,1.154-11.773c2.539-4.848,9.234-4.386,15.928-2.308c6.694,2.078,8.772,2.078,8.772,2.078
			s-7.849,5.309-14.543,8.079C67.109,375.935,62.492,377.089,62.492,377.089z"/>
		<g>
			<path style="fill:#263238;" d="M51.935,401.965c-0.33,0-0.597-0.267-0.597-0.597v-33.01c0-0.33,0.267-0.597,0.597-0.597
				c0.33,0,0.597,0.267,0.597,0.597v33.01C52.532,401.698,52.265,401.965,51.935,401.965z"/>
		</g>
		<g>
			<path style="fill:#263238;" d="M54.706,401.965c-0.028,0-0.055-0.002-0.083-0.006c-0.326-0.045-0.555-0.346-0.509-0.673
				c0.114-0.827,2.903-20.384,12.375-31.243c0.216-0.249,0.595-0.274,0.843-0.058c0.248,0.217,0.274,0.594,0.057,0.842
				c-9.236,10.588-12.065,30.423-12.093,30.622C55.256,401.749,54.999,401.965,54.706,401.965z"/>
		</g>
		<g>
			<path style="fill:#263238;" d="M49.165,401.503c-0.002,0-0.005,0-0.007,0c-0.33-0.004-0.593-0.275-0.59-0.604
				c0.002-0.189,0.089-18.979-11.088-27.92c-0.258-0.207-0.298-0.582-0.093-0.84c0.207-0.256,0.582-0.298,0.839-0.093
				c11.636,9.309,11.545,28.073,11.536,28.867C49.758,401.241,49.492,401.503,49.165,401.503z"/>
		</g>
		<g>
			<path style="fill:#263238;" d="M58.398,401.273c-0.051,0-0.104-0.007-0.155-0.021c-0.318-0.086-0.507-0.413-0.421-0.731
				c0.067-0.249,1.687-6.167,5.403-11.276c0.194-0.268,0.568-0.325,0.834-0.132c0.267,0.194,0.325,0.567,0.132,0.833
				c-3.587,4.932-5.2,10.825-5.216,10.884C58.903,401.097,58.662,401.273,58.398,401.273z"/>
			<path style="fill:#92E3A9;stroke:#263238;stroke-linecap:round;stroke-linejoin:round;stroke-miterlimit:10;" d="M62.031,392.094
				c0,0-0.231-6.464,2.539-7.387c2.77-0.923,5.31,1.385,7.387,2.77c2.078,1.385,4.386,2.77,4.386,6.925
				c0,4.155-1.616,11.773-1.616,11.773s-2.308-7.156-6.233-10.388C64.57,392.556,62.031,392.094,62.031,392.094z"/>
		</g>
		<g>
			<path style="fill:#263238;" d="M45.009,401.503c-0.253,0-0.487-0.161-0.569-0.415c-0.018-0.056-1.848-5.643-6.033-8.947
				c-0.259-0.205-0.303-0.58-0.099-0.839c0.205-0.257,0.581-0.302,0.838-0.098c4.478,3.534,6.354,9.277,6.432,9.52
				c0.1,0.313-0.073,0.649-0.387,0.75C45.13,401.494,45.07,401.503,45.009,401.503z"/>
			<path style="fill:#92E3A9;stroke:#263238;stroke-linecap:round;stroke-linejoin:round;stroke-miterlimit:10;" d="M42.178,394.172
				c0,0,0.923-4.155-1.385-7.156c-2.308-3.001-7.849-2.308-10.619,0.923c-2.77,3.232-6.694,12.927-6.694,12.927
				s5.54-4.386,12.004-4.386C41.947,396.48,42.178,394.172,42.178,394.172z"/>
		</g>
		<polygon style="fill:#FFFFFF;stroke:#263238;stroke-linecap:round;stroke-linejoin:round;stroke-miterlimit:10;" points="
			60.573,436.889 42.149,436.889 32.937,406.419 69.785,406.419 		"/>
		
			<rect x="32.834" y="401.366" style="fill:#FFFFFF;stroke:#263238;stroke-linecap:round;stroke-linejoin:round;stroke-miterlimit:10;" width="37.054" height="5.052"/>
	</g>
</g>
<g id="Threads">
	<g>
		
			<rect x="427.743" y="381.724" style="fill:#FFFFFF;stroke:#263238;stroke-linecap:round;stroke-linejoin:round;stroke-miterlimit:10;" width="8.662" height="5.015"/>
		<polygon style="fill:#858585;stroke:#263238;stroke-linecap:round;stroke-linejoin:round;stroke-miterlimit:10;" points="
			448.435,436.889 415.712,436.889 423.457,385.371 440.69,385.371 		"/>
		
			<line style="fill:none;stroke:#263238;stroke-linecap:round;stroke-linejoin:round;stroke-miterlimit:10;" x1="422.411" y1="393.88" x2="438.253" y2="385.442"/>
		
			<line style="fill:none;stroke:#263238;stroke-linecap:round;stroke-linejoin:round;stroke-miterlimit:10;" x1="422.411" y1="398.185" x2="438.253" y2="389.747"/>
		
			<line style="fill:none;stroke:#263238;stroke-linecap:round;stroke-linejoin:round;stroke-miterlimit:10;" x1="441.697" y1="394.224" x2="425.683" y2="403.179"/>
		
			<line style="fill:none;stroke:#263238;stroke-linecap:round;stroke-linejoin:round;stroke-miterlimit:10;" x1="425.166" y1="408.689" x2="430.676" y2="405.934"/>
		
			<line style="fill:none;stroke:#263238;stroke-linecap:round;stroke-linejoin:round;stroke-miterlimit:10;" x1="444.797" y1="414.372" x2="421.722" y2="426.426"/>
		
			<line style="fill:none;stroke:#263238;stroke-linecap:round;stroke-linejoin:round;stroke-miterlimit:10;" x1="424.133" y1="431.075" x2="442.558" y2="421.432"/>
		
			<line style="fill:none;stroke:#263238;stroke-linecap:round;stroke-linejoin:round;stroke-miterlimit:10;" x1="422.066" y1="431.936" x2="417.589" y2="434.519"/>
		
			<line style="fill:none;stroke:#263238;stroke-linecap:round;stroke-linejoin:round;stroke-miterlimit:10;" x1="446.519" y1="428.148" x2="434.637" y2="434.347"/>
	</g>
	<g>
		
			<rect x="404.527" y="381.724" style="fill:#FFFFFF;stroke:#263238;stroke-linecap:round;stroke-linejoin:round;stroke-miterlimit:10;" width="8.662" height="5.015"/>
		<polygon style="fill:#FFFFFF;stroke:#263238;stroke-linecap:round;stroke-linejoin:round;stroke-miterlimit:10;" points="
			425.22,436.889 392.497,436.889 400.242,385.371 417.475,385.371 		"/>
		
			<line style="fill:none;stroke:#263238;stroke-linecap:round;stroke-linejoin:round;stroke-miterlimit:10;" x1="399.196" y1="393.88" x2="415.038" y2="385.442"/>
		
			<line style="fill:none;stroke:#263238;stroke-linecap:round;stroke-linejoin:round;stroke-miterlimit:10;" x1="399.196" y1="398.185" x2="415.038" y2="389.747"/>
		
			<line style="fill:none;stroke:#263238;stroke-linecap:round;stroke-linejoin:round;stroke-miterlimit:10;" x1="418.482" y1="394.224" x2="402.467" y2="403.179"/>
		
			<line style="fill:none;stroke:#263238;stroke-linecap:round;stroke-linejoin:round;stroke-miterlimit:10;" x1="401.951" y1="408.689" x2="407.461" y2="405.934"/>
		
			<line style="fill:none;stroke:#263238;stroke-linecap:round;stroke-linejoin:round;stroke-miterlimit:10;" x1="421.582" y1="414.372" x2="398.507" y2="426.426"/>
		
			<line style="fill:none;stroke:#263238;stroke-linecap:round;stroke-linejoin:round;stroke-miterlimit:10;" x1="400.918" y1="431.075" x2="419.343" y2="421.432"/>
		
			<line style="fill:none;stroke:#263238;stroke-linecap:round;stroke-linejoin:round;stroke-miterlimit:10;" x1="398.851" y1="431.936" x2="394.374" y2="434.519"/>
		
			<line style="fill:none;stroke:#263238;stroke-linecap:round;stroke-linejoin:round;stroke-miterlimit:10;" x1="423.304" y1="428.148" x2="411.422" y2="434.347"/>
	</g>
</g>
<g id="Character">
	<g>
		<g>
			<path style="fill:#92E3A9;" d="M269.903,257.647c0,0-39.667,7.667-50.333,10.333c-10.667,2.667-14.667,10.667-18.333,19.667
				c-3.667,9-29.667,66-31,69.333c-1.333,3.333,7,5.333,17.333,9c10.333,3.667,16.333,7.667,19.333,3.667
				s10.667-19.333,10.667-19.333l-3.333,83.667h123l-5.333-87.333c0,0,4.667-68,4.333-70.667c-0.333-2.667-41-18.667-45.333-19
				C286.57,256.647,269.903,257.647,269.903,257.647z"/>
			<g style="opacity:0.4;">
				<path style="fill:#FFFFFF;" d="M215.924,391.622l-0.204,5.121c28.155,4.521,70.059,8,119.356,1.855l-0.305-4.999
					C287.326,399.555,246.263,396.544,215.924,391.622z"/>
				<path style="fill:#FFFFFF;" d="M321.787,312.279c-2.326,2.059-23.655,20.353-48.366,21.973
					c-26.169,1.725-48.884-11.598-49.027-11.68l-29.942-19.462c-0.663,1.482-1.355,3.029-2.068,4.618l29.368,19.087
					c0.977,0.582,24.238,14.244,51.997,12.427c27.85-1.827,50.677-22.589,51.635-23.472c0.148-0.138,0.279-0.291,0.391-0.46
					c0.077-0.116,3.506-5.237,8.933-10.955c0.164-2.578,0.322-5.103,0.472-7.521C327.847,303.585,322.845,310.719,321.787,312.279z"
					/>
				<path style="fill:#FFFFFF;" d="M179.751,335.759c-0.708,1.569-1.396,3.092-2.058,4.558l36.733,16.135
					c0.923-1.77,1.728-3.342,2.293-4.454L179.751,335.759z"/>
				<path style="fill:#FFFFFF;" d="M201.799,286.287c13.076,6.724,50.272,25.404,62.15,26.553
					c11.833,1.145,51.729-26.543,69.182-39.133c-1.352-0.735-3.081-1.587-5.072-2.511c-23.552,16.841-55.447,37.452-63.628,36.667
					c-9.796-0.948-41.752-16.413-60.569-26.132C203.132,283.198,202.453,284.722,201.799,286.287z"/>
				<path style="fill:#FFFFFF;" d="M217.83,357.928c1.701,0.519,42.01,12.64,73.043,9.039c26.557-3.079,38.123-12.042,41.351-15.076
					l-0.32-5.244c0,0,0.121-1.765,0.322-4.727c-2.057,2.764-2.887,4.937-3.213,6.117c-2.054,1.984-12.628,10.938-38.717,13.963
					c-29.114,3.37-68.243-8.032-70.874-8.815l-1.933-0.849l-0.214,5.367l0.277,0.122
					C217.643,357.865,217.735,357.899,217.83,357.928z"/>
				<path style="fill:#FFFFFF;" d="M251.69,324.001c21.596,3.672,47.822-8.87,64.23-22.935c5.887-5.046,13.168-10.574,19.925-15.484
					c0.144-2.58,0.256-4.761,0.326-6.398c-7.695,5.511-16.545,12.12-23.505,18.086c-15.522,13.306-40.139,25.214-60.138,21.802
					c-16.266-2.768-42.848-20.926-52.743-28.014c-0.578,1.331-1.271,2.91-2.058,4.69
					C208.495,303.435,234.681,321.106,251.69,324.001z"/>
				<path style="fill:#FFFFFF;" d="M336.347,419.421l-0.305-4.99c-25.592,1.322-76.482,3.098-121.006-0.526l-0.199,4.989
					c19.754,1.598,40.704,2.152,60.168,2.152C299.709,421.045,321.99,420.162,336.347,419.421z"/>
				<path style="fill:#FFFFFF;" d="M233.857,382.616c30.36,4.392,86.72,0.059,100.177-1.078l-0.904-14.805
					c-0.369,0.76-0.558,1.24-0.595,1.337c-0.161,0.426-0.203,0.887-0.122,1.334l1.298,7.14c-13.044,1.087-69.63,5.396-99.138,1.123
					c-5.858-0.848-11.933-1.887-17.973-3.026l-0.201,5.048C222.268,380.788,228.163,381.792,233.857,382.616z"/>
				<path style="fill:#FFFFFF;" d="M218.667,341.16c1.956,1.18,30.078,17.759,60.134,14.175
					c30.482-3.64,50.729-23.579,51.575-24.426c0.239-0.239,0.391-0.439,0.517-0.753c0.009-0.019,0.509-0.979,2.306-2.721
					c0.148-2.227,0.303-4.559,0.461-6.955c-4.674,3.555-6.449,6.01-7.088,7.151c-2.464,2.329-21.473,19.527-48.363,22.738
					c-28.744,3.437-56.731-13.352-57.01-13.522c-0.043-0.026-0.088-0.052-0.133-0.075l-33.741-17.797
					c-0.685,1.519-1.372,3.045-2.059,4.567L218.667,341.16z"/>
			</g>
			
				<line style="fill:#FFFFFF;stroke:#263238;stroke-linecap:round;stroke-linejoin:round;stroke-miterlimit:10;" x1="217.57" y1="350.314" x2="225.892" y2="310.213"/>
			<path style="fill:#FFFFFF;stroke:#263238;stroke-linecap:round;stroke-linejoin:round;stroke-miterlimit:10;" d="
				M211.931,271.479c11.988,8.37,47.03,32.385,53.639,31.835c6.083-0.507,33.745-26.448,46.656-38.854
				c-9.816-3.918-19.347-7.327-21.323-7.479c-4.333-0.333-21,0.667-21,0.667s-39.667,7.667-50.333,10.333
				C216.525,268.741,214.037,269.949,211.931,271.479z"/>
		</g>
		<path style="fill:none;stroke:#263238;stroke-linecap:round;stroke-linejoin:round;stroke-miterlimit:10;" d="M269.903,257.647
			c0,0-39.667,7.667-50.333,10.333c-10.667,2.667-14.667,10.667-18.333,19.667c-3.667,9-29.667,66-31,69.333
			c-1.333,3.333,7,5.333,17.333,9c10.333,3.667,16.333,7.667,19.333,3.667s10.667-19.333,10.667-19.333l-3.333,83.667h123
			l-5.333-87.333c0,0,4.667-68,4.333-70.667c-0.333-2.667-41-18.667-45.333-19C286.57,256.647,269.903,257.647,269.903,257.647z"/>
		<g>
			<path style="fill:#FFFFFF;stroke:#263238;stroke-linecap:round;stroke-linejoin:round;stroke-miterlimit:10;" d="M300.236,258.98
				c0,0-1,19.667-5.333,48.667c-4.333,29-4.333,27.667-4.333,41c0,13.333,3.333,56,3.333,56h5.333c0,0-4.333-45-4-56.667
				c0.333-11.667,3-35,6-45.333c3-10.333,4-41,4-41L300.236,258.98z"/>
			<g>
				<path style="fill:#FFFFFF;stroke:#263238;stroke-linecap:round;stroke-linejoin:round;stroke-miterlimit:10;" d="
					M258.958,259.361l-7.055,1.619c0,0-3,19.333-1.667,38c1.333,18.667,3.333,24.333,3.333,24.333s1.667-45.333,3-53.667
					C257.903,261.314,258.958,259.361,258.958,259.361z"/>
				<path style="fill:#FFFFFF;stroke:#263238;stroke-linecap:round;stroke-linejoin:round;stroke-miterlimit:10;" d="
					M253.57,323.314c0,0,0.667,21-0.667,43s-1.333,41.333-1.333,41.333l6,0.333c0,0-0.667-25.333-0.667-46.667
					C256.903,339.98,253.57,323.314,253.57,323.314z"/>
			</g>
		</g>
		<g>
			<polyline style="fill:#FFFFFF;stroke:#263238;stroke-linecap:round;stroke-linejoin:round;stroke-miterlimit:10;" points="
				262.903,278.647 263.903,244.98 298.57,244.98 297.903,275.647 			"/>
		</g>
		<path style="fill:#263238;stroke:#263238;stroke-linecap:round;stroke-linejoin:round;stroke-miterlimit:10;" d="M298.369,254.199
			l-8.434-9.218h-26.032l-0.731,24.623c1.939,0.756,6.553,1.806,14.571-0.532c10.35-3.019,19.488-13.299,20.621-14.609
			L298.369,254.199z"/>
		<path style="fill:#263238;stroke:#263238;stroke-linecap:round;stroke-linejoin:round;stroke-miterlimit:10;" d="M247.618,162.814
			c-6.941,6.94-12.759,16.546-13.051,25.001c-0.343,9.941-6.171,23.996-9.256,25.367c-3.085,1.371-4.114,2.4-4.114,2.4
			s6.513,3.085,9.256,2.742s5.142-1.371,5.142-1.371s-2.057,2.742-3.428,4.114c-1.371,1.371-1.371,1.371-1.371,1.371l5.485,1.371
			c0,0-3.771,2.4-6.513,3.085c-2.742,0.686-4.457,0.686-4.457,0.686s0.686,6.171,7.885,8.227c7.199,2.057,12.684,1.028,12.684,1.028
			l-4.114,4.114c0,0,1.028,1.028,7.884,1.371c6.856,0.343,10.284-1.714,10.284-1.714l42.165-1.714c0,0,1.028,3.428,5.828,5.142
			c4.799,1.714,7.199,2.4,7.199,2.4s-0.686-2.742-1.028-4.114c-0.343-1.371-1.028-6.856-1.028-6.856s2.4,6.171,13.712,6.513
			c11.313,0.343,15.083-6.171,15.083-6.171s-4.114,0-6.856-3.771c-2.742-3.771-3.085-5.142-3.085-5.142s4.457,1.714,7.885,1.371
			c3.428-0.343,6.17-2.742,6.17-2.742s-13.369-9.598-14.055-16.112s-2.4-31.881-7.199-40.451
			c-4.799-8.57-13.027-16.455-34.282-20.226c-11.496-2.039-23.56,1.322-33.605,6.911C253.79,157.341,250.6,159.831,247.618,162.814z
			"/>
		<g>
			<path style="fill:#FFFFFF;stroke:#263238;stroke-linecap:round;stroke-linejoin:round;stroke-miterlimit:10;" d="
				M302.308,194.072c0,0-20.426,17.716-52.174,22.63c0,0,0.083,20.17,10.961,33.638c11.816,14.629,19.079,14.754,22.118,14.515
				c8.27-0.65,25.126-20.184,25.882-23.586c0.756-3.402,1.89-16.252,1.89-24.567S301.174,202.765,302.308,194.072z"/>
			<g>
				<path style="fill:#263238;" d="M243.652,222.516c-0.575,0-1.048-0.458-1.065-1.036c-0.016-0.589,0.448-1.079,1.037-1.095
					c41.885-1.163,56.945-24.366,57.092-24.6c0.314-0.498,0.974-0.649,1.469-0.336c0.499,0.312,0.651,0.969,0.338,1.467
					c-0.621,0.996-15.738,24.403-58.841,25.6C243.673,222.516,243.662,222.516,243.652,222.516z"/>
			</g>
			<path style="fill:none;stroke:#263238;stroke-linecap:round;stroke-linejoin:round;stroke-miterlimit:10;" d="M262.728,228.778
				c0,0,2.994,0.749,7.298,0"/>
			<path style="fill:none;stroke:#263238;stroke-linecap:round;stroke-linejoin:round;stroke-miterlimit:10;" d="M293.419,228.404
				c0,0,4.678,0.936,8.421-0.187"/>
			<path style="fill:#263238;" d="M298.03,225.65c0,1.665-0.675,3.014-1.507,3.014c-0.832,0-1.507-1.349-1.507-3.014
				c0-1.664,0.675-3.014,1.507-3.014C297.355,222.636,298.03,223.985,298.03,225.65z"/>
			<path style="fill:#FFFFFF;stroke:#263238;stroke-linecap:round;stroke-linejoin:round;stroke-miterlimit:10;" d="
				M312.294,220.991c-0.615-1.168-2.044-1.918-4.247-2.23c-3.508-0.494-22.539,0.778-23.348,0.833l-0.325,0.072
				c-0.186,0.071-0.386,0.169-0.592,0.292v-0.098h-5.932v0.098c-0.206-0.123-0.407-0.221-0.593-0.292l-0.325-0.072
				c-0.808-0.055-19.843-1.331-23.348-0.833c-2.202,0.312-3.632,1.062-4.246,2.23c-0.438,0.831-0.424,1.803,0.04,2.737
				c0.083,0.168,0.179,0.452,0.309,0.818c1.102,3.104,4.029,11.348,14.347,11.745c0.466,0.018,0.916,0.027,1.354,0.027
				c10.314,0,12.833-4.87,14.369-9.477c0.134-0.401,0.224-0.777,0.296-1.143h1.526c0.071,0.365,0.162,0.742,0.295,1.142
				c1.535,4.608,4.051,9.478,14.367,9.478c0.438,0,0.89-0.009,1.355-0.027c10.319-0.397,13.246-8.641,14.347-11.745
				c0.13-0.366,0.226-0.65,0.309-0.818C312.717,222.794,312.731,221.822,312.294,220.991z M279.735,222.095h2.161
				c-0.184,0.405-0.324,0.858-0.399,1.365h-1.362C280.059,222.953,279.918,222.5,279.735,222.095z M277.637,226.132
				c-1.521,4.56-3.572,8.291-13.518,7.924c-8.803-0.339-11.272-7.291-12.325-10.259c-0.169-0.478-0.305-0.845-0.414-1.065
				c-0.096-0.193-0.184-0.471-0.063-0.7c0.092-0.175,0.55-0.77,2.581-1.057c0.477-0.068,1.322-0.097,2.422-0.097
				c5.097,0,15.651,0.624,20.255,0.932C277.085,222.079,278.625,223.165,277.637,226.132z M310.25,222.732
				c-0.109,0.22-0.245,0.587-0.414,1.065c-1.054,2.968-3.521,9.92-12.325,10.259c-9.93,0.369-11.995-3.363-13.516-7.924
				c-0.988-2.966,0.55-4.053,1.061-4.322c5.598-0.375,19.995-1.216,22.676-0.835c2.032,0.288,2.491,0.882,2.582,1.057
				C310.436,222.26,310.346,222.539,310.25,222.732z"/>
			<path style="fill:none;stroke:#263238;stroke-linecap:round;stroke-linejoin:round;stroke-miterlimit:10;" d="M274.924,239.513
				c0,0,3.617,2.813,6.229,2.612s5.224-2.009,5.827-3.215"/>
			<path style="fill:none;stroke:#263238;stroke-linecap:round;stroke-linejoin:round;stroke-miterlimit:10;" d="M272.111,244.536
				c0,0,1.471,4.827,10.448,4.42c6.364-0.288,7.836-5.023,7.836-5.023"/>
			<path style="fill:none;stroke:#263238;stroke-width:2;stroke-linecap:round;stroke-linejoin:round;stroke-miterlimit:10;" d="
				M287.992,216.988c0,0,6.622-3.595,11.846-2.992c5.224,0.603,7.434,2.411,7.434,2.411"/>
			<path style="fill:none;stroke:#263238;stroke-width:2;stroke-linecap:round;stroke-linejoin:round;stroke-miterlimit:10;" d="
				M273.77,216.801c0,0-4.672-2.001-9.896-1.599c-5.224,0.402-9.041,2.411-9.041,2.411"/>
			<path style="fill:#263238;" d="M266.988,225.65c0,1.665-0.675,3.014-1.507,3.014c-0.832,0-1.507-1.349-1.507-3.014
				c0-1.664,0.675-3.014,1.507-3.014C266.313,222.636,266.988,223.985,266.988,225.65z"/>
		</g>
		<path style="fill:#92E3A9;" d="M330.57,273.314c0,0,16.667,5.333,20,8.667c3.333,3.333,24,52.333,30,60.333s3,11.667,0,14.667
			s-22,11-29.333,11.667c-7.333,0.667-15,2.333-18.333-10.667c-3.333-13-4-31.667-7.333-41.333c-3.333-9.667-4.333-11-4.333-11"/>
		<g style="opacity:0.4;">
			<path style="fill:#FFFFFF;" d="M342.108,314.905c-8.542,5.008-12.523,8.781-14.357,11.039c0.353,2.062,0.678,4.241,0.991,6.492
				c0.948-0.849,1.509-1.401,1.635-1.527c0.239-0.239,0.391-0.439,0.517-0.753c0.02-0.04,2.1-4.111,13.744-10.938
				c5.522-3.237,13.132-6.337,19.943-8.799c-0.711-1.534-1.417-3.06-2.114-4.564C355.558,308.369,347.861,311.533,342.108,314.905z"
				/>
			<path style="fill:#FFFFFF;" d="M350.266,327.821c-12.382,6.486-17.631,12.855-19.849,16.892c0.38,2.618,0.794,5.197,1.263,7.671
				c0.954-0.842,1.438-1.395,1.523-1.495c0.283-0.334,0.482-0.785,0.56-1.216c0.015-0.083,1.719-8.462,18.824-17.422
				c7.078-3.708,13.704-5.62,19.141-6.591c-0.729-1.521-1.475-3.094-2.232-4.701C363.913,322.079,357.31,324.131,350.266,327.821z"
				/>
			<path style="fill:#FFFFFF;" d="M334.979,363.444c1.008,1.816,2.18,3.078,3.469,3.939c2.246-3.925,7.876-11.727,19.416-17.193
				c7.897-3.741,16.465-5.896,23.233-7.128c-0.175-0.249-0.334-0.491-0.528-0.749c-0.634-0.845-1.433-2.153-2.357-3.811
				c-6.727,1.339-14.829,3.541-22.489,7.169C344.265,351.099,338.021,358.641,334.979,363.444z"/>
			<path style="fill:#FFFFFF;" d="M323.246,310.224c0.544,1.411,1.219,3.25,2.047,5.628c0.032-0.029,0.072-0.066,0.09-0.082
				c0.148-0.138,0.279-0.291,0.391-0.46c0.153-0.23,13.37-19.953,29.238-25.287c-0.847-1.734-1.612-3.253-2.272-4.5
				C338.786,290.548,327.378,304.603,323.246,310.224z"/>
			<path style="fill:#FFFFFF;" d="M329.757,276.128c1.034-0.738,2.018-1.444,2.941-2.108c-1.309-0.444-2.129-0.706-2.129-0.706
				L329.757,276.128z"/>
			<path style="fill:#FFFFFF;" d="M326.921,285.955l-2.329,8.069c7.054-5.489,14.672-10.957,20.688-15.159
				c-1.702-0.781-3.603-1.559-5.459-2.275C335.848,279.393,331.388,282.605,326.921,285.955z"/>
		</g>
		<path style="fill:none;stroke:#263238;stroke-miterlimit:10;" d="M330.57,273.314c0,0,16.667,5.333,20,8.667
			c3.333,3.333,24,52.333,30,60.333s3,11.667,0,14.667s-22,11-29.333,11.667c-7.333,0.667-15,2.333-18.333-10.667
			c-3.333-13-4-31.667-7.333-41.333c-3.333-9.667-4.333-11-4.333-11"/>
		<g>
			<path style="fill:#FFFFFF;stroke:#263238;stroke-linecap:round;stroke-linejoin:round;stroke-miterlimit:10;" d="M381.903,374.98
				c0,0-3-13-5.667-17.667c-2.667-4.667-22.667-0.667-30.333,2.333c-7.667,3-47.333,13.333-59.667,16.333
				c-12.333,3-20.333,6.667-24.667,11c-4.333,4.333-24.333,14.333-23,16.333c1.333,2,7.667,2,12,2c4.333,0,15-3.333,16-4
				c1-0.667,2.333-0.667,2.333-0.667l-7.333,5.667c0,0,1,3,4.667,0.667c3.667-2.333,10.333-7,11.667-8
				c1.333-1,7.667-3.333,9.667-5.333s3.333-5.333,3.333-5.333s45.333,1.333,66.333-2C378.236,382.98,380.903,377.314,381.903,374.98
				z"/>
			<path style="fill:none;stroke:#263238;stroke-linecap:round;stroke-linejoin:round;stroke-miterlimit:10;" d="M246.57,405.314
				c0,0,0-1.667,3.667-3c3.667-1.333,10-3,17.333-9"/>
			<path style="fill:none;stroke:#263238;stroke-linecap:round;stroke-linejoin:round;stroke-miterlimit:10;" d="M268.903,400.647
				c0,0,4.667-3.333,7.333-5.667"/>
			<path style="fill:none;stroke:#263238;stroke-linecap:round;stroke-linejoin:round;stroke-miterlimit:10;" d="M242.236,404.647
				c0,0-0.333-2.667,4-4.667c4.333-2,8.667-3.333,16.667-9.667"/>
		</g>
		<path style="fill:#FFFFFF;stroke:#263238;stroke-linecap:round;stroke-linejoin:round;stroke-miterlimit:10;" d="M205.57,391.647
			c0,0-2.333-8.667-5.667-23.667s-16.333-16.667-22-15.333c-5.667,1.333-9.333,5.667-7.667,14.667c1.667,9,15.667,35,17.667,37.333
			c2,2.333,16,0.667,19.667-3.667C211.236,396.647,205.57,391.647,205.57,391.647z"/>
		<g>
			<path style="fill:#FFFFFF;stroke:#263238;stroke-linecap:round;stroke-linejoin:round;stroke-miterlimit:10;" d="M191.57,402.98
				c0,0,11.667-8.667,15.333-10.333c3.667-1.667,16.667-1.667,21-0.667s10,13,10,13s-37,2-42.333,2c-5.333,0-7.333,1-7.667-2.333"/>
			<path style="fill:none;stroke:#263238;stroke-linecap:round;stroke-linejoin:round;stroke-miterlimit:10;" d="M215.903,406.314
				c0,0-8.667-9-10.333-10.667"/>
			
				<line style="fill:none;stroke:#263238;stroke-linecap:round;stroke-linejoin:round;stroke-miterlimit:10;" x1="222.57" y1="405.314" x2="212.57" y2="393.647"/>
			<path style="fill:none;stroke:#263238;stroke-linecap:round;stroke-linejoin:round;stroke-miterlimit:10;" d="M230.903,405.647
				c0,0-6.667-9.667-10.333-12.667"/>
		</g>
	</g>
	<g>
		<g>
			<g>
				
					<rect x="107.485" y="329.071" style="fill:#92E3A9;stroke:#263238;stroke-linecap:round;stroke-linejoin:round;stroke-miterlimit:10;" width="10.697" height="16.58"/>
				
					<line style="fill:none;stroke:#263238;stroke-linecap:round;stroke-linejoin:round;stroke-miterlimit:10;" x1="107.358" y1="334.077" x2="113.654" y2="329.414"/>
				
					<line style="fill:none;stroke:#263238;stroke-linecap:round;stroke-linejoin:round;stroke-miterlimit:10;" x1="107.591" y1="338.041" x2="118.182" y2="329.071"/>
				
					<line style="fill:none;stroke:#263238;stroke-linecap:round;stroke-linejoin:round;stroke-miterlimit:10;" x1="109.224" y1="336.642" x2="112.721" y2="341.771"/>
				
					<line style="fill:none;stroke:#263238;stroke-linecap:round;stroke-linejoin:round;stroke-miterlimit:10;" x1="112.255" y1="334.31" x2="116.218" y2="340.372"/>
				
					<line style="fill:none;stroke:#263238;stroke-linecap:round;stroke-linejoin:round;stroke-miterlimit:10;" x1="115.286" y1="331.745" x2="118.084" y2="336.875"/>
				
					<line style="fill:none;stroke:#263238;stroke-linecap:round;stroke-linejoin:round;stroke-miterlimit:10;" x1="108.291" y1="345.735" x2="118.084" y2="338.74"/>
				
					<line style="fill:none;stroke:#263238;stroke-linecap:round;stroke-linejoin:round;stroke-miterlimit:10;" x1="113.887" y1="345.269" x2="117.851" y2="342.937"/>
			</g>
			<polygon style="fill:#FFFFFF;stroke:#263238;stroke-linecap:round;stroke-linejoin:round;stroke-miterlimit:10;" points="
				182.377,345.178 180.238,347.629 128.944,347.629 126.805,345.178 96.95,345.178 96.95,368.031 212.233,368.031 212.233,345.178 
							"/>
			<polygon style="fill:#FFFFFF;stroke:#263238;stroke-linecap:round;stroke-linejoin:round;stroke-miterlimit:10;" points="
				233.664,394.44 200.958,394.44 193.95,337.052 240.673,337.052 			"/>
			<polygon style="fill:#FFFFFF;stroke:#263238;stroke-linecap:round;stroke-linejoin:round;stroke-miterlimit:10;" points="
				230.687,337.052 230.197,394.44 233.664,394.44 240.673,337.052 			"/>
			<path style="fill:#FFFFFF;stroke:#263238;stroke-linecap:round;stroke-linejoin:round;stroke-miterlimit:10;" d="
				M179.092,355.635H131.08c-0.921,0-1.667-0.746-1.667-1.667v-0.232c0-0.921,0.746-1.667,1.667-1.667h48.012
				c0.921,0,1.667,0.746,1.667,1.667v0.232C180.759,354.889,180.013,355.635,179.092,355.635z"/>
			<path style="fill:#FFFFFF;stroke:#263238;stroke-linecap:round;stroke-linejoin:round;stroke-miterlimit:10;" d="
				M101.941,368.031v71.218h173.664v-24.575c0-3.56-2.886-6.446-6.446-6.446H148.846c-2.658,0-4.814-2.155-4.814-4.814v-9.593
				c0-10.367,5.229-20.034,13.906-25.707l0,0L101.941,368.031z"/>
			<path style="fill:#FFFFFF;stroke:#263238;stroke-linecap:round;stroke-linejoin:round;stroke-miterlimit:10;" d="M96.95,368.031
				v71.218h173.664v-31.021H143.854c-2.658,0-4.814-2.155-4.814-4.814v-9.593c0-10.367,5.229-20.034,13.906-25.707l0,0
				L96.95,368.031z"/>
			
				<circle style="fill:#858585;stroke:#263238;stroke-linecap:round;stroke-linejoin:round;stroke-miterlimit:10;" cx="112.031" cy="424.541" r="10.964"/>
			<polygon style="fill:#858585;stroke:#263238;stroke-linecap:round;stroke-linejoin:round;stroke-miterlimit:10;" points="
				199.768,384.695 200.958,394.44 233.664,394.44 234.855,384.695 			"/>
			<polygon style="fill:#666666;stroke:#263238;stroke-linecap:round;stroke-linejoin:round;stroke-miterlimit:10;" points="
				230.28,384.695 230.197,394.44 233.664,394.44 234.855,384.695 			"/>
		</g>
		<g>
			<path style="fill:#92E3A9;stroke:#263238;stroke-linecap:round;stroke-linejoin:round;stroke-miterlimit:10;" d="
				M160.689,447.175c0,0-61.806,1.818-66.35,0.909c-4.545-0.909,14.542-7.271,39.992-10.452c25.45-3.181,67.26,9.998,67.26,9.998
				L160.689,447.175z"/>
			<path style="fill:#92E3A9;stroke:#263238;stroke-linecap:round;stroke-linejoin:round;stroke-miterlimit:10;" d="
				M233.775,402.072c-4.547,0.138-9.098,0.527-13.628,1.044c-8.276,0.944-24.226-0.115-30.485,6.144c0,0-9.089,14.088-12.725,19.996
				c-3.636,5.908-6.362,9.544-9.998,10.907c-3.636,1.363-19.087,7.726-19.087,7.726h129.065c0,0,18.966,0.664,25.335-7.063
				c6.863-8.335-4.826-17.836-10.789-22.302c-9.858-7.382-20.696-10.556-32.473-13.809
				C250.717,402.429,242.255,401.814,233.775,402.072z"/>
			<path style="fill:#92E3A9;stroke:#263238;stroke-linecap:round;stroke-linejoin:round;stroke-miterlimit:10;" d="
				M272.009,437.356c0,0,20.328-3.966,38.177-0.496c17.849,3.471,43.135,0.496,55.034,1.487c11.899,0.992,31.236,3.471,31.236,3.471
				s-29.748,4.958-45.118,5.95c-15.37,0.992-29.748,1.983-29.748,1.983s-7.933,0.496-28.757-5.95
				C272.009,437.356,272.009,437.356,272.009,437.356z"/>
			<path style="fill:#263238;stroke:#263238;stroke-linecap:round;stroke-linejoin:round;stroke-miterlimit:10;" d="M229.37,447.768
				c0,0,12.395-0.992,27.765-6.941c15.37-5.95,24.295-4.958,35.698-0.496c11.404,4.462,15.37,8.429,28.757,9.42L229.37,447.768z"/>
		</g>
	</g>
</g>
</svg>
